<svg width="58" height="60" viewBox="0 0 58 60" fill="none" xmlns="http://www.w3.org/2000/svg">
<path d="M29.1361 36.7099C27.467 36.7099 26.1094 35.3427 26.1094 33.6622C26.1094 31.9814 27.467 30.6143 29.1361 30.6143C30.8049 30.6143 32.1628 31.9814 32.1628 33.6622C32.1628 35.3427 30.8049 36.7099 29.1361 36.7099ZM29.1361 33.3306C28.9547 33.3306 28.807 33.4793 28.807 33.662C28.807 33.8445 28.9547 33.9931 29.1361 33.9931C29.3173 33.9931 29.465 33.8445 29.465 33.662C29.465 33.4793 29.3175 33.3306 29.1361 33.3306Z" fill="#383838"/>
<path d="M29.1335 38.4009C28.3885 38.4009 27.7847 37.7927 27.7847 37.0425V35.353C27.7847 34.6029 28.3885 33.9946 29.1335 33.9946C29.8783 33.9946 30.4823 34.6029 30.4823 35.353V37.0425C30.4823 37.7927 29.8783 38.4009 29.1335 38.4009Z" fill="#383838"/>
<path d="M35.2858 27.1346H22.9817C22.2369 27.1346 21.6328 26.5265 21.6328 25.7763V24.0867C21.6328 19.9217 24.9977 16.5332 29.1337 16.5332C30.9005 16.5332 32.6168 17.1648 33.967 18.3119C35.6621 19.7519 36.6345 21.8567 36.6345 24.0867V25.7763C36.6346 26.5265 36.0307 27.1346 35.2858 27.1346ZM24.3307 24.418H33.937V24.0867C33.937 22.659 33.314 21.3111 32.2279 20.3883C31.3635 19.6541 30.2648 19.2499 29.1339 19.2499C26.4853 19.2499 24.3307 21.4197 24.3307 24.0867V24.418Z" fill="#383838"/>
<path d="M29.1356 42.3415C23.4576 42.3415 18.8384 37.6897 18.8384 31.972V25.7768C18.8384 25.0266 19.4423 24.4185 20.1871 24.4185H38.084C38.829 24.4185 39.4329 25.0266 39.4329 25.7768V31.972C39.4329 35.944 37.2352 39.5069 33.6976 41.27C32.2708 41.981 30.7359 42.3415 29.1356 42.3415ZM21.536 27.1353V31.9721C21.536 36.1919 24.9451 39.625 29.1356 39.625C30.3172 39.625 31.4494 39.3593 32.5009 38.8355C35.1126 37.5338 36.7353 34.904 36.7353 31.9723V27.1354H21.536V27.1353Z" fill="#383838"/>
<path d="M35.2993 59.9998H23.0361C22.6734 59.9998 22.3263 59.8529 22.0726 59.5922C20.9713 58.4604 19.938 57.406 18.9681 56.4166C11.4359 48.7316 7.65519 44.8741 5.71207 39.0681C3.79756 33.3472 3.8086 26.0091 3.83051 11.3895C3.83289 9.73252 3.83542 7.9808 3.83542 6.12596C3.83542 5.72267 4.01339 5.34023 4.32132 5.08223C4.6291 4.82422 5.0351 4.7169 5.42873 4.7903C7.55906 5.18534 9.66851 5.38571 11.6984 5.38571C17.6683 5.38556 23.2949 3.64975 28.4223 0.22631C28.9209 -0.106893 29.5782 -0.0690698 30.0363 0.319367C34.0048 3.68442 39.1811 5.32027 45.8608 5.32012C48.0355 5.32012 50.3979 5.13881 52.8826 4.78144C53.27 4.72576 53.6617 4.84208 53.9571 5.09994C54.2525 5.35794 54.4221 5.73242 54.4221 6.12611C54.4221 8.65576 54.4285 10.9421 54.4347 13.1531C54.4728 26.7527 54.4917 33.5791 52.7299 38.9216C50.9401 44.3487 47.4558 47.962 40.5143 55.1604C39.2495 56.4721 37.8158 57.9587 36.2736 59.5809C36.0192 59.8486 35.6673 59.9998 35.2993 59.9998ZM23.6024 57.2832H34.7237C36.1207 55.8168 37.4204 54.4691 38.5788 53.2678C45.2342 46.3663 48.5746 42.9023 50.1698 38.0652C51.7928 33.1433 51.7743 26.4652 51.7371 13.1605C51.7321 11.4065 51.7272 9.60523 51.7253 7.67205C49.6728 7.914 47.7061 8.03648 45.8608 8.03648C39.0404 8.03663 33.4012 6.35275 29.0812 3.02927C23.7285 6.39613 17.8859 8.10192 11.6985 8.10207C10.0144 8.10207 8.28283 7.97509 6.53257 7.72369C6.53168 8.99646 6.52974 10.2187 6.5281 11.3933C6.50678 25.715 6.49605 32.9037 8.26852 38.2004C10.0128 43.412 13.6472 47.1202 20.8881 54.5081C21.7426 55.3802 22.6466 56.3023 23.6024 57.2832Z" fill="#383838"/>
<path d="M33.7221 51.85C33.3867 51.85 33.0508 51.725 32.7895 51.473C32.2514 50.9543 32.2328 50.0946 32.7479 49.5526C33.6431 48.6109 34.4743 47.7444 35.2462 46.9398C40.1183 41.8613 42.564 39.3123 43.7113 35.9559C44.8819 32.5325 44.8632 27.9296 44.826 18.7598C44.8208 17.4418 44.8149 15.9912 44.8123 14.4376C38.1505 15.1573 32.9795 14.0844 29.0751 11.1718C23.8863 14.3615 18.099 15.392 11.8586 14.2345C11.1259 14.0987 10.6415 13.3904 10.7765 12.6527C10.9114 11.915 11.615 11.4272 12.3473 11.5629C18.2115 12.6506 23.6172 11.5785 28.4136 8.37616C28.9126 8.04296 29.5699 8.08093 30.0278 8.46922C33.6765 11.5634 38.8906 12.5723 45.9692 11.5541C46.3568 11.4982 46.7483 11.6147 47.0437 11.8727C47.3391 12.1306 47.5087 12.505 47.5087 12.8989C47.5087 15.0333 47.5168 17.0073 47.5236 18.7487C47.6008 37.7916 47.5041 38.0727 37.1864 48.8275C36.417 49.6293 35.5886 50.4931 34.6965 51.4311C34.4317 51.7099 34.0771 51.85 33.7221 51.85Z" fill="#383838"/>
<path d="M56.6513 59.9994H1.34887C0.603935 59.9994 0 59.3911 0 58.6411C0 57.891 0.603935 57.2827 1.34887 57.2827H56.6513C57.3961 57.2827 58 57.891 58 58.6411C58 59.3911 57.3961 59.9994 56.6513 59.9994Z" fill="#383838"/>
<path d="M49.9074 54.5653H40.4656C39.7208 54.5653 39.1167 53.957 39.1167 53.207C39.1167 52.457 39.7208 51.8486 40.4656 51.8486H49.9074C50.6523 51.8486 51.2562 52.457 51.2562 53.207C51.2562 53.957 50.6523 54.5653 49.9074 54.5653Z" fill="#383838"/>
<path d="M17.5334 54.5653H8.09155C7.34662 54.5653 6.74268 53.957 6.74268 53.207C6.74268 52.457 7.34662 51.8486 8.09155 51.8486H17.5334C18.2783 51.8486 18.8822 52.457 18.8822 53.207C18.8822 53.957 18.2783 54.5653 17.5334 54.5653Z" fill="#383838"/>
</svg>
