<svg width="64" height="61" viewBox="0 0 64 61" fill="none" xmlns="http://www.w3.org/2000/svg">
<path d="M13.1739 55.1056C13.4226 52.929 13.6714 50.8144 13.9823 48.7622C14.0445 48.0781 14.0445 47.4561 13.547 46.9586C13.4226 46.8344 13.3604 46.7721 13.2982 46.6476C12.552 45.0308 11.246 44.5333 9.56682 44.5333C7.88768 44.5333 6.14635 44.2844 4.46722 44.0979C3.65873 44.0357 3.34779 43.7869 3.16122 42.9163C2.41493 39.7445 1.73084 36.4486 1.10893 33.2146C0.860172 32.0329 0.984553 31.8464 2.04179 31.2867C3.96969 30.3538 5.8354 29.421 7.7633 28.426C8.01206 28.3016 8.26082 27.9285 8.3852 27.6175C8.63396 26.6224 8.82053 25.5652 8.94492 24.5702C9.00711 24.2592 8.88273 23.8238 8.69616 23.5751C7.39016 21.7716 6.02197 19.968 4.65379 18.1645C4.09406 17.4183 4.09406 17.1696 4.65379 16.4232C6.95482 13.5625 9.25586 10.7017 11.5569 7.77875C11.9922 7.28123 12.4276 7.21903 13.0495 7.4678C15.2261 8.33846 17.4028 9.20913 19.5794 10.0798C20.0148 10.2664 20.3879 10.2042 20.8233 10.0176C22.7512 9.3335 23.7462 8.0897 24.0572 6.0996C24.3059 4.73143 24.8034 3.42543 25.2388 2.11943C25.4254 1.18657 25.6742 1 26.6691 1C30.2141 1 33.7589 1 37.3037 1C38.2365 1 38.4853 1.18657 38.7963 2.11943C39.4183 4.10952 39.9779 6.1618 40.5999 8.15189C40.7241 8.46284 40.973 8.83599 41.284 9.02256C41.9057 9.3957 42.5898 9.70665 43.2118 10.0798C43.6472 10.3286 43.9581 10.3286 44.3934 10.142C46.5079 9.27132 48.6846 8.40066 50.8612 7.52999C51.7319 7.15684 51.9807 7.28123 52.6025 8.0275C54.7792 10.7639 57.0181 13.5003 59.1948 16.2366C60.0031 17.2317 60.0031 17.4183 59.2569 18.4133C57.9509 20.0924 56.7071 21.8337 55.4011 23.5129C55.0901 23.8861 55.028 24.2592 55.0901 24.6945C55.2767 25.6895 55.4011 26.6846 55.6498 27.6796C55.7121 27.9906 55.9608 28.3016 56.2096 28.426C58.1374 29.421 60.0654 30.4161 62.0555 31.3489C62.9883 31.8464 63.1127 32.0952 62.9262 33.0903C62.2421 36.3241 61.558 39.558 60.9361 42.7918C60.7495 43.7869 60.4385 44.0357 59.4435 44.0979C57.2047 44.2844 54.9657 44.471 52.7269 44.7198C52.416 44.782 52.0428 45.0308 51.794 45.2795C51.4209 45.6526 51.2343 46.1501 50.8612 46.5234C50.1149 47.3317 49.9283 48.2025 50.1149 49.3218C50.4258 51.001 50.5503 52.7424 50.799 54.4837C50.9234 55.6031 50.8612 55.7897 49.8041 56.2872C46.8189 57.7175 43.8959 59.148 40.9107 60.5161C39.8535 61.0137 39.6669 60.9515 38.8584 60.143C37.4903 58.7126 36.1221 57.2201 34.754 55.7897C34.5051 55.541 34.0699 55.3543 33.7589 55.3543C32.7016 55.2922 31.5822 55.2922 30.4628 55.3543C30.0897 55.3543 29.7165 55.541 29.4677 55.7897C28.0374 57.2823 26.607 58.7749 25.1767 60.2674C24.6791 60.8271 24.1193 60.8892 23.4352 60.5784C20.3258 59.0858 17.2162 57.5933 14.1067 56.1007C13.4848 55.9141 13.1739 55.6031 13.1739 55.1056ZM36.9306 3.17666C36.8062 3.17666 36.8062 3.11447 36.7441 3.11447C33.6345 3.11447 30.5872 3.11447 27.4776 3.11447C27.0424 3.11447 26.9801 3.36323 26.9179 3.67419C26.3583 5.60209 25.7985 7.52999 25.1767 9.45789C25.0522 9.89322 24.6791 10.3286 24.3059 10.5773C23.2487 11.1992 22.1292 11.7589 21.072 12.3187C20.5745 12.6296 20.077 12.6296 19.455 12.3808C17.4028 11.5102 15.3505 10.7639 13.2982 9.89322C12.8629 9.70665 12.6763 9.76883 12.3654 10.142C10.5619 12.3808 8.75835 14.6819 6.89263 16.9207C6.58169 17.2938 6.58169 17.4804 6.89263 17.8536C8.13645 19.4705 9.38025 21.1496 10.6241 22.7666C11.0594 23.2642 11.1216 23.8238 10.9972 24.4458C10.7484 25.8761 10.4375 27.2444 10.2509 28.6747C10.1265 29.3588 9.81559 29.7319 9.25586 30.0428C7.45235 30.9136 5.58663 31.9085 3.78312 32.7793C3.28559 33.028 3.16122 33.2768 3.28559 33.7744C3.84532 36.3863 4.40502 38.9983 4.90255 41.6102C4.96473 42.0456 5.1513 42.1701 5.58663 42.2322C7.7633 42.4187 9.93996 42.6053 12.1166 42.7918C12.7385 42.8541 13.1739 43.0407 13.547 43.5382C14.2933 44.5954 15.1018 45.5905 15.7859 46.6476C16.0346 47.0209 16.159 47.5806 16.0968 48.016C15.9102 49.9438 15.6615 51.8095 15.4127 53.7375C15.3505 54.2971 15.4749 54.6702 16.0346 54.9191C18.3978 56.0384 20.7611 57.1579 23.1243 58.2773C23.6841 58.5883 23.9949 58.4639 24.4303 58.0285C25.6742 56.6603 26.9801 55.3543 28.224 53.9861C28.6592 53.4886 29.1567 53.3021 29.8408 53.3021C31.2713 53.3021 32.7638 53.3021 34.1941 53.3021C34.8161 53.3021 35.2515 53.4886 35.6867 53.924C37.0549 55.3543 38.4232 56.7847 39.7914 58.215C40.1023 58.526 40.2889 58.5883 40.662 58.4018C43.1496 57.1579 45.6994 55.9762 48.187 54.7946C48.5602 54.6081 48.6223 54.4215 48.5602 54.0484C48.3115 52.1204 48.0626 50.2548 47.8761 48.3268C47.8139 47.8293 47.8761 47.2075 48.1249 46.8344C48.809 45.7149 49.6796 44.6577 50.4881 43.5382C50.799 43.0407 51.2343 42.8541 51.8563 42.7918C54.033 42.6053 56.1473 42.4187 58.324 42.2322C58.7594 42.1701 59.0081 42.0456 59.1325 41.6102C59.6923 38.936 60.252 36.2619 60.7495 33.5877C60.8116 33.4011 60.6251 33.028 60.4385 32.9659C58.5106 31.9708 56.5827 30.9758 54.6548 30.1051C54.1574 29.8563 53.8464 29.5453 53.7841 28.9857C53.5354 27.4309 53.2245 25.8761 53.0379 24.3214C52.9756 23.8861 53.1 23.3263 53.3489 23.0153C54.4682 21.4606 55.6498 19.968 56.7693 18.4754C57.0181 18.1645 57.2668 17.7914 57.5156 17.4804C55.5255 14.9928 53.5354 12.5674 51.6075 10.142C51.3588 9.83103 51.1099 9.89322 50.8612 10.0176C48.809 10.8261 46.6945 11.6346 44.6422 12.5052C44.0203 12.754 43.5227 12.754 42.9008 12.3808C41.968 11.8211 40.973 11.3236 39.9779 10.8883C39.2938 10.5773 38.9207 10.142 38.734 9.3957C38.1744 7.21903 37.5524 5.16676 36.9306 3.17666Z" fill="#383838" stroke="#383838" stroke-width="0.3"/>
<path d="M32.0162 25.0048C32.3271 24.3208 32.7004 23.7611 32.8869 23.2014C33.0735 22.7039 33.4466 22.4551 34.0063 22.4551C34.7526 22.4551 35.4989 22.4551 36.2452 22.4551C38.3596 22.5795 40.101 24.3208 40.1632 26.4353C40.2253 29.3582 40.2253 32.2812 40.1632 35.2041C40.1632 37.5673 39.106 38.5624 36.6183 38.5002C36.6183 38.7489 36.5562 38.9978 36.5562 39.3087C36.5562 41.6097 36.5562 43.8486 36.5562 46.1495C36.5562 47.891 35.8098 48.886 34.3795 49.2591C33.6332 49.4457 32.9491 49.2591 32.3271 48.9482C32.1406 48.886 31.8296 48.8237 31.6431 48.9482C29.9018 50.0676 27.2897 48.7616 27.2897 46.3362C27.2897 44.0352 27.2897 41.6719 27.2897 39.3709C27.2897 39.1222 27.2897 38.8112 27.2897 38.5624C26.7922 38.5002 26.357 38.5624 25.9216 38.4379C24.6778 38.1271 23.807 37.0698 23.7449 35.7016C23.7449 32.5299 23.6828 29.4205 23.7449 26.2487C23.7449 24.3831 25.5485 22.6416 27.4763 22.5172C28.2848 22.4551 29.0933 22.5172 29.9018 22.4551C30.3993 22.4551 30.7724 22.7039 31.0213 23.1392C31.3321 23.6988 31.6431 24.3208 32.0162 25.0048ZM29.4664 37.8161C29.4043 37.8161 29.4043 37.8161 29.4664 37.8161C29.4043 40.5525 29.4043 43.2888 29.4043 46.0253C29.4043 46.8338 29.6529 47.269 30.2128 47.2069C30.959 47.1446 30.8968 46.5849 30.8968 46.0874C30.8968 43.4132 30.8968 40.739 30.8968 38.0648C30.8968 37.0076 31.2699 36.448 32.0162 36.448C32.7625 36.448 33.0735 36.9455 33.0735 38.0648C33.0735 40.8013 33.0735 43.5998 33.0735 46.3362C33.0735 46.8338 33.1979 47.1446 33.7576 47.2069C34.2551 47.2069 34.5038 46.8959 34.5038 46.3984C34.5038 45.963 34.5038 45.5899 34.5038 45.1546C34.5038 39.9928 34.4417 34.831 34.4417 29.6691C34.4417 28.7364 34.8771 28.1144 35.6233 28.1766C36.2452 28.1766 36.6805 28.7985 36.6805 29.7314C36.6805 29.8557 36.6805 29.9801 36.6805 30.1045C36.6805 31.9702 36.6805 33.8359 36.6805 35.6395C36.6805 36.137 36.867 36.448 37.3645 36.448C37.8621 36.448 38.1109 36.137 38.1109 35.6395C38.1109 32.5922 38.1109 29.5447 38.1109 26.4974C38.1109 25.5647 37.3645 24.7562 36.4939 24.5696C36.0587 24.5073 35.6233 24.5696 35.1879 24.5073C34.7526 24.4452 34.5661 24.6317 34.3795 25.0048C34.0063 25.8755 33.5087 26.684 33.1356 27.5548C32.8869 28.0521 32.6381 28.4254 32.0784 28.4254C31.5186 28.4254 31.2078 28.0521 31.0213 27.6169C30.7103 26.995 30.337 26.4353 30.1505 25.8134C29.8395 24.7562 29.1554 24.4452 28.0982 24.5696C26.8545 24.6939 25.9837 25.5024 25.9837 26.7463C25.9837 27.7413 25.9837 28.6741 25.9837 29.6691C25.9837 31.5971 25.9837 33.5872 25.9837 35.5151C25.9837 35.9505 26.1081 36.3236 26.6056 36.448C27.1032 36.5722 27.4141 36.3236 27.4141 35.7016C27.4141 33.6494 27.4141 31.5971 27.4141 29.4826C27.4141 28.4254 28.2226 27.8035 29.0311 28.2389C29.5287 28.4875 29.6529 28.9851 29.6529 29.5447C29.4664 32.2812 29.4664 35.0797 29.4664 37.8161Z" fill="#383838" stroke="#383838" stroke-width="0.3"/>
<path d="M16.3438 30.106C16.4059 26.4367 18.0229 22.7675 21.1323 19.6581C21.6921 19.0983 22.3139 19.0983 22.7493 19.5336C23.1847 19.969 23.1847 20.5908 22.6249 21.1506C20.4482 23.265 19.0179 25.8148 18.5825 28.8C17.8985 33.2156 19.1422 37.0714 22.1897 40.3052C22.3762 40.4918 22.5628 40.6783 22.7493 40.8649C23.1847 41.3624 23.1847 41.9844 22.7493 42.3575C22.3762 42.7306 21.6921 42.7929 21.2567 42.2953C20.324 41.238 19.3289 40.1187 18.5825 38.9371C17.0278 36.5116 16.3438 33.7752 16.3438 30.106Z" fill="#383838" stroke="#383838" stroke-width="0.3"/>
<path d="M47.5654 31.4722C47.5033 35.4524 45.8863 39.1838 42.7146 42.2311C42.2171 42.7286 41.5953 42.7286 41.1599 42.3555C40.7246 41.9201 40.7246 41.2361 41.222 40.7385C43.461 38.5619 44.8913 35.95 45.3266 32.8404C45.9486 28.487 44.7047 24.6935 41.7195 21.4595C41.533 21.273 41.4087 21.1485 41.222 20.962C40.7868 20.4645 40.7246 19.8427 41.1599 19.4073C41.5953 19.0342 42.1549 19.0342 42.6525 19.4694C44.0206 20.7754 45.2022 22.3302 46.0107 24.0716C47.0679 26.4348 47.5654 28.5493 47.5654 31.4722Z" fill="#383838" stroke="#383838" stroke-width="0.3"/>
<path d="M26.9785 16.3607C26.9785 13.5622 29.2175 11.2611 32.0159 11.1989C34.6901 11.1367 37.24 13.5622 37.1156 16.2363C36.9912 19.0349 34.939 21.2115 32.1403 21.2738C29.2796 21.336 26.9785 19.0972 26.9785 16.3607ZM34.8767 16.2363C34.8767 14.495 33.6329 13.2512 32.0159 13.2512C30.3368 13.2512 29.0309 14.6194 29.0309 16.2986C29.0309 17.9154 30.3991 19.2214 32.0782 19.2214C33.6951 19.1593 34.939 17.9154 34.8767 16.2363Z" fill="#383838" stroke="#383838" stroke-width="0.3"/>
</svg>
