<svg width="75" height="40" viewBox="0 0 75 40" fill="none" xmlns="http://www.w3.org/2000/svg">
<path d="M70.875 19.5945C72.2251 21.3199 72.6751 23.1955 72.6001 25.296C72.525 28.2219 72.6001 31.2227 72.6001 34.1485C72.6001 35.949 72.6001 35.9489 71.925 37.6745C72.45 37.6745 72.9 37.6745 73.425 37.6745C73.95 37.6745 74.4 37.6745 75 37.6745C75 38.4246 75 39.1748 75 40.0001C50.025 40.0001 25.0501 40.0001 0 40.0001C0 39.2499 0 38.5746 0 37.6745C3.3 37.6745 6.67501 37.6745 10.125 37.6745C10.125 32.273 10.125 27.0215 10.125 21.6201C8.25001 21.6201 6.45 21.6201 4.65001 21.6201C3.37501 21.6201 2.475 20.8698 2.25 19.6695C2.175 19.4445 2.175 19.2194 2.175 18.9944C2.175 13.5179 2.175 8.11637 2.175 2.63987C2.175 0.914405 3.15 0.0141602 4.875 0.0141602C10.35 0.0141602 15.75 0.0141602 21.225 0.0141602C22.875 0.0141602 23.85 0.914405 23.85 2.63987C23.85 8.11637 23.85 13.5929 23.85 19.0694C23.85 20.7948 22.95 21.6201 21.225 21.6951C19.4251 21.6951 17.7 21.6951 15.9001 21.6951C15.9001 27.0966 15.9001 32.348 15.9001 37.6745C19.575 37.6745 23.25 37.6745 27.0751 37.6745C25.95 36.2491 26.175 34.7487 26.175 33.3233C26.175 30.5474 26.175 27.7717 26.175 24.9959C26.1 23.0455 26.625 21.2449 27.75 19.8195C27.225 19.2194 26.475 18.7693 26.4 18.1691C26.175 17.1188 26.25 15.9936 26.4 14.9433C26.5501 14.118 27.3 13.6679 28.2 13.5929C29.175 13.5929 30.15 13.5179 31.1251 13.5929C31.65 13.5929 31.95 13.4429 32.175 12.9177C33 11.3423 33.75 9.6918 35.1001 8.49148C36.6 7.1411 38.4 6.3909 40.425 6.3909C46.2751 6.31588 52.125 6.31588 57.9751 6.31588C61.2 6.31588 63.675 7.74127 65.325 10.517C65.4 10.6671 65.5501 10.8921 65.6251 11.0422C66.0751 11.8674 66.375 12.9927 67.0501 13.3677C67.725 13.7429 68.85 13.5179 69.825 13.5179C71.85 13.5179 72.525 14.193 72.525 16.2186C72.525 16.4437 72.525 16.6687 72.525 16.8937C72.6001 18.2441 72.1501 19.1444 70.875 19.5945ZM68.475 34.4485C67.275 34.4485 66.225 34.4485 65.175 34.4485C65.175 36.3991 65.6251 36.8492 67.5 36.8492C67.875 36.8492 68.175 36.8492 68.5501 36.8492C69.6751 36.7742 70.275 36.2491 70.275 35.1237C70.275 31.5227 70.275 27.9217 70.275 24.3208C70.275 22.0702 68.85 20.1947 66.75 19.4444C66.225 19.2944 65.925 19.2944 65.6251 19.7445C64.425 21.47 63.15 23.1205 61.875 24.7709C60.6 26.3463 58.9501 27.1716 56.9251 27.1716C52.2 27.1716 47.475 27.1716 42.7501 27.1716C40.35 27.1716 38.475 26.2713 37.125 24.3208C36 22.7454 34.8 21.1699 33.6751 19.5945C33.45 19.2194 33.225 19.1444 32.775 19.2944C30.45 19.8195 28.725 21.6951 28.65 24.0958C28.5751 27.7717 28.65 31.5227 28.65 35.1988C28.65 36.099 29.25 36.6992 30.15 36.7742C30.825 36.8492 31.5 36.8492 32.175 36.7742C33 36.6992 33.525 36.174 33.6001 35.2738C33.6001 34.9737 33.6751 34.6737 33.75 34.2985C32.325 34.2985 30.975 34.2985 29.625 34.2985C29.625 33.4733 29.625 32.7231 29.625 31.9728C42.675 31.9728 55.65 31.9728 68.6251 31.9728C68.475 32.8731 68.475 33.6233 68.475 34.4485ZM65.6251 16.8187C65.475 16.3686 65.4 15.9936 65.25 15.6184C64.65 14.4931 64.0501 13.3677 63.45 12.2425C62.175 9.84184 60.225 8.71653 57.5251 8.71653C54.4501 8.79156 51.3 8.79156 48.225 8.79156C45.8251 8.79156 43.35 8.79156 40.95 8.79156C38.475 8.79156 36.525 9.76682 35.25 12.0175C34.575 13.2927 33.9 14.5681 33.225 15.8434C33.0751 16.1436 33.075 16.4437 33 16.8187C43.95 16.8187 54.675 16.8187 65.6251 16.8187ZM21.3 2.41482C15.675 2.41482 10.125 2.41482 4.575 2.41482C4.575 8.04135 4.575 13.6679 4.575 19.2194C10.2 19.2194 15.75 19.2194 21.3 19.2194C21.3 13.5929 21.3 8.04135 21.3 2.41482ZM62.925 19.2944C54 19.2944 45.15 19.2944 36.225 19.2944C37.425 20.8698 38.475 22.2952 39.6 23.7206C40.275 24.5459 41.2501 24.8459 42.3001 24.8459C47.175 24.8459 51.975 24.8459 56.85 24.8459C58.05 24.8459 59.0251 24.3958 59.775 23.4955C60.9 22.1452 61.875 20.7198 62.925 19.2944ZM35.4 37.5994C44.7 37.5994 54.075 37.5994 63.375 37.5994C63.15 36.7742 63.0001 35.949 62.775 35.1988C62.625 34.6737 62.325 34.4485 61.725 34.4485C53.55 34.4485 45.3001 34.4485 37.125 34.4485C36.45 34.4485 36.075 34.7487 35.925 35.4238C35.775 36.099 35.55 36.8492 35.4 37.5994ZM12.525 21.6951C12.525 27.0215 12.525 32.273 12.525 37.6745C12.8251 37.6745 12.975 37.6745 13.2 37.6745C13.275 37.5244 13.275 37.5244 13.275 37.4494C13.275 32.348 13.275 27.3216 13.275 22.2202C13.3501 21.6201 13.05 21.5451 12.525 21.6951ZM30.675 15.9936C29.925 15.9936 29.25 15.9936 28.5751 15.9936C28.5751 16.4437 28.5751 16.7437 28.5751 17.1188C29.325 17.1188 30 17.1188 30.675 17.1188C30.675 16.7437 30.675 16.4437 30.675 15.9936ZM70.05 17.1938C70.05 16.7437 70.05 16.3686 70.05 15.9936C69.3 15.9936 68.7001 15.9936 67.95 15.9936C67.95 16.3686 67.95 16.7437 67.95 17.1938C68.7001 17.1938 69.375 17.1938 70.05 17.1938Z" fill="#383838"/>
<path d="M32.7025 29.4968C30.8274 29.4968 29.3274 27.9964 29.2524 26.1209C29.2524 24.2453 30.8274 22.6699 32.7025 22.6699C34.5774 22.6699 36.1525 24.2453 36.1525 26.1209C36.1525 27.9214 34.5774 29.4218 32.7025 29.4968ZM33.7525 26.1209C33.7525 25.5207 33.3024 25.0706 32.7774 25.0706C32.1775 25.0706 31.8024 25.4457 31.8024 26.0459C31.8024 26.646 32.2525 27.0962 32.8524 27.0962C33.3774 27.0212 33.6775 26.646 33.7525 26.1209Z" fill="#383838"/>
<path d="M66.0041 29.4961C64.1292 29.4961 62.6292 27.9956 62.5542 26.1951C62.5542 24.3196 64.0542 22.7441 65.9291 22.7441C67.8042 22.7441 69.3042 24.2446 69.3791 26.0451C69.4541 27.9206 67.9541 29.4209 66.0041 29.4961ZM66.9791 26.0451C66.9041 25.445 66.6042 25.0698 66.0041 25.0698C65.4041 25.0698 65.0291 25.445 64.9541 26.0451C64.8791 26.5702 65.4041 27.0954 66.0041 27.0954C66.6042 27.0204 66.9041 26.6452 66.9791 26.0451Z" fill="#383838"/>
<path d="M9.37724 4.06462C11.1772 4.06462 12.9022 3.91458 14.6273 4.13964C16.8772 4.43973 18.2273 6.31523 18.2273 8.56585C18.2273 11.8667 16.5022 13.6673 13.2023 13.6673C12.7523 13.6673 12.3022 13.6673 11.7023 13.6673C11.7023 15.0176 11.7023 16.293 11.7023 17.5683C10.8772 17.5683 10.1272 17.5683 9.30225 17.5683C9.37724 13.067 9.37724 8.56585 9.37724 4.06462ZM11.7772 6.39025C11.7772 8.04071 11.7772 9.54111 11.7772 11.1166C12.6023 11.1166 13.3522 11.1916 14.1023 11.1166C15.4522 10.8915 15.9772 9.99123 15.8273 8.26576C15.7523 7.2905 14.9272 6.46528 13.8022 6.39025C13.1273 6.39025 12.5272 6.39025 11.7772 6.39025Z" fill="#383838"/>
</svg>
