<svg width="65" height="54" viewBox="0 0 65 54" fill="none" xmlns="http://www.w3.org/2000/svg">
<path fill-rule="evenodd" clip-rule="evenodd" d="M61.4164 37.1893C61.9749 36.9398 62.5335 36.6903 63.0921 36.4408C63.4871 36.2481 63.8425 35.9986 64.1416 35.6697C64.7566 34.9893 65.0669 34.0651 64.9879 33.1523C64.9597 32.8518 64.8976 32.5569 64.7904 32.2734C64.6381 31.8595 64.4011 31.491 64.1021 31.1678C54.2902 20.9959 44.2922 11.0054 34.1983 1.11698C34.0008 0.929871 33.7864 0.759774 33.5551 0.612355C33.1376 0.351537 32.6749 0.170096 32.1897 0.0737069C31.9696 0.0340171 31.744 0.0113399 31.5183 0C31.4223 0 31.4223 0 31.3264 0C31.1007 0.0113399 30.8751 0.0340171 30.655 0.0737069C30.1698 0.170096 29.7071 0.351537 29.2896 0.612355C29.0583 0.759774 28.8495 0.929871 28.6464 1.11698C26.1976 3.51537 23.7828 5.94212 21.3961 8.40288C21.0745 8.75442 20.8093 9.13998 20.6175 9.57657C20.1661 10.6312 20.1774 11.8559 20.657 12.8992C20.6739 12.9332 20.6965 12.9672 20.7134 13.0069L19.9743 13.7497C19.8163 13.9141 19.664 14.0785 19.5229 14.2486C19.1731 14.6852 18.8684 15.1615 18.6314 15.6661C18.2478 16.4826 18.0277 17.3671 17.9826 18.263C17.9262 19.4423 18.1744 20.633 18.7048 21.6933C18.9305 22.1412 19.207 22.5665 19.5229 22.9577C19.664 23.1334 19.8163 23.2979 19.9743 23.4566L21.5203 25.0102C21.3905 25.6566 21.3453 26.3143 21.3736 26.972C21.3905 27.2442 21.4131 27.5163 21.4525 27.7828L14.5916 34.4564C14.4111 34.4677 14.2362 34.4847 14.0612 34.5131C13.9992 34.5187 13.9428 34.5301 13.8807 34.5414L6.81664 30.5214C6.80535 29.24 6.79971 27.9643 6.79971 26.6828C6.79971 26.4731 6.77714 26.2633 6.72636 26.0535C6.57402 25.4354 6.21292 24.8798 5.70512 24.5056C5.50201 24.3525 5.28196 24.2391 5.04498 24.1427C3.9786 23.7628 2.8953 23.4226 1.82328 23.0597C1.71607 23.0314 1.62016 23.0087 1.51296 22.9974C1.40576 22.9917 1.40575 22.9917 1.29855 22.9917C1.20828 23.003 1.18007 23.003 1.08979 23.02C0.88103 23.0654 0.683548 23.1618 0.519924 23.2922C0.130611 23.6097 -0.0668628 24.1257 0.0234127 24.6246C0.0459816 24.7664 0.0911203 24.9025 0.158827 25.0272C0.226533 25.152 0.311165 25.271 0.407083 25.3674C0.565065 25.5205 0.745614 25.6226 0.948734 25.7019L4.03503 26.7339V42.4794L0.948734 43.5113C0.745614 43.5907 0.565065 43.6927 0.407083 43.8458C0.282954 43.9706 0.181394 44.118 0.113687 44.2824C0.0572648 44.4128 0.0234112 44.5546 0.0064846 44.6963C-0.0499376 45.2746 0.266026 45.8416 0.790752 46.0911C1.0108 46.1989 1.2647 46.2442 1.51296 46.2159C1.62016 46.2102 1.72172 46.1818 1.82328 46.1535L4.95471 45.1045C5.15783 45.0308 5.34966 44.9458 5.52457 44.8324C6.06058 44.4922 6.47246 43.9706 6.66994 43.3639C6.74329 43.1257 6.78278 42.8763 6.79971 42.6268C6.811 42.1165 6.81664 41.6119 6.82228 41.1072L10.9129 43.4262C10.9975 43.5283 11.0878 43.619 11.1837 43.7097C11.652 44.1577 12.1993 44.5205 12.7917 44.77C13.4462 45.0535 14.1572 45.1953 14.8737 45.1953C15.5846 45.1953 16.2956 45.0535 16.9557 44.77C17.5481 44.5205 18.0954 44.1577 18.5637 43.7097C18.9418 43.3469 19.269 42.9273 19.5229 42.468L27.7098 34.5074C28.3417 34.6491 28.9849 34.7115 29.6338 34.6945C30.0908 34.6832 30.5534 34.6321 31.0048 34.5414L47.954 51.5796C48.1515 51.7668 48.3603 51.9255 48.6029 52.0559C49.3025 52.4245 50.1545 52.4642 50.888 52.1636C51.0911 52.0843 51.283 51.9709 51.4579 51.8461C51.9149 52.2997 52.3832 52.7533 52.8402 53.2126C53.032 53.3997 53.2464 53.5641 53.4834 53.6889C54.183 54.0574 55.035 54.1028 55.7685 53.8023C56.0676 53.6832 56.3271 53.5074 56.5697 53.2976C58.9282 51.0467 61.1738 48.6766 63.4758 46.3633C63.662 46.1648 63.82 45.955 63.9497 45.7112C64.3165 45.0082 64.356 44.1577 64.0569 43.4149C63.9384 43.1201 63.7635 42.8592 63.5604 42.6154C63.0865 42.1108 62.5956 41.6289 62.1104 41.1413C62.2119 40.9995 62.3022 40.8521 62.3812 40.6877C62.7141 39.9619 62.7141 39.1114 62.3812 38.3856C62.2458 38.1021 62.0652 37.847 61.8452 37.6202L61.4164 37.1893ZM60.1751 43.1484L61.4672 44.4412L54.7473 51.1998L53.4778 49.924C55.7403 47.6957 57.9521 45.4107 60.1751 43.1484ZM36.9122 29.6482C40.4048 33.1523 43.8521 36.5996 46.4927 39.2078C46.8764 39.565 47.2883 39.8825 47.734 40.149C47.7509 40.1547 47.7622 40.166 47.7735 40.1717C47.8243 40.2 47.875 40.2284 47.9258 40.2567C47.9484 40.2681 47.971 40.2794 47.9879 40.2907C48.4562 40.5402 48.9584 40.7273 49.4662 40.8577H49.4718H49.4887L49.4944 40.8634H49.5H49.5113L49.5169 40.8691H49.5226H49.5339L49.5508 40.8748C50.2617 41.0449 51.0008 41.0902 51.7343 41.0165C51.7682 41.0108 51.802 41.0052 51.8415 41.0052C51.8867 40.9995 51.9262 40.9938 51.9713 40.9825C52.4622 40.9145 52.9418 40.784 53.4044 40.6139L53.4101 40.6083H53.4157L53.427 40.6026H53.4326C53.4608 40.5913 53.4891 40.5799 53.5229 40.5629L53.6301 40.5176H53.6358C55.3228 39.8088 57.0042 39.1001 58.6855 38.3743L59.8422 39.5366L59.1933 40.1887C56.2255 43.0123 53.4157 45.9947 50.5269 48.9034L49.8668 49.5611L33.7977 33.4131C33.8259 33.3961 33.8485 33.3791 33.8767 33.3621C33.9275 33.328 33.9839 33.2883 34.0403 33.2543C34.0573 33.2373 34.0798 33.226 34.1024 33.209C34.1193 33.1976 34.1362 33.1806 34.1532 33.1693C34.2265 33.1183 34.2942 33.0672 34.3563 33.0162C34.3732 33.0105 34.3845 32.9992 34.3958 32.9878L34.424 32.9652C34.6215 32.8064 34.8133 32.642 34.9995 32.4662C35.3324 32.1487 35.6371 31.8028 35.9079 31.4343C36.0264 31.2755 36.1392 31.1168 36.2464 30.9467C36.2916 30.8786 36.3367 30.8049 36.3819 30.7312C36.5285 30.476 36.6696 30.2152 36.7881 29.9431C36.8332 29.8467 36.8727 29.7503 36.9122 29.6482ZM13.9935 37.3877C14.2136 37.3084 14.4393 37.2573 14.6706 37.2403C14.7609 37.2346 14.8512 37.229 14.9414 37.229C15.1502 37.2403 15.3533 37.2687 15.5564 37.3254C15.7539 37.3764 15.9457 37.4558 16.1263 37.5578L16.1432 37.5692C16.7469 37.915 17.1983 38.499 17.3732 39.1794V39.1851V39.1964L17.3789 39.2135V39.2191L17.3845 39.2418L17.3902 39.2532V39.2702L17.3958 39.2758V39.2928V39.2985C17.4466 39.5196 17.4579 39.7521 17.4466 39.9789C17.424 40.3361 17.3281 40.6763 17.1701 40.9938C17.046 41.2376 16.888 41.4588 16.6962 41.6515C16.4761 41.8727 16.2166 42.0541 15.9345 42.1845C15.6185 42.3263 15.28 42.4056 14.9414 42.4113C14.5973 42.4227 14.2474 42.3603 13.9258 42.2355C13.6381 42.1165 13.3729 41.9521 13.1416 41.7366C13.0344 41.6459 12.9384 41.5381 12.8538 41.4304C12.82 41.3851 12.7805 41.3397 12.7523 41.2887L12.741 41.2773C12.5943 41.0562 12.4758 40.8124 12.3968 40.5572V40.5459L12.3911 40.5346C12.3742 40.4665 12.3573 40.3985 12.346 40.3304L12.3404 40.3078L12.3347 40.2964V40.2907C12.2501 39.8145 12.3009 39.3269 12.4701 38.8789C12.6563 38.414 12.9723 38.0058 13.3785 37.7109C13.5704 37.5748 13.7735 37.4671 13.9935 37.3877ZM9.53619 39.4516L6.91256 37.9604V33.7703C8.27797 34.5527 9.64339 35.3295 11.0145 36.1063C10.9298 36.1914 10.8508 36.2821 10.7775 36.3671C10.7098 36.4522 10.6477 36.5316 10.5856 36.6166C10.5631 36.6393 10.5461 36.662 10.5292 36.6903C10.3487 36.9398 10.1907 37.212 10.0553 37.4898C9.82394 37.9717 9.66596 38.482 9.58697 39.0037C9.5644 39.1511 9.54747 39.3042 9.53619 39.4516ZM31.0161 19.7145L23.3596 12.0146C23.3596 12.0146 23.2073 11.8162 23.1565 11.6971C23.0211 11.3796 23.0211 11.0054 23.1565 10.6879C23.2129 10.5631 23.2863 10.4497 23.3765 10.342C25.6898 7.83588 28.0483 5.34677 30.6042 3.08446C30.7961 2.9257 31.0217 2.82364 31.27 2.78962C31.3321 2.78395 31.3941 2.78395 31.4562 2.78395C31.7552 2.79529 32.0373 2.90869 32.2687 3.10714C42.5714 12.7007 52.1349 23.0711 62.0709 33.0559C62.0878 33.0729 62.1047 33.0899 62.1216 33.1126C62.1611 33.1693 62.195 33.2316 62.2119 33.2997C62.2796 33.5492 62.1555 33.81 61.9242 33.9177C60.8747 34.394 59.8253 34.8646 58.7702 35.3295C58.7532 35.3295 58.7363 35.3352 58.7194 35.3352C58.5896 35.3636 58.5558 35.3806 58.4316 35.4259C56.4625 36.2707 54.5159 37.1779 52.5186 37.9717L52.4114 38.0171L52.3719 38.0284L52.3437 38.0398C52.0559 38.1418 51.7569 38.2155 51.4522 38.2496C50.6792 38.3289 49.895 38.1702 49.2179 37.796C48.9414 37.6429 48.5013 37.2687 48.3885 37.1723L37.0194 25.7473C35.0729 23.6778 33.0247 21.7103 31.0161 19.7145ZM17.7569 35.2955L17.7343 35.2842L17.7287 35.2785L22.4625 30.6745C22.4682 30.6802 22.4681 30.6858 22.4738 30.6915C22.7051 31.0827 22.9647 31.457 23.2581 31.8085C23.4442 32.024 23.6361 32.2337 23.8392 32.4265C24.1721 32.7497 24.5276 33.0445 24.9112 33.3054L24.9169 33.311H24.9225L24.9451 33.328L19.963 38.1702C19.9461 38.1305 19.9348 38.0851 19.9179 38.0454C19.9066 38.0058 19.8953 37.9717 19.8784 37.9377V37.9321L19.8727 37.9264C19.822 37.779 19.7599 37.6315 19.6922 37.4898C19.6358 37.3764 19.5737 37.263 19.5116 37.1496C19.4891 37.1099 19.4665 37.0702 19.4439 37.0305C19.1449 36.5429 18.7669 36.095 18.3324 35.7264C18.2591 35.6641 18.1857 35.6074 18.1124 35.5507C17.9995 35.4599 17.881 35.3749 17.7569 35.2955ZM28.6407 21.3134C30.497 23.1845 32.5621 25.2767 34.6779 27.4029C34.6666 27.4766 34.6553 27.5503 34.6441 27.6184C34.5425 28.106 34.3845 28.5766 34.1588 29.0189C33.7357 29.8467 33.0924 30.5611 32.3082 31.0714C32.1445 31.1735 31.9809 31.2698 31.806 31.3606C31.5521 31.4796 31.2926 31.5874 31.0274 31.6724C30.9597 31.6951 30.892 31.7121 30.8299 31.7291C30.2544 31.8879 29.6507 31.9446 29.0583 31.8992C28.6012 31.8709 28.1555 31.7801 27.7267 31.6327C27.6251 31.593 27.5179 31.559 27.4164 31.5137L27.3938 31.508L27.3769 31.4966C27.2358 31.4399 27.0948 31.3719 26.965 31.2982C25.955 30.7652 25.1313 29.9034 24.646 28.8714C24.4993 28.5653 24.3865 28.2421 24.3019 27.9189C24.2229 27.607 24.1721 27.2895 24.1495 26.972C24.0988 26.2859 24.1834 25.5942 24.3921 24.9365C24.426 24.8344 24.4599 24.7324 24.4993 24.6303L24.505 24.619C24.5953 24.4035 24.6968 24.1881 24.8097 23.9783C25.0579 23.536 25.3682 23.1278 25.7293 22.7762L25.7406 22.7649L25.7519 22.7479C26.0002 22.5154 26.2654 22.3 26.5475 22.1129H26.5531L26.57 22.0958C26.807 21.9484 27.0553 21.8123 27.3092 21.6989C27.7267 21.5175 28.1611 21.3984 28.6069 21.3191L28.6407 21.3134ZM22.5189 15.1218C23.4048 16.0233 24.7645 17.3954 26.4121 19.0624C26.2654 19.1248 26.2597 19.1248 26.0961 19.1985C25.9268 19.2779 25.9268 19.2779 25.7576 19.3629C25.7406 19.3743 25.7237 19.3799 25.7068 19.3913C25.3513 19.5727 25.0128 19.7882 24.6912 20.0263L24.6573 20.049C24.646 20.0547 24.6348 20.066 24.6178 20.0773L24.5501 20.1227L24.5163 20.151C23.8787 20.6443 23.3145 21.234 22.8518 21.8974C22.8236 21.9314 22.801 21.9654 22.7785 21.9994L22.7051 22.1015L22.6431 22.2036C22.3835 21.9428 22.124 21.6876 21.8644 21.4211C21.571 21.1036 21.3228 20.7464 21.1366 20.3495C20.6175 19.2552 20.6175 17.9568 21.1366 16.8568C21.3341 16.4259 21.6105 16.046 21.9434 15.7058L22.5189 15.1218ZM31.4054 6.85498C31.1967 6.86632 30.9879 6.91735 30.7961 7.01941C30.6663 7.08745 30.5478 7.17817 30.4462 7.28023C30.0908 7.65445 29.9667 8.20444 30.1303 8.69205C30.198 8.87916 30.2995 9.04926 30.4293 9.19668C31.8737 10.6992 33.3463 12.1734 34.8415 13.6249C35.0108 13.778 35.2083 13.8971 35.434 13.9538C35.575 13.9935 35.7217 14.0048 35.8684 13.9991C36.3819 13.9651 36.8445 13.6419 37.0476 13.1713C37.1153 13.0182 37.1548 12.8595 37.1661 12.695C37.1774 12.5136 37.1492 12.3322 37.0928 12.1621C37.0307 11.975 36.9291 11.8049 36.7937 11.6631C35.355 10.1606 33.8824 8.68071 32.3872 7.2292C32.1671 7.03075 31.9019 6.90601 31.6029 6.86632C31.5352 6.86065 31.4731 6.85498 31.4054 6.85498Z" fill="#383838"/>
</svg>
