<svg width="57" height="57" viewBox="0 0 57 57" fill="none" xmlns="http://www.w3.org/2000/svg">
<path d="M53.7638 47.0259C51.6489 46.0893 49.3975 45.4976 47.0955 45.273C45.8065 45.1184 44.612 45.0754 43.7398 45.0453C43.2587 45.0453 42.8419 45.0153 42.6572 44.9938C41.8283 44.5941 41.0274 44.1391 40.2596 43.6319C39.5541 43.1693 38.8224 42.7476 38.0684 42.3689C36.0179 41.6109 33.8692 41.1508 31.6881 41.0028C31.5751 40.9949 31.4619 41.0093 31.3545 41.0452C31.2473 41.0811 31.1482 41.1378 31.0627 41.2119C30.9774 41.2862 30.9075 41.3764 30.857 41.4776C30.8065 41.5788 30.7765 41.6891 30.7686 41.8018C30.7607 41.9146 30.7751 42.0279 30.811 42.1352C30.8468 42.2425 30.9035 42.3416 30.9778 42.4269C31.0519 42.5124 31.1423 42.5823 31.2434 42.6328C31.3447 42.6833 31.4549 42.7133 31.5678 42.7212C33.5576 42.8632 35.5181 43.2796 37.3938 43.9584C37.7634 44.1174 38.5754 44.6157 39.3617 45.1012C41.0803 46.1623 41.888 46.6306 42.4122 46.6993C42.7087 46.738 43.1383 46.7509 43.7011 46.7723C44.5605 46.8024 45.6948 46.8453 46.915 46.9871C49.0353 47.1906 51.1094 47.7315 53.059 48.5895C54.0859 49.0707 54.3051 49.6549 54.3094 49.7666C54.1675 51.0211 54.0816 51.541 54.0473 51.6526C53.9659 51.8304 53.8439 51.9865 53.6907 52.1082C53.5378 52.23 53.3581 52.3138 53.1664 52.3529C52.8091 52.4281 52.4475 52.4825 52.0838 52.5161C52.1657 51.9417 52.1219 51.3563 51.9554 50.8004C51.789 50.2446 51.5038 49.7316 51.1195 49.2967C50.7355 48.8619 50.2614 48.5155 49.7303 48.2818C49.1992 48.0481 48.6236 47.9324 48.0434 47.9428C47.4633 47.9532 46.8921 48.0894 46.3697 48.3419C45.8473 48.5946 45.3861 48.9576 45.0176 49.406C44.6493 49.8543 44.3827 50.3773 44.2363 50.9387C44.0898 51.5002 44.0671 52.0869 44.1695 52.6579L41.9009 52.5506C40.2467 52.486 38.6828 52.4259 37.8493 52.4259C35.8771 52.4259 26.8415 52.5118 25.9134 52.572C25.6385 52.572 25.1916 52.6064 24.5901 52.6193C24.6902 52.0451 24.6637 51.456 24.5128 50.8933C24.3619 50.3303 24.0899 49.8072 23.7161 49.3601C23.3422 48.913 22.8753 48.5529 22.348 48.3048C21.8207 48.0565 21.2455 47.9264 20.6627 47.9232C20.0799 47.9201 19.5033 48.0439 18.9733 48.2864C18.4433 48.5288 17.9726 48.8839 17.5939 49.3269C17.2152 49.7698 16.9375 50.29 16.7805 50.8512C16.6234 51.4124 16.5907 52.0011 16.6845 52.5763C16.2871 52.5414 15.8925 52.4812 15.503 52.3958C15.3957 52.3602 15.2825 52.3461 15.1699 52.3542C15.0572 52.3623 14.9472 52.3926 14.8463 52.4433C14.7453 52.4939 14.6553 52.564 14.5815 52.6495C14.5077 52.735 14.4514 52.8342 14.416 52.9414C14.3438 53.1574 14.3601 53.3931 14.4617 53.5969C14.5632 53.8007 14.7414 53.9558 14.9573 54.0283C15.9368 54.3549 15.692 54.2346 17.4407 54.3763C17.812 54.8758 18.2952 55.2815 18.8514 55.5609C19.4074 55.8404 20.0213 55.986 20.6437 55.986C21.2661 55.986 21.88 55.8404 22.4362 55.5609C22.9924 55.2815 23.4754 54.8758 23.8469 54.3763C24.8953 54.3763 25.6041 54.3377 26.0167 54.3119C26.8458 54.2604 35.6452 54.17 37.8407 54.17C38.6441 54.17 40.1909 54.2303 41.8279 54.2947C42.8548 54.3334 43.9246 54.3763 44.8914 54.4064C45.2709 54.911 45.7648 55.3185 46.3323 55.5954C46.8997 55.8722 47.5248 56.0108 48.1562 55.9994C48.7877 55.988 49.4073 55.8273 49.9646 55.5303C50.5218 55.2331 51.0007 54.8083 51.3619 54.2904C52.0751 54.2654 52.785 54.182 53.4844 54.0412C53.986 53.9428 54.4527 53.7139 54.8375 53.3775C55.2222 53.041 55.5113 52.609 55.6757 52.1252C55.8325 51.4178 55.9373 50.6999 55.9894 49.9772C56.0925 49.0578 55.4394 47.8249 53.7638 47.0259ZM20.6373 54.269C20.1839 54.2706 19.7404 54.1378 19.3627 53.8873C18.985 53.6366 18.6901 53.2796 18.5155 52.8613C18.3408 52.443 18.2942 51.9824 18.3817 51.5376C18.4689 51.0929 18.6865 50.6842 19.0063 50.363C19.3262 50.042 19.7343 49.823 20.1788 49.734C20.6232 49.645 21.0842 49.6897 21.5031 49.8629C21.9221 50.0359 22.2801 50.3294 22.5322 50.7061C22.7842 51.0828 22.9188 51.5259 22.9188 51.9791C22.9188 52.5849 22.6786 53.166 22.251 53.5952C21.8234 54.0244 21.2431 54.2666 20.6373 54.269ZM48.0879 54.269C47.6351 54.269 47.1922 54.1346 46.8156 53.883C46.439 53.6314 46.1455 53.2738 45.9722 52.8554C45.7988 52.4369 45.7535 51.9766 45.8419 51.5324C45.9302 51.0882 46.1483 50.6802 46.4687 50.36C46.7889 50.0398 47.1969 49.8217 47.6412 49.7334C48.0854 49.645 48.5459 49.6903 48.9643 49.8636C49.3828 50.0369 49.7404 50.3305 49.9921 50.7069C50.2437 51.0835 50.378 51.5263 50.378 51.9791C50.378 52.5864 50.1367 53.1689 49.7073 53.5983C49.2778 54.0276 48.6954 54.269 48.0879 54.269Z" fill="#383838" stroke="#383838" stroke-width="0.5"/>
<path d="M53.558 3.94469C40.0324 -1.93233 23.7785 1.16945 12.8524 11.626L8.89098 7.78104C8.81006 7.70235 8.71431 7.64042 8.60942 7.59858C8.50452 7.55688 8.39243 7.53623 8.2795 7.53789C8.16657 7.53942 8.05502 7.56325 7.95138 7.60786C7.84773 7.65261 7.75379 7.71731 7.67508 7.79822C7.59638 7.87914 7.53444 7.97487 7.49259 8.07975C7.45088 8.18463 7.43024 8.29671 7.4319 8.40963C7.43342 8.52255 7.45726 8.63408 7.50188 8.73771C7.54663 8.84148 7.61134 8.93528 7.69226 9.01397L11.6365 12.8417C1.00684 23.947 -2.00083 40.375 4.18203 54.0105C4.25062 54.1611 4.36147 54.2887 4.50086 54.3779C4.6404 54.467 4.80265 54.514 4.96824 54.5131C5.11082 54.513 5.25105 54.4772 5.37645 54.4094C5.50185 54.3413 5.60826 54.2434 5.68627 54.1241C5.76429 54.0047 5.8114 53.8678 5.82331 53.7258C5.83523 53.5838 5.81154 53.4409 5.75445 53.3103L5.71149 53.2244C5.63556 53.0207 5.60508 52.8029 5.62212 52.5862C5.63916 52.3695 5.70345 52.1592 5.81043 51.97C6.23997 51.158 7.21533 50.4921 8.4527 50.1827C10.0038 49.7962 11.6623 50.0839 12.5947 50.8229C12.7794 51.042 12.9642 51.2524 13.1618 51.4458L13.1919 51.4673L13.2821 51.5446L13.3336 51.5747L13.4238 51.6219L13.4839 51.6434L13.5743 51.6692H13.6387H13.7289H13.7934H13.8836H13.9523L14.0339 51.6434L14.1071 51.6176L14.1672 51.5833L14.2273 51.5489C14.2639 51.523 14.2983 51.4943 14.3304 51.463C14.3687 51.4248 14.4032 51.3831 14.4335 51.3385L14.4593 51.2911C14.4769 51.262 14.4927 51.2319 14.5065 51.2009C14.5065 51.2009 14.5066 51.158 14.528 51.1365C14.5381 51.1084 14.5467 51.0797 14.5538 51.0506C14.5538 51.0291 14.5538 51.0076 14.5538 50.9819C14.5555 50.9518 14.5555 50.9217 14.5538 50.8917C14.5538 50.8702 14.5538 50.8444 14.5538 50.8229C14.5555 50.7929 14.5555 50.7627 14.5538 50.7326C14.5538 50.7068 14.5538 50.6854 14.5538 50.6596C14.5538 50.6338 14.5538 50.6295 14.5538 50.6166C14.2832 49.7103 15.8772 47.3731 19.4648 45.5259C23.3317 43.5325 26.5284 43.5756 27.117 44.4819C27.2274 44.6486 27.3926 44.7716 27.5839 44.8296C27.7753 44.8876 27.9809 44.8771 28.1653 44.7999H28.1997L28.2684 44.7612L28.35 44.714L28.393 44.6753L28.4617 44.6194L28.5091 44.5592C28.5307 44.5333 28.5508 44.506 28.5693 44.4776L28.6036 44.4175C28.62 44.3855 28.6342 44.3525 28.6466 44.3187C28.6466 44.2973 28.6466 44.2758 28.6466 44.2543C28.6559 44.2204 28.6629 44.186 28.6681 44.1512C28.6681 44.1512 28.6681 44.1297 28.6681 44.1169C28.6681 44.1038 28.6681 44.091 28.6681 44.0781C28.6701 44.0438 28.6701 44.0094 28.6681 43.975C28.6681 43.9492 28.6681 43.9277 28.6681 43.902C28.6629 43.8672 28.6559 43.8328 28.6466 43.7989C28.6466 43.7774 28.6466 43.7559 28.6466 43.7345C28.6329 43.7005 28.6171 43.6676 28.5993 43.6357L28.6595 43.5282C28.6385 43.4967 28.6155 43.4665 28.5907 43.438L28.5564 43.3907C27.9592 42.7678 29.4628 39.0947 33.6091 34.7472L42.722 43.3822C42.8018 43.462 42.8966 43.5253 43.0009 43.5685C43.1053 43.6117 43.2171 43.634 43.33 43.634C43.443 43.634 43.5546 43.6117 43.659 43.5685C43.7633 43.5253 43.8581 43.462 43.9379 43.3822C44.0179 43.3023 44.0812 43.2076 44.1243 43.1033C44.1675 42.9989 44.1898 42.8871 44.1898 42.7744C44.1898 42.6614 44.1675 42.5496 44.1243 42.4453C44.0812 42.341 44.0179 42.2462 43.9379 42.1664L34.8207 33.5399C39.1388 29.4244 42.8079 27.9293 43.4137 28.5222L43.4481 28.548C43.5384 28.6251 43.6437 28.6826 43.7574 28.717C43.871 28.7513 43.9906 28.7619 44.1083 28.7477C44.2263 28.7336 44.3399 28.6951 44.4423 28.635C44.5445 28.5747 44.6332 28.4939 44.7028 28.3976V28.3762C44.7681 28.2821 44.8141 28.176 44.8377 28.0639C44.8614 27.9519 44.8626 27.8362 44.8409 27.7237C44.8193 27.6112 44.7754 27.5043 44.7119 27.409C44.6483 27.3138 44.5663 27.2322 44.4707 27.169C43.5685 26.5762 43.5298 23.3799 45.5191 19.522C47.0358 16.5793 48.8747 14.9425 50.0218 14.6289C50.2333 14.5549 50.4636 14.5549 50.675 14.6289L50.7309 14.6589L50.7996 14.7148C50.9089 14.7912 51.0346 14.8411 51.1667 14.8604C51.2986 14.8798 51.4334 14.8683 51.56 14.8266C51.6888 14.7869 51.8063 14.7178 51.9032 14.6246C52.0002 14.5313 52.0741 14.4165 52.1186 14.2896V14.2466C52.1948 14.0482 52.1948 13.8287 52.1187 13.6303C52.0425 13.4319 51.8955 13.2689 51.7061 13.1726C51.3775 12.865 51.0303 12.5781 50.6664 12.3133C49.997 11.1182 49.8256 9.7074 50.1895 8.38677C50.619 6.56959 51.8823 5.34096 53.0166 5.58577C53.2253 5.63135 53.4435 5.59769 53.6286 5.49115C53.8138 5.3846 53.9526 5.21294 54.0182 5.0097C54.0836 4.80631 54.0709 4.58588 53.9827 4.3915C53.8944 4.19698 53.7369 4.04222 53.5408 3.95757L53.558 3.94469ZM8.04463 48.5159C6.71289 48.8025 5.51861 49.5345 4.65896 50.5909C1.02832 40.2805 2.59229 28.6555 8.65043 19.3588C7.77332 22.8821 7.34876 26.5027 7.38715 30.1332C7.38715 35.8943 8.3625 43.4208 10.9834 48.3741C10.0041 48.2277 9.00529 48.2759 8.04463 48.5159ZM18.743 43.9965C16.0233 45.397 14.064 47.1842 13.2649 48.8467C10.7256 45.0533 9.0973 37.8918 9.10589 30.1375C9.10589 23.5345 10.296 18.0313 12.3239 14.8695C12.5216 15.5311 12.8008 16.3773 13.1833 17.447C14.1371 20.0848 15.5249 23.4615 16.9943 26.748C18.5325 30.1633 22.017 37.5826 25.3253 42.1793C23.3489 42.1707 20.8698 42.901 18.743 43.9965ZM26.9752 41.5392C21.6303 34.425 14.8374 17.7822 13.7977 13.774C17.8235 14.8309 34.4769 21.6486 41.5663 26.9457C39.0357 27.706 35.723 30.189 32.9732 32.96C30.2234 35.7309 27.7357 39.0088 26.9752 41.5392ZM44.0369 18.7188C42.9412 20.8453 42.2107 23.3112 42.2193 25.3003C37.622 21.9966 30.1891 18.5125 26.7861 16.9875C23.5208 15.5268 20.1264 14.1348 17.4841 13.1769C16.3971 12.7816 15.5549 12.5023 14.9062 12.3176C22.2103 7.71662 41.2268 8.24503 48.9778 13.2112C47.2634 13.9888 45.4246 16.0337 44.0369 18.7188ZM48.5353 7.97861C48.2941 8.94345 48.2459 9.94653 48.3934 10.9301C43.8864 8.6446 37.433 7.61354 32.0924 7.4416C28.0365 7.29987 23.3532 7.61783 19.366 8.66178C25.2784 4.79952 32.1838 2.73434 39.2461 2.71605C43.1071 2.70954 46.9417 3.35295 50.589 4.61913C49.5532 5.47327 48.8307 6.64759 48.5353 7.95714V7.97861Z" fill="#383838" stroke="#383838" stroke-width="0.5"/>
</svg>
