<svg width="77" height="49" viewBox="0 0 77 49" fill="none" xmlns="http://www.w3.org/2000/svg">
<path d="M22.5133 25.2083H8.78614L8.03824 32.7576C7.99558 33.1823 8.06836 33.6105 8.24871 33.9962C8.42906 34.3819 8.71008 34.7103 9.06129 34.9456L9.25559 35.0761C11.1501 36.355 13.3754 37.0374 15.6516 37.0374C17.9278 37.0374 20.1531 36.355 22.0476 35.0761L22.2427 34.9448C22.5939 34.7094 22.8749 34.3811 23.0551 33.9955C23.2353 33.6097 23.3079 33.1814 23.2649 32.7569L22.5133 25.2083ZM21.3869 33.6422L21.1919 33.7735C19.5497 34.8821 17.6208 35.4737 15.6477 35.4737C13.6747 35.4737 11.7457 34.8821 10.1037 33.7735L9.90938 33.643C9.79278 33.5644 9.69961 33.455 9.63961 33.3267C9.57973 33.1983 9.55548 33.0559 9.56942 32.9146L10.1777 26.7711H21.1217L21.73 32.9155C21.7433 33.0567 21.7184 33.199 21.6579 33.3271C21.5975 33.4551 21.5038 33.564 21.3869 33.6422Z" fill="#383838" stroke="#383838" stroke-width="0.5"/>
<path d="M8.82849 15.8415H22.4701L23.1694 11.5882C23.2475 11.1109 23.1784 10.6208 22.9714 10.1848C22.7645 9.74883 22.4297 9.38828 22.013 9.15244L20.518 8.31084C19.0308 7.46737 17.3551 7.02441 15.6508 7.02441C13.9467 7.02441 12.2709 7.46737 10.7837 8.31084L9.28728 9.15244C8.87056 9.38828 8.53599 9.74872 8.32892 10.1845C8.12196 10.6203 8.05282 11.1102 8.13075 11.5873L8.82849 15.8415ZM10.0359 10.5183L11.5307 9.67674C12.7893 8.96314 14.2073 8.58841 15.6493 8.58841C17.0914 8.58841 18.5094 8.96314 19.7679 9.67674L21.2627 10.5183C21.4015 10.5973 21.5129 10.7177 21.5819 10.8631C21.6508 11.0085 21.674 11.1719 21.6483 11.3311L21.164 14.2786H10.1346L9.64962 11.3303C9.62337 11.1711 9.64646 11.0076 9.7156 10.8621C9.78474 10.7168 9.89666 10.5968 10.0359 10.5183Z" fill="#383838" stroke="#383838" stroke-width="0.5"/>
<path d="M9.35096 37.2876L8.06787 38.1545L11.1518 42.843L12.4348 41.9761L9.35096 37.2876Z" fill="#383838" stroke="#383838" stroke-width="0.5"/>
<path d="M21.9526 37.3022L18.8672 41.9905L20.15 42.8579L23.2356 38.1696L21.9526 37.3022Z" fill="#383838" stroke="#383838" stroke-width="0.5"/>
<path d="M29.9586 27.6949C29.854 27.6233 29.7339 27.5787 29.6085 27.5651C29.483 27.5515 29.3562 27.5693 29.2393 27.6169L26.0435 28.9124L25.6711 24.4348L26.7751 11.0724C26.9215 9.36303 26.5551 7.64865 25.7239 6.15393C24.8928 4.65921 23.6356 3.45377 22.1169 2.69539L21.5079 2.38829C19.6861 1.47507 17.681 1 15.6485 1C13.616 1 11.6109 1.47507 9.78911 2.38829L9.18078 2.69539C7.66168 3.4533 6.4039 4.6585 5.5721 6.15334C4.7403 7.64806 4.3735 9.36268 4.51952 11.0724L5.62589 24.4348L5.25581 28.9156L2.06009 27.6199C1.94325 27.5721 1.81658 27.5539 1.69119 27.5672C1.56591 27.5803 1.44556 27.6245 1.34103 27.6957C1.23638 27.767 1.1506 27.8633 1.09107 27.9759C1.03165 28.0885 1.00036 28.2142 1.00001 28.342V30.4096C0.998604 30.8786 1.13653 31.3371 1.39587 31.7255C1.65521 32.1137 2.024 32.4139 2.45408 32.5868L4.86955 33.5659L4.54647 37.4559C4.39834 39.2498 4.81272 41.0454 5.73054 42.5866C6.64847 44.1278 8.02285 45.3361 9.65809 46.039L12.3071 47.1854C13.3635 47.6403 14.4992 47.8747 15.647 47.8747C16.7946 47.8747 17.9305 47.6403 18.9868 47.1854L21.6359 46.039C23.2716 45.3366 24.6468 44.1285 25.5652 42.5873C26.4836 41.046 26.8984 39.2502 26.7505 37.4559L26.429 33.5659L28.8444 32.5868C29.2743 32.4136 29.6427 32.1133 29.9017 31.7251C30.1608 31.3368 30.2985 30.8784 30.297 30.4096V28.342C30.297 28.2143 30.2662 28.0887 30.2071 27.9758C30.1482 27.863 30.0627 27.7666 29.9586 27.6949ZM4.85491 31.8764L3.02689 31.1348C2.88345 31.0774 2.76052 30.9775 2.67392 30.8481C2.58744 30.7188 2.54138 30.566 2.54197 30.4096V29.4962L4.85491 30.4339V31.8764ZM21.0314 44.602L18.3824 45.7476C17.5178 46.12 16.588 46.312 15.6485 46.312C14.709 46.312 13.7792 46.12 12.9146 45.7476L10.2656 44.602C8.92918 44.027 7.80605 43.0393 7.05593 41.7794C6.30593 40.5195 5.96737 39.0519 6.08843 37.5855L7.16784 24.4348L6.05679 10.9387C5.93808 9.5419 6.23808 8.14118 6.91777 6.92004C7.59757 5.6989 8.62519 4.7143 9.86621 4.09494L10.4752 3.78783C12.0835 2.9814 13.8538 2.56177 15.6481 2.56177C17.4425 2.56177 19.2127 2.9814 20.8209 3.78783L21.4293 4.09494C22.6704 4.71418 23.6983 5.69878 24.3781 6.91992C25.058 8.14107 25.3581 9.54178 25.2394 10.9387L24.1292 24.4348L25.2148 37.5895C25.3346 39.0558 24.9946 40.5231 24.2434 41.7824C23.4924 43.0415 22.3683 44.0282 21.0314 44.602ZM28.755 30.4096C28.7556 30.566 28.7096 30.7188 28.6231 30.8481C28.5365 30.9775 28.4135 31.0774 28.2701 31.1348L26.4421 31.8764V30.4339L28.755 29.4962V30.4096Z" fill="#383838" stroke="#383838" stroke-width="0.5"/>
<path d="M68.2158 25.2085H54.4883L53.7404 32.7578C53.6977 33.1825 53.7705 33.6108 53.9509 33.9964C54.1312 34.3822 54.4122 34.7105 54.7634 34.9459L54.9577 35.0763C56.8522 36.3553 59.0776 37.0377 61.3537 37.0377C63.63 37.0377 65.8553 36.3553 67.7497 35.0763L67.9451 34.945C68.2955 34.7097 68.5767 34.3814 68.7572 33.9957C68.9377 33.61 69.0103 33.1817 68.967 32.7571L68.2158 25.2085ZM67.089 33.6424L66.894 33.7737C65.2519 34.8823 63.323 35.4739 61.3499 35.4739C59.3769 35.4739 57.4479 34.8823 55.8058 33.7737L55.6115 33.6433C55.4949 33.5646 55.4018 33.4553 55.3418 33.3269C55.2819 33.1986 55.2576 33.0561 55.2716 32.9149L55.8799 26.7713H66.8238L67.4322 32.9157C67.4454 33.057 67.4206 33.1993 67.3601 33.3274C67.2996 33.4554 67.206 33.5643 67.089 33.6424Z" fill="#383838" stroke="#383838" stroke-width="0.5"/>
<path d="M54.5306 15.8423H68.1718L68.8714 11.5889C68.9499 11.1116 68.8808 10.6215 68.6734 10.1855C68.4671 9.74956 68.1319 9.38901 67.7151 9.15318L66.2201 8.31158C64.7329 7.4681 63.0572 7.02515 61.353 7.02515C59.6488 7.02515 57.973 7.4681 56.4858 8.31158L54.9894 9.15318C54.5727 9.38901 54.2381 9.74945 54.0311 10.1853C53.8241 10.6211 53.755 11.1109 53.8329 11.5881L54.5306 15.8423ZM55.738 10.5191L57.2329 9.67748C58.4915 8.96387 59.9095 8.58914 61.3514 8.58914C62.7936 8.58914 64.2115 8.96387 65.47 9.67748L66.9649 10.5191C67.1036 10.5981 67.2151 10.7185 67.2841 10.8638C67.353 11.0093 67.3762 11.1727 67.3504 11.3318L66.8662 14.2793H55.8367L55.3518 11.331C55.3255 11.1718 55.3486 11.0083 55.4178 10.8629C55.4869 10.7175 55.5988 10.5975 55.738 10.5191Z" fill="#383838" stroke="#383838" stroke-width="0.5"/>
<path d="M55.0516 37.2883L53.7686 38.1553L56.8525 42.8437L58.1354 41.9768L55.0516 37.2883Z" fill="#383838" stroke="#383838" stroke-width="0.5"/>
<path d="M67.6548 37.3022L64.5693 41.9905L65.8522 42.8579L68.938 38.1696L67.6548 37.3022Z" fill="#383838" stroke="#383838" stroke-width="0.5"/>
<path d="M75.6614 27.6949C75.5572 27.6233 75.4365 27.5787 75.3111 27.5651C75.1857 27.5515 75.0591 27.5693 74.9419 27.6169L71.7462 28.9124L71.3747 24.4348L72.4786 11.0724C72.6251 9.36303 72.2583 7.64865 71.4275 6.15393C70.5954 4.65921 69.3392 3.45377 67.8204 2.69539L67.211 2.38829C65.3892 1.47507 63.3841 1 61.3516 1C59.3191 1 57.314 1.47507 55.4922 2.38829L54.8839 2.69539C53.3648 3.4533 52.107 4.6585 51.2752 6.15334C50.4434 7.64806 50.0766 9.36268 50.2226 11.0724L51.329 24.4348L50.9589 28.9156L47.7632 27.6199C47.6464 27.5721 47.5197 27.5539 47.3943 27.5672C47.269 27.5803 47.1487 27.6245 47.0442 27.6957C46.9395 27.767 46.8537 27.8633 46.7942 27.9759C46.7348 28.0885 46.7035 28.2142 46.7031 28.342V30.4096C46.7017 30.8786 46.8397 31.3371 47.099 31.7255C47.3583 32.1137 47.7271 32.4139 48.1572 32.5868L50.5727 33.5659L50.2496 37.4559C50.1015 39.2498 50.5158 41.0454 51.4337 42.5866C52.3516 44.1278 53.726 45.3361 55.3612 46.039L58.0102 47.1854C59.0666 47.6403 60.2024 47.8747 61.3501 47.8747C62.4977 47.8747 63.6336 47.6403 64.69 47.1854L67.339 46.039C68.9747 45.3366 70.3493 44.1285 71.2681 42.5873C72.1868 41.046 72.6017 39.2502 72.454 37.4559L72.1317 33.5659L74.5482 32.5868C74.9771 32.4136 75.3462 32.1133 75.6052 31.7251C75.8642 31.3368 76.0013 30.8784 76.0001 30.4096V28.342C76.0001 28.2143 75.9697 28.0887 75.9099 27.9758C75.8513 27.863 75.7657 27.7666 75.6614 27.6949ZM50.558 31.8764L48.73 31.1348C48.5866 31.0774 48.4636 30.9775 48.377 30.8481C48.2906 30.7188 48.2445 30.566 48.2451 30.4096V29.4962L50.558 30.4339V31.8764ZM66.7345 44.602L64.0855 45.7476C63.2209 46.12 62.2911 46.312 61.3516 46.312C60.4121 46.312 59.4824 46.12 58.6178 45.7476L55.9687 44.602C54.6323 44.027 53.5092 43.0393 52.7591 41.7794C52.0091 40.5195 51.6705 39.0519 51.7916 37.5855L52.871 24.4348L51.7599 10.9387C51.6412 9.5419 51.9412 8.14118 52.6209 6.92004C53.3007 5.6989 54.3283 4.7143 55.5693 4.09494L56.1784 3.78783C57.7867 2.9814 59.5569 2.56177 61.3513 2.56177C63.1457 2.56177 64.9158 2.9814 66.5241 3.78783L67.1324 4.09494C68.3735 4.71418 69.4013 5.69878 70.081 6.91992C70.7606 8.14107 71.0618 9.54178 70.9423 10.9387L69.8325 24.4348L70.9177 37.5895C71.0372 39.0558 70.6974 40.5231 69.9462 41.7824C69.195 43.0415 68.0712 44.0282 66.7345 44.602ZM74.4579 30.4096C74.4591 30.566 74.4122 30.7188 74.3267 30.8481C74.24 30.9775 74.1169 31.0774 73.9728 31.1348L72.1458 31.8764V30.4339L74.4579 29.4962V30.4096Z" fill="#383838" stroke="#383838" stroke-width="0.5"/>
<path d="M28.503 21.4713C28.1598 21.8146 28.1598 22.3711 28.503 22.7145L34.0963 28.3091C34.4395 28.6524 34.9961 28.6524 35.3393 28.3091C35.6826 27.9658 35.6826 27.4091 35.3393 27.0658L30.3675 22.0929L35.3393 17.1199C35.6826 16.7766 35.6826 16.22 35.3393 15.8766C34.9961 15.5333 34.4395 15.5333 34.0963 15.8766L28.503 21.4713ZM48.496 22.7145C48.8392 22.3711 48.8392 21.8146 48.496 21.4713L42.9027 15.8766C42.5595 15.5333 42.003 15.5333 41.6597 15.8766C41.3165 16.22 41.3165 16.7766 41.6597 17.1199L46.6315 22.0929L41.6597 27.0658C41.3165 27.4091 41.3165 27.9658 41.6597 28.3091C42.003 28.6524 42.5595 28.6524 42.9027 28.3091L48.496 22.7145ZM29.1245 22.972H47.8746V21.2138H29.1245V22.972Z" fill="#383838"/>
</svg>
