<svg width="168" height="61" viewBox="0 0 168 61" fill="none" xmlns="http://www.w3.org/2000/svg">
<path d="M57.7765 37.2441C58.1478 38.7433 57.6324 40.407 56.6253 40.9598C55.6182 41.5127 54.5007 40.7453 54.1293 39.2461C52.8484 34.0356 52.6422 28.5026 53.4157 23.2874C54.1898 18.0681 55.9395 13.1803 58.5698 9.26471C62.3117 3.69435 67.2162 0.90918 72.1207 0.90918C77.0253 0.90918 81.9298 3.69435 85.6717 9.26471C89.4135 14.835 91.2844 22.1363 91.2844 29.4375C91.2844 36.7388 89.4135 44.04 85.6717 49.6103C82.9511 53.6604 79.5438 56.3019 75.9225 57.3927C72.3073 58.4818 68.4777 58.0165 64.9058 55.8549C63.9136 55.2534 63.4366 53.5683 63.8407 52.0912C64.2448 50.614 65.3768 49.904 66.369 50.5056C69.2094 52.2245 72.2614 52.5924 75.1478 51.723C78.0281 50.8554 80.7434 48.7467 82.9174 45.5102C85.899 41.0718 87.3898 35.2544 87.3898 29.4375C87.3898 23.6206 85.899 17.8033 82.9174 13.3648C79.9359 8.92635 76.0282 6.70704 72.1207 6.70704C68.2133 6.70704 64.3055 8.92635 61.324 13.3648C59.2156 16.5035 57.8167 20.3969 57.2028 24.5366C56.5882 28.6804 56.7542 33.0858 57.7765 37.2441H57.7765Z" fill="#ED3237"/>
<path d="M64.2628 29.4369C64.2628 31.0379 63.391 32.3358 62.3155 32.3358C61.24 32.3358 60.3682 31.0379 60.3682 29.4369C60.3682 27.1329 60.6805 24.8579 61.2707 22.7366C61.8585 20.6243 62.7167 18.6921 63.8109 17.0631C66.1061 13.6464 69.1145 11.938 72.1229 11.938C75.1314 11.938 78.1398 13.6464 80.4349 17.0631C82.73 20.4798 83.8777 24.9583 83.8777 29.4369C83.8776 33.9153 82.7301 38.394 80.4349 41.8107C79.3407 43.4396 78.0427 44.7172 76.6238 45.5922C75.1988 46.4709 73.6706 46.9358 72.1229 46.9358C71.0475 46.9358 70.1756 45.6379 70.1756 44.0369C70.1756 42.4359 71.0475 41.138 72.1229 41.138C73.176 41.138 74.1961 40.8337 75.1283 40.2589C76.0667 39.6802 76.9357 38.8196 77.6807 37.7106C79.2155 35.4257 79.983 32.4311 79.983 29.4369C79.983 26.4427 79.2155 23.448 77.6807 21.1632C76.1459 18.8784 74.1343 17.7359 72.1229 17.7359C70.1116 17.7359 68.1 18.8784 66.5652 21.1632C65.8202 22.2722 65.2421 23.566 64.8533 24.9629C64.4672 26.3507 64.2628 27.8692 64.2628 29.4369V29.4369Z" fill="#ED3237"/>
<path fill-rule="evenodd" clip-rule="evenodd" d="M74.1772 26.1833C75.5632 28.2541 75.8888 31.1474 74.352 33.4268L72.67 35.9214L72.9039 37.2304C72.9765 37.6369 72.8126 38.0577 72.5397 38.1657L72.5396 38.1659C72.2666 38.274 71.9839 38.0298 71.9113 37.6236L71.8298 37.1676L66.3892 45.2373C64.8523 47.5166 63.2726 46.4836 61.8867 44.4128C60.5008 42.3419 59.8125 39.9865 61.3494 37.707L66.7901 29.6375L66.4842 29.5146C66.2114 29.4049 66.0485 28.9831 66.122 28.5771H66.1222C66.1958 28.171 66.4791 27.9287 66.7517 28.0382L67.6303 28.3912L69.3122 25.8966C70.8491 23.6171 72.7913 24.1125 74.1772 26.1833L74.1772 26.1833ZM55.2226 55.4335L60.8403 47.1314C61.1789 46.6308 61.7298 46.629 62.0673 47.1314C62.4047 47.6337 62.4058 48.4575 62.0673 48.9579L56.4495 57.26C56.1109 57.7604 55.56 57.7624 55.2226 57.26C54.8851 56.7577 54.8839 55.934 55.2226 55.4335ZM48.944 58.5044L56.9624 46.5676C57.2998 46.0652 57.852 46.0652 58.1894 46.5676C58.5268 47.07 58.5268 47.8917 58.1894 48.394L50.171 60.331C49.8335 60.8333 49.2814 60.8333 48.944 60.331C48.6066 59.8287 48.6066 59.0067 48.944 58.5044V58.5044ZM66.766 31.8109C67.7772 32.6979 69.5947 35.3657 70.3503 37.2032C71.0423 36.5786 72.417 35.7594 72.3685 34.5113C72.3213 33.3003 71.6568 32.032 70.9437 30.9635C70.2418 29.9121 69.3827 28.8661 68.5663 28.8135C67.786 28.7629 67.1964 30.7273 66.766 31.8109H66.766Z" fill="#282829"/>
<path d="M9.77318 21.9474L12.0221 28.6433H7.52423L9.77318 21.9474ZM1.86598 39.2213C2.32852 39.5656 2.80702 39.6131 3.30147 39.3638C3.79592 39.1263 4.15879 38.6574 4.39006 37.9569L5.63416 34.2528H13.9002L15.1563 37.9569C15.3158 38.4437 15.5511 38.8295 15.8621 39.1145C16.1651 39.3875 16.4921 39.524 16.843 39.524C17.1381 39.524 17.4172 39.4231 17.6804 39.2213C18.1429 38.877 18.4579 38.3368 18.6254 37.6008C18.7929 36.8647 18.757 36.1524 18.5178 35.4638L11.4599 14.4145C11.3004 13.9397 11.0691 13.5598 10.7661 13.2748C10.463 13.0018 10.1321 12.8652 9.77318 12.8652C9.4143 12.8652 9.08334 13.0018 8.78029 13.2748C8.47724 13.5598 8.24597 13.9397 8.08647 14.4145L1.01664 35.4638C0.785364 36.1524 0.753464 36.8647 0.920939 37.6008C1.08044 38.3368 1.39545 38.877 1.86598 39.2213Z" fill="#282829"/>
<path d="M24.3258 28.9989H30.6898C31.1444 28.9989 31.5312 29.2423 31.8502 29.7291C32.1772 30.204 32.3406 30.7798 32.3406 31.4565C32.3406 32.1332 32.1772 32.7149 31.8502 33.2017C31.5312 33.6765 31.1444 33.914 30.6898 33.914H24.3258V28.9989ZM24.3258 18.4743H28.3332C28.7878 18.4743 29.1746 18.7177 29.4936 19.2045C29.8206 19.6793 29.984 20.2551 29.984 20.9318C29.984 21.6086 29.8206 22.1903 29.4936 22.677C29.1746 23.1519 28.7878 23.3894 28.3332 23.3894H24.3258V18.4743ZM30.6898 39.5236C32.1811 39.5236 33.4571 38.7341 34.5178 37.1551C35.5785 35.5761 36.1088 33.6765 36.1088 31.4565C36.1088 29.9487 35.8417 28.5478 35.3073 27.2537C34.7969 26.0072 34.1071 25.0396 33.2378 24.351C33.5808 23.2706 33.7522 22.1309 33.7522 20.9318C33.7522 18.7118 33.2219 16.8122 32.1612 15.2332C31.1005 13.6542 29.8245 12.8647 28.3332 12.8647H22.4477C21.9213 12.8647 21.4747 13.1437 21.1079 13.7017C20.741 14.2478 20.5576 14.9067 20.5576 15.6784V36.7099C20.5576 37.4934 20.741 38.1583 21.1079 38.7044C21.4747 39.2505 21.9213 39.5236 22.4477 39.5236H30.6898Z" fill="#282829"/>
<path d="M41.2015 18.4743V36.7099C41.2015 37.4934 41.3849 38.1583 41.7517 38.7044C42.1265 39.2505 42.5731 39.5236 43.0915 39.5236C43.6099 39.5236 44.0525 39.2505 44.4194 38.7044C44.7862 38.1583 44.9696 37.4934 44.9696 36.7099V18.4743H48.9771C49.4954 18.4743 49.942 18.2013 50.3169 17.6551C50.6837 17.109 50.8671 16.4501 50.8671 15.6784C50.8671 14.9067 50.6837 14.2478 50.3169 13.7017C49.942 13.1437 49.4954 12.8647 48.9771 12.8647H37.206C36.6796 12.8647 36.233 13.1437 35.8662 13.7017C35.4993 14.2478 35.3159 14.9067 35.3159 15.6784C35.3159 16.4501 35.4993 17.109 35.8662 17.6551C36.233 18.2013 36.6796 18.4743 37.206 18.4743H41.2015Z" fill="#282829"/>
<path d="M110.873 15.7287C110.873 14.9619 110.691 14.3073 110.327 13.7647C109.954 13.2103 109.51 12.9331 108.995 12.9331C108.48 12.9331 108.041 13.2103 107.676 13.7647C107.312 14.3073 107.129 14.9619 107.129 15.7287V33.8467H99.1663V15.7287C99.1663 14.9619 98.984 14.3073 98.6195 13.7647C98.255 13.2103 97.8153 12.9331 97.3003 12.9331C96.7773 12.9331 96.3336 13.2103 95.9691 13.7647C95.6046 14.3073 95.4224 14.9619 95.4224 15.7287V36.6422C95.4224 37.4089 95.6046 38.0636 95.9691 38.6062C96.3336 39.1488 96.7773 39.4201 97.3003 39.4201H108.294V40.1101C108.294 40.8886 108.476 41.5492 108.841 42.0918C109.205 42.6344 109.649 42.9057 110.172 42.9057C110.687 42.9057 111.127 42.6344 111.491 42.0918C111.856 41.5492 112.038 40.8886 112.038 40.1101V36.6422C112.038 36.0642 111.931 35.5393 111.717 35.0675C111.503 34.5957 111.222 34.2595 110.873 34.059V15.7287Z" fill="#282829"/>
<path d="M128.193 39.4378C128.708 39.4378 129.152 39.1665 129.524 38.6239C129.889 38.0813 130.071 37.4207 130.071 36.6422C130.071 35.8755 129.889 35.2208 129.524 34.6782C129.152 34.1356 128.708 33.8643 128.193 33.8643H118.364V28.981H125.852C126.367 28.981 126.81 28.7097 127.183 28.1671C127.547 27.6245 127.73 26.9698 127.73 26.2031C127.73 25.4246 127.547 24.7641 127.183 24.2215C126.81 23.6789 126.367 23.4076 125.852 23.4076H118.364V18.5242H128.193C128.708 18.5242 129.152 18.2529 129.524 17.7103C129.889 17.1677 130.071 16.5131 130.071 15.7463C130.071 14.9796 129.889 14.325 129.524 13.7824C129.152 13.228 128.708 12.9508 128.193 12.9508H116.498C115.975 12.9508 115.531 13.228 115.167 13.7824C114.802 14.325 114.62 14.9796 114.62 15.7463V36.6422C114.62 37.4207 114.802 38.0813 115.167 38.6239C115.531 39.1665 115.975 39.4378 116.498 39.4378H128.193Z" fill="#282829"/>
<path d="M145.702 37.8807C145.932 38.5649 146.292 39.0308 146.784 39.2785C147.275 39.5144 147.75 39.4613 148.21 39.1193C148.669 38.7772 148.982 38.2405 149.149 37.5092C149.315 36.7779 149.28 36.0701 149.042 35.386L142.03 14.4901C141.871 14.0183 141.641 13.6467 141.34 13.3754C141.039 13.0923 140.71 12.9508 140.354 12.9508C139.997 12.9508 139.668 13.0923 139.367 13.3754C139.066 13.6467 138.836 14.0183 138.678 14.4901L131.654 35.4037C131.424 36.0878 131.392 36.7955 131.559 37.5269C131.717 38.2582 132.03 38.7949 132.497 39.137C132.759 39.3375 133.036 39.4378 133.329 39.4378C133.678 39.4378 134.003 39.3021 134.304 39.0308C134.613 38.7595 134.847 38.3821 135.005 37.8984L140.354 21.9744L145.702 37.8807Z" fill="#282829"/>
<path d="M155.32 33.8643V25.4954H160.466C161.243 25.4954 161.904 25.9082 162.451 26.7339C163.006 27.5478 163.283 28.5328 163.283 29.6887C163.283 30.8329 163.006 31.8178 162.451 32.6435C161.904 33.4574 161.243 33.8643 160.466 33.8643H155.32ZM155.32 19.922V15.7463C155.32 14.9796 155.138 14.325 154.773 13.7824C154.409 13.228 153.969 12.9508 153.454 12.9508C152.931 12.9508 152.487 13.228 152.123 13.7824C151.758 14.325 151.576 14.9796 151.576 15.7463V36.6422C151.576 37.4207 151.758 38.0813 152.123 38.6239C152.487 39.1665 152.931 39.4378 153.454 39.4378H160.466C162.273 39.4378 163.818 38.4823 165.102 36.5714C166.385 34.6723 167.027 32.3781 167.027 29.6887C167.027 26.9993 166.385 24.6992 165.102 22.7883C163.818 20.8774 162.273 19.922 160.466 19.922H155.32Z" fill="#282829"/>
<path d="M99.8376 48.838L100.658 51.2814H99.0169L99.8376 48.838ZM96.9522 55.1414C97.121 55.267 97.2956 55.2843 97.476 55.1933C97.6564 55.1067 97.7889 54.9356 97.8732 54.68L98.3272 53.3283H101.344L101.802 54.68C101.86 54.8576 101.946 54.9984 102.059 55.1024C102.17 55.202 102.289 55.2518 102.417 55.2518C102.525 55.2518 102.627 55.215 102.723 55.1414C102.892 55.0157 103.007 54.8186 103.068 54.55C103.129 54.2814 103.116 54.0215 103.028 53.7702L100.453 46.0893C100.395 45.916 100.31 45.7774 100.2 45.6734C100.089 45.5737 99.9685 45.5239 99.8376 45.5239C99.7066 45.5239 99.5858 45.5737 99.4753 45.6734C99.3647 45.7774 99.2803 45.916 99.2221 46.0893L96.6423 53.7702C96.5579 54.0215 96.5462 54.2814 96.6073 54.55C96.6656 54.8186 96.7805 55.0157 96.9522 55.1414Z" fill="#282829"/>
<path d="M105.334 51.4114H107.657C107.822 51.4114 107.964 51.5002 108.08 51.6778C108.199 51.8511 108.259 52.0612 108.259 52.3081C108.259 52.555 108.199 52.7673 108.08 52.9449C107.964 53.1182 107.822 53.2049 107.657 53.2049H105.334V51.4114ZM105.334 47.5709H106.797C106.962 47.5709 107.104 47.6597 107.22 47.8373C107.339 48.0106 107.399 48.2207 107.399 48.4676C107.399 48.7146 107.339 48.9268 107.22 49.1045C107.104 49.2778 106.962 49.3644 106.797 49.3644H105.334V47.5709ZM107.657 55.2518C108.201 55.2518 108.666 54.9637 109.053 54.3876C109.44 53.8114 109.634 53.1182 109.634 52.3081C109.634 51.7579 109.536 51.2467 109.341 50.7745C109.155 50.3196 108.903 49.9666 108.586 49.7153C108.711 49.3211 108.774 48.9052 108.774 48.4676C108.774 47.6575 108.58 46.9644 108.193 46.3882C107.806 45.812 107.341 45.5239 106.797 45.5239H104.649C104.457 45.5239 104.294 45.6257 104.16 45.8293C104.026 46.0286 103.959 46.2691 103.959 46.5507V54.2251C103.959 54.511 104.026 54.7536 104.16 54.9529C104.294 55.1522 104.457 55.2518 104.649 55.2518H107.657Z" fill="#282829"/>
<path d="M112.289 47.5709V54.2251C112.289 54.511 112.356 54.7536 112.489 54.9529C112.626 55.1522 112.789 55.2518 112.978 55.2518C113.167 55.2518 113.329 55.1522 113.463 54.9529C113.597 54.7536 113.664 54.511 113.664 54.2251V47.5709H115.126C115.315 47.5709 115.478 47.4712 115.615 47.272C115.749 47.0727 115.816 46.8322 115.816 46.5507C115.816 46.2691 115.749 46.0286 115.615 45.8293C115.478 45.6257 115.315 45.5239 115.126 45.5239H110.831C110.639 45.5239 110.476 45.6257 110.342 45.8293C110.208 46.0286 110.141 46.2691 110.141 46.5507C110.141 46.8322 110.208 47.0727 110.342 47.272C110.476 47.4712 110.639 47.5709 110.831 47.5709H112.289Z" fill="#282829"/>
<path d="M121.494 50.3911C121.494 51.1666 121.31 51.8294 120.94 52.3796C120.567 52.9298 120.121 53.2049 119.6 53.2049C119.079 53.2049 118.634 52.9298 118.264 52.3796C117.895 51.8294 117.71 51.1666 117.71 50.3911C117.71 49.6157 117.895 48.9528 118.264 48.4027C118.634 47.8481 119.079 47.5709 119.6 47.5709C120.121 47.5709 120.567 47.8481 120.94 48.4027C121.31 48.9528 121.494 49.6157 121.494 50.3911ZM116.335 50.3911C116.335 51.7298 116.653 52.8756 117.291 53.8287C117.931 54.7774 118.701 55.2518 119.6 55.2518C120.502 55.2518 121.272 54.7774 121.909 53.8287C122.549 52.8756 122.869 51.7298 122.869 50.3911C122.869 49.0481 122.549 47.9023 121.909 46.9535C121.272 46.0005 120.502 45.5239 119.6 45.5239C118.701 45.5239 117.931 46.0005 117.291 46.9535C116.653 47.9023 116.335 49.0481 116.335 50.3911Z" fill="#282829"/>
<path d="M127.598 51.4114C127.764 51.4114 127.905 51.5002 128.022 51.6778C128.141 51.8511 128.201 52.0612 128.201 52.3081C128.201 52.555 128.141 52.7673 128.022 52.9449C127.905 53.1182 127.764 53.2049 127.598 53.2049H125.276V51.4114H127.598ZM128.026 47.5709C128.215 47.5709 128.378 47.4712 128.515 47.272C128.649 47.0727 128.716 46.8322 128.716 46.5507C128.716 46.2691 128.649 46.0286 128.515 45.8293C128.378 45.6257 128.215 45.5239 128.026 45.5239H124.591C124.398 45.5239 124.235 45.6257 124.102 45.8293C123.968 46.0286 123.901 46.2691 123.901 46.5507V54.2251C123.901 54.511 123.968 54.7536 124.102 54.9529C124.235 55.1522 124.398 55.2518 124.591 55.2518H127.598C128.142 55.2518 128.608 54.9637 128.995 54.3876C129.382 53.8114 129.576 53.1182 129.576 52.3081C129.576 51.498 129.382 50.8048 128.995 50.2287C128.608 49.6525 128.142 49.3644 127.598 49.3644H125.276V47.5709H128.026Z" fill="#282829"/>
<path d="M134.902 49.111C134.902 49.5312 134.8 49.8929 134.596 50.1962C134.395 50.4951 134.152 50.6446 133.867 50.6446H131.977V47.5709H133.867C134.152 47.5709 134.395 47.7225 134.596 48.0258C134.8 48.3247 134.902 48.6864 134.902 49.111ZM131.292 55.2518C131.481 55.2518 131.642 55.1522 131.776 54.9529C131.91 54.7536 131.977 54.511 131.977 54.2251V52.6915H133.867C134.531 52.6915 135.098 52.3406 135.57 51.6388C136.041 50.9413 136.277 50.0987 136.277 49.111C136.277 48.1232 136.041 47.2785 135.57 46.5766C135.098 45.8748 134.531 45.5239 133.867 45.5239H131.292C131.1 45.5239 130.937 45.6257 130.803 45.8293C130.669 46.0286 130.602 46.2691 130.602 46.5507V54.2251C130.602 54.511 130.669 54.7536 130.803 54.9529C130.937 55.1522 131.1 55.2518 131.292 55.2518Z" fill="#282829"/>
<path d="M142.118 50.3911C142.118 51.1666 141.933 51.8294 141.564 52.3796C141.191 52.9298 140.744 53.2049 140.223 53.2049C139.703 53.2049 139.257 52.9298 138.888 52.3796C138.518 51.8294 138.333 51.1666 138.333 50.3911C138.333 49.6157 138.518 48.9528 138.888 48.4027C139.257 47.8481 139.703 47.5709 140.223 47.5709C140.744 47.5709 141.191 47.8481 141.564 48.4027C141.933 48.9528 142.118 49.6157 142.118 50.3911ZM136.958 50.3911C136.958 51.7298 137.277 52.8756 137.914 53.8287C138.555 54.7774 139.324 55.2518 140.223 55.2518C141.126 55.2518 141.895 54.7774 142.533 53.8287C143.173 52.8756 143.493 51.7298 143.493 50.3911C143.493 49.0481 143.173 47.9023 142.533 46.9535C141.895 46.0005 141.126 45.5239 140.223 45.5239C139.324 45.5239 138.555 46.0005 137.914 46.9535C137.277 47.9023 136.958 49.0481 136.958 50.3911Z" fill="#282829"/>
<path d="M149.894 45.6994C149.734 45.5434 149.56 45.4914 149.374 45.5434C149.188 45.5997 149.042 45.747 148.938 45.9853L147.423 49.3644H145.899V46.5507C145.899 46.2691 145.833 46.0286 145.699 45.8293C145.565 45.6257 145.403 45.5239 145.214 45.5239C145.022 45.5239 144.859 45.6257 144.725 45.8293C144.591 46.0286 144.524 46.2691 144.524 46.5507V54.2251C144.524 54.511 144.591 54.7536 144.725 54.9529C144.859 55.1522 145.022 55.2518 145.214 55.2518C145.403 55.2518 145.565 55.1522 145.699 54.9529C145.833 54.7536 145.899 54.511 145.899 54.2251V51.4114H147.423L148.938 54.7969C149.074 55.1002 149.265 55.2518 149.509 55.2518C149.649 55.2518 149.777 55.1955 149.894 55.0829C150.051 54.9226 150.148 54.7038 150.186 54.4265C150.221 54.1493 150.186 53.8937 150.081 53.6597L148.619 50.3911L150.081 47.116C150.186 46.8821 150.221 46.6265 150.186 46.3492C150.148 46.0719 150.051 45.8553 149.894 45.6994Z" fill="#282829"/>
<path d="M156.211 55.2518C156.4 55.2518 156.563 55.1522 156.7 54.9529C156.833 54.7536 156.9 54.511 156.9 54.2251C156.9 53.9435 156.833 53.7031 156.7 53.5038C156.563 53.3045 156.4 53.2049 156.211 53.2049H152.601V51.4114H155.351C155.54 51.4114 155.703 51.3117 155.84 51.1124C155.973 50.9132 156.04 50.6727 156.04 50.3911C156.04 50.1052 155.973 49.8626 155.84 49.6633C155.703 49.464 155.54 49.3644 155.351 49.3644H152.601V47.5709H156.211C156.4 47.5709 156.563 47.4712 156.7 47.272C156.833 47.0727 156.9 46.8322 156.9 46.5507C156.9 46.2691 156.833 46.0286 156.7 45.8293C156.563 45.6257 156.4 45.5239 156.211 45.5239H151.915C151.723 45.5239 151.56 45.6257 151.426 45.8293C151.293 46.0286 151.226 46.2691 151.226 46.5507V54.2251C151.226 54.511 151.293 54.7536 151.426 54.9529C151.56 55.1522 151.723 55.2518 151.915 55.2518H156.211Z" fill="#282829"/>
<path d="M162.227 49.111C162.227 49.5312 162.125 49.8929 161.921 50.1962C161.72 50.4951 161.477 50.6446 161.192 50.6446H159.302V47.5709H161.192C161.477 47.5709 161.72 47.7225 161.921 48.0258C162.125 48.3247 162.227 48.6864 162.227 49.111ZM158.617 55.2518C158.806 55.2518 158.967 55.1522 159.101 54.9529C159.235 54.7536 159.302 54.511 159.302 54.2251V52.6915H161.192C161.855 52.6915 162.423 52.3406 162.894 51.6388C163.366 50.9413 163.602 50.0987 163.602 49.111C163.602 48.1232 163.366 47.2785 162.894 46.5766C162.423 45.8748 161.855 45.5239 161.192 45.5239H158.617C158.424 45.5239 158.262 45.6257 158.128 45.8293C157.994 46.0286 157.927 46.2691 157.927 46.5507V54.2251C157.927 54.511 157.994 54.7536 158.128 54.9529C158.262 55.1522 158.424 55.2518 158.617 55.2518Z" fill="#282829"/>
</svg>
