<svg width="167" height="41" viewBox="0 0 167 41" fill="none" xmlns="http://www.w3.org/2000/svg">
<path d="M57.7347 24.7497C58.1061 25.7526 57.5906 26.8654 56.5835 27.2352C55.5764 27.605 54.4589 27.0917 54.0875 26.0889C52.8066 22.6035 52.6005 18.9025 53.374 15.4139C54.148 11.9226 55.8978 8.65315 58.5281 6.03395C62.2699 2.30786 67.1744 0.444824 72.079 0.444824C76.9835 0.444824 81.8881 2.30786 85.6299 6.03395C89.3717 9.75998 91.2427 14.6439 91.2427 19.5278C91.2427 24.4117 89.3717 29.2956 85.6299 33.0217C82.9093 35.7308 79.502 37.4978 75.8807 38.2274C72.2656 38.9559 68.436 38.6447 64.8641 37.1988C63.8718 36.7964 63.3949 35.6692 63.799 34.6811C64.203 33.6931 65.335 33.2181 66.3273 33.6205C69.1676 34.7703 72.2197 35.0164 75.1061 34.4349C77.9864 33.8545 80.7016 32.444 82.8757 30.2791C85.8572 27.3101 87.348 23.4188 87.348 19.5278C87.348 15.6368 85.8572 11.7455 82.8757 8.77657C79.8942 5.80762 75.9864 4.32309 72.079 4.32309C68.1715 4.32309 64.2638 5.80762 61.2823 8.77657C59.1739 10.8761 57.775 13.4804 57.161 16.2495C56.5464 19.0214 56.7125 21.9682 57.7347 24.7497H57.7347Z" fill="#ED3237"/>
<path d="M64.2213 19.5275C64.2213 20.5985 63.3494 21.4667 62.274 21.4667C61.1985 21.4667 60.3267 20.5985 60.3267 19.5275C60.3267 17.9863 60.639 16.4646 61.2292 15.0456C61.817 13.6327 62.6752 12.3402 63.7694 11.2505C66.0646 8.96505 69.073 7.82227 72.0814 7.82227C75.0899 7.82227 78.0983 8.96505 80.3934 11.2505C82.6885 13.536 83.8362 16.5318 83.8362 19.5275C83.8361 22.5232 82.6886 25.519 80.3934 27.8045C79.2992 28.8941 78.0012 29.7488 76.5823 30.334C75.1573 30.9218 73.6291 31.2328 72.0814 31.2328C71.006 31.2328 70.1341 30.3646 70.1341 29.2937C70.1341 28.2227 71.006 27.3545 72.0814 27.3545C73.1345 27.3545 74.1546 27.151 75.0868 26.7665C76.0252 26.3794 76.8942 25.8037 77.6392 25.0619C79.174 23.5335 79.9415 21.5304 79.9415 19.5275C79.9415 17.5246 79.174 15.5215 77.6392 13.9932C76.1044 12.4648 74.0928 11.7005 72.0814 11.7005C70.0701 11.7005 68.0585 12.4648 66.5237 13.9932C65.7787 14.735 65.2006 15.6004 64.8118 16.5348C64.4257 17.4631 64.2213 18.4789 64.2213 19.5275V19.5275Z" fill="#ED3237"/>
<path fill-rule="evenodd" clip-rule="evenodd" d="M74.136 17.3512C75.5219 18.7364 75.8475 20.6717 74.3107 22.1965L72.6287 23.8651L72.8627 24.7407C72.9352 25.0126 72.7714 25.2941 72.4985 25.3664L72.4984 25.3665C72.2253 25.4388 71.9426 25.2755 71.8701 25.0037L71.7886 24.6987L66.3479 30.0966C64.8111 31.6213 63.2313 30.9303 61.8455 29.5451C60.4595 28.1599 59.7713 26.5843 61.3082 25.0595L66.7488 19.6617L66.4429 19.5795C66.1701 19.5061 66.0072 19.224 66.0808 18.9524H66.0809C66.1546 18.6808 66.4378 18.5187 66.7105 18.5919L67.589 18.828L69.271 17.1594C70.8078 15.6346 72.75 15.9659 74.136 17.3512L74.136 17.3512ZM55.1813 36.917L60.799 31.3636C61.1376 31.0288 61.6886 31.0276 62.026 31.3636C62.3634 31.6996 62.3645 32.2507 62.026 32.5854L56.4082 38.1388C56.0697 38.4735 55.5188 38.4748 55.1813 38.1388C54.8438 37.8028 54.8426 37.2518 55.1813 36.917ZM48.9027 38.9712L56.9211 30.9865C57.2586 30.6504 57.8107 30.6504 58.1481 30.9865C58.4856 31.3225 58.4856 31.8722 58.1481 32.2082L50.1297 40.193C49.7923 40.529 49.2402 40.529 48.9027 40.193C48.5653 39.857 48.5653 39.3072 48.9027 38.9712V38.9712ZM66.7248 21.1155C67.7359 21.7089 69.5534 23.4933 70.309 24.7225C71.0011 24.3047 72.3757 23.7568 72.3272 22.9219C72.2801 22.1118 71.6156 21.2634 70.9024 20.5487C70.2006 19.8454 69.3415 19.1457 68.5251 19.1105C67.7448 19.0767 67.1551 20.3907 66.7247 21.1155H66.7248Z" fill="#282829"/>
<path d="M9.73168 14.5176L11.9806 18.9965H7.48273L9.73168 14.5176ZM1.82447 26.0723C2.28702 26.3026 2.76552 26.3344 3.25997 26.1676C3.75442 26.0088 4.11728 25.6951 4.34856 25.2265L5.59265 22.7488H13.8587L15.1148 25.2265C15.2743 25.5521 15.5096 25.8102 15.8206 26.0008C16.1236 26.1835 16.4506 26.2748 16.8015 26.2748C17.0966 26.2748 17.3757 26.2073 17.6389 26.0723C18.1014 25.842 18.4164 25.4807 18.5839 24.9883C18.7514 24.4959 18.7155 24.0195 18.4763 23.5589L11.4184 9.47874C11.2589 9.16108 11.0276 8.90696 10.7246 8.71636C10.4215 8.53371 10.0905 8.44238 9.73168 8.44238C9.3728 8.44238 9.04184 8.53371 8.73879 8.71636C8.43574 8.90696 8.20446 9.16108 8.04496 9.47874L0.975135 23.5589C0.74386 24.0195 0.71196 24.4959 0.879435 24.9883C1.03893 25.4807 1.35395 25.842 1.82447 26.0723Z" fill="#282829"/>
<path d="M24.2843 19.2343H30.6483C31.1029 19.2343 31.4897 19.3971 31.8087 19.7227C32.1357 20.0403 32.2991 20.4255 32.2991 20.8781C32.2991 21.3308 32.1357 21.7199 31.8087 22.0455C31.4897 22.3632 31.1029 22.522 30.6483 22.522H24.2843V19.2343ZM24.2843 12.1942H28.2917C28.7463 12.1942 29.1331 12.357 29.4521 12.6826C29.7791 13.0003 29.9425 13.3854 29.9425 13.8381C29.9425 14.2907 29.7791 14.6799 29.4521 15.0055C29.1331 15.3231 28.7463 15.482 28.2917 15.482H24.2843V12.1942ZM30.6483 26.2743C32.1396 26.2743 33.4156 25.7462 34.4763 24.69C35.537 23.6338 36.0673 22.3632 36.0673 20.8781C36.0673 19.8696 35.8002 18.9325 35.2658 18.0669C34.7554 17.233 34.0656 16.5858 33.1963 16.1252C33.5393 15.4025 33.7107 14.6402 33.7107 13.8381C33.7107 12.353 33.1804 11.0824 32.1197 10.0262C31.059 8.97 29.783 8.44189 28.2917 8.44189H22.4062C21.8798 8.44189 21.4332 8.62852 21.0664 9.00176C20.6995 9.36707 20.5161 9.80782 20.5161 10.324V24.3922C20.5161 24.9163 20.6995 25.3611 21.0664 25.7264C21.4332 26.0917 21.8798 26.2743 22.4062 26.2743H30.6483Z" fill="#282829"/>
<path d="M41.1599 12.1942V24.3922C41.1599 24.9163 41.3434 25.3611 41.7102 25.7264C42.085 26.0917 42.5316 26.2743 43.05 26.2743C43.5684 26.2743 44.011 26.0917 44.3779 25.7264C44.7447 25.3611 44.9281 24.9163 44.9281 24.3922V12.1942H48.9356C49.4539 12.1942 49.9005 12.0116 50.2753 11.6463C50.6422 11.2809 50.8256 10.8402 50.8256 10.324C50.8256 9.80782 50.6422 9.36707 50.2753 9.00176C49.9005 8.62852 49.4539 8.44189 48.9356 8.44189H37.1645C36.6381 8.44189 36.1915 8.62852 35.8247 9.00176C35.4578 9.36707 35.2744 9.80782 35.2744 10.324C35.2744 10.8402 35.4578 11.2809 35.8247 11.6463C36.1915 12.0116 36.6381 12.1942 37.1645 12.1942H41.1599Z" fill="#282829"/>
<path d="M110.832 10.3578C110.832 9.84491 110.65 9.407 110.285 9.04405C109.913 8.67321 109.469 8.48779 108.954 8.48779C108.439 8.48779 107.999 8.67321 107.635 9.04405C107.27 9.407 107.088 9.84491 107.088 10.3578V22.4771H99.125V10.3578C99.125 9.84491 98.9428 9.407 98.5783 9.04405C98.2138 8.67321 97.774 8.48779 97.259 8.48779C96.736 8.48779 96.2923 8.67321 95.9278 9.04405C95.5633 9.407 95.3811 9.84491 95.3811 10.3578V24.3471C95.3811 24.86 95.5633 25.2979 95.9278 25.6608C96.2923 26.0238 96.736 26.2053 97.259 26.2053H108.253V26.6669C108.253 27.1876 108.435 27.6295 108.8 27.9924C109.164 28.3554 109.608 28.5368 110.131 28.5368C110.646 28.5368 111.086 28.3554 111.45 27.9924C111.815 27.6295 111.997 27.1876 111.997 26.6669V24.3471C111.997 23.9605 111.89 23.6094 111.676 23.2938C111.462 22.9782 111.181 22.7533 110.832 22.6192V10.3578Z" fill="#282829"/>
<path d="M128.152 26.2171C128.667 26.2171 129.111 26.0356 129.483 25.6727C129.847 25.3097 130.03 24.8679 130.03 24.3471C130.03 23.8343 129.847 23.3964 129.483 23.0334C129.111 22.6705 128.667 22.489 128.152 22.489H118.323V19.2224H125.81C126.325 19.2224 126.769 19.041 127.142 18.678C127.506 18.3151 127.688 17.8772 127.688 17.3643C127.688 16.8435 127.506 16.4017 127.142 16.0387C126.769 15.6758 126.325 15.4943 125.81 15.4943H118.323V12.2278H128.152C128.667 12.2278 129.111 12.0463 129.483 11.6833C129.847 11.3204 130.03 10.8825 130.03 10.3696C130.03 9.85675 129.847 9.41884 129.483 9.05589C129.111 8.68505 128.667 8.49963 128.152 8.49963H116.457C115.934 8.49963 115.49 8.68505 115.125 9.05589C114.761 9.41884 114.579 9.85675 114.579 10.3696V24.3471C114.579 24.8679 114.761 25.3097 115.125 25.6727C115.49 26.0356 115.934 26.2171 116.457 26.2171H128.152Z" fill="#282829"/>
<path d="M145.661 25.1756C145.891 25.6332 146.251 25.9449 146.742 26.1106C147.234 26.2684 147.709 26.2329 148.169 26.0041C148.628 25.7753 148.941 25.4163 149.108 24.9271C149.274 24.4379 149.238 23.9645 149.001 23.5068L141.988 9.5293C141.83 9.21369 141.6 8.96515 141.299 8.78368C140.998 8.59431 140.669 8.49963 140.312 8.49963C139.956 8.49963 139.627 8.59431 139.326 8.78368C139.025 8.96515 138.795 9.21369 138.637 9.5293L131.612 23.5187C131.383 23.9763 131.351 24.4497 131.517 24.9389C131.676 25.4281 131.989 25.7871 132.456 26.0159C132.718 26.15 132.995 26.2171 133.288 26.2171C133.637 26.2171 133.962 26.1264 134.263 25.9449C134.572 25.7634 134.806 25.5109 134.964 25.1874L140.312 14.5356L145.661 25.1756Z" fill="#282829"/>
<path d="M155.279 22.489V16.8909H160.425C161.202 16.8909 161.863 17.167 162.41 17.7193C162.965 18.2638 163.242 18.9226 163.242 19.6958C163.242 20.4612 162.965 21.12 162.41 21.6723C161.863 22.2168 161.202 22.489 160.425 22.489H155.279ZM155.279 13.1627V10.3696C155.279 9.85675 155.096 9.41884 154.732 9.05589C154.368 8.68505 153.928 8.49963 153.413 8.49963C152.89 8.49963 152.446 8.68505 152.082 9.05589C151.717 9.41884 151.535 9.85675 151.535 10.3696V24.3471C151.535 24.8679 151.717 25.3097 152.082 25.6727C152.446 26.0356 152.89 26.2171 153.413 26.2171H160.425C162.232 26.2171 163.777 25.578 165.06 24.2998C166.344 23.0295 166.986 21.4948 166.986 19.6958C166.986 17.8969 166.344 16.3583 165.06 15.0801C163.777 13.8019 162.232 13.1627 160.425 13.1627H155.279Z" fill="#282829"/>
<path d="M99.7963 32.5049L100.617 34.1393H98.9757L99.7963 32.5049ZM96.9109 36.7213C97.0797 36.8053 97.2543 36.8169 97.4348 36.7561C97.6152 36.6981 97.7476 36.5837 97.832 36.4127L98.286 35.5086H101.302L101.761 36.4127C101.819 36.5315 101.905 36.6257 102.018 36.6952C102.129 36.7619 102.248 36.7952 102.376 36.7952C102.484 36.7952 102.586 36.7706 102.682 36.7213C102.85 36.6373 102.965 36.5054 103.027 36.3258C103.088 36.1461 103.075 35.9722 102.987 35.8041L100.412 30.6663C100.354 30.5503 100.269 30.4576 100.159 30.3881C100.048 30.3214 99.9273 30.2881 99.7963 30.2881C99.6653 30.2881 99.5446 30.3214 99.434 30.3881C99.3234 30.4576 99.239 30.5503 99.1808 30.6663L96.601 35.8041C96.5166 35.9722 96.505 36.1461 96.5661 36.3258C96.6243 36.5054 96.7392 36.6373 96.9109 36.7213Z" fill="#282829"/>
<path d="M105.293 34.2263H107.615C107.781 34.2263 107.922 34.2857 108.039 34.4045C108.158 34.5204 108.218 34.6609 108.218 34.8261C108.218 34.9913 108.158 35.1333 108.039 35.2521C107.922 35.368 107.781 35.426 107.615 35.426H105.293V34.2263ZM105.293 31.6573H106.755C106.921 31.6573 107.062 31.7167 107.179 31.8355C107.298 31.9515 107.358 32.092 107.358 32.2572C107.358 32.4224 107.298 32.5643 107.179 32.6832C107.062 32.7991 106.921 32.857 106.755 32.857H105.293V31.6573ZM107.615 36.7952C108.159 36.7952 108.625 36.6025 109.012 36.2171C109.399 35.8317 109.593 35.368 109.593 34.8261C109.593 34.4581 109.495 34.1161 109.3 33.8003C109.114 33.496 108.862 33.2598 108.545 33.0918C108.67 32.8281 108.733 32.5499 108.733 32.2572C108.733 31.7153 108.539 31.2516 108.152 30.8662C107.765 30.4808 107.3 30.2881 106.755 30.2881H104.608C104.416 30.2881 104.253 30.3562 104.119 30.4924C103.985 30.6257 103.918 30.7865 103.918 30.9749V36.1084C103.918 36.2997 103.985 36.462 104.119 36.5953C104.253 36.7286 104.416 36.7952 104.608 36.7952H107.615Z" fill="#282829"/>
<path d="M112.247 31.6573V36.1084C112.247 36.2997 112.314 36.462 112.448 36.5953C112.585 36.7286 112.748 36.7952 112.937 36.7952C113.126 36.7952 113.288 36.7286 113.422 36.5953C113.555 36.462 113.622 36.2997 113.622 36.1084V31.6573H115.085C115.274 31.6573 115.437 31.5907 115.574 31.4574C115.707 31.3241 115.774 31.1632 115.774 30.9749C115.774 30.7865 115.707 30.6257 115.574 30.4924C115.437 30.3562 115.274 30.2881 115.085 30.2881H110.789C110.597 30.2881 110.434 30.3562 110.301 30.4924C110.167 30.6257 110.1 30.7865 110.1 30.9749C110.1 31.1632 110.167 31.3241 110.301 31.4574C110.434 31.5907 110.597 31.6573 110.789 31.6573H112.247Z" fill="#282829"/>
<path d="M121.453 33.5438C121.453 34.0625 121.268 34.5059 120.899 34.8739C120.526 35.242 120.079 35.426 119.559 35.426C119.038 35.426 118.592 35.242 118.223 34.8739C117.853 34.5059 117.668 34.0625 117.668 33.5438C117.668 33.0251 117.853 32.5817 118.223 32.2137C118.592 31.8428 119.038 31.6573 119.559 31.6573C120.079 31.6573 120.526 31.8428 120.899 32.2137C121.268 32.5817 121.453 33.0251 121.453 33.5438ZM116.293 33.5438C116.293 34.4393 116.612 35.2057 117.249 35.8433C117.89 36.4779 118.659 36.7952 119.559 36.7952C120.461 36.7952 121.23 36.4779 121.868 35.8433C122.508 35.2057 122.828 34.4393 122.828 33.5438C122.828 32.6455 122.508 31.879 121.868 31.2444C121.23 30.6068 120.461 30.2881 119.559 30.2881C118.659 30.2881 117.89 30.6068 117.249 31.2444C116.612 31.879 116.293 32.6455 116.293 33.5438Z" fill="#282829"/>
<path d="M127.557 34.2263C127.723 34.2263 127.864 34.2857 127.98 34.4045C128.1 34.5204 128.159 34.6609 128.159 34.8261C128.159 34.9913 128.1 35.1333 127.98 35.2521C127.864 35.368 127.723 35.426 127.557 35.426H125.235V34.2263H127.557ZM127.985 31.6573C128.174 31.6573 128.337 31.5907 128.474 31.4574C128.607 31.3241 128.674 31.1632 128.674 30.9749C128.674 30.7865 128.607 30.6257 128.474 30.4924C128.337 30.3562 128.174 30.2881 127.985 30.2881H124.549C124.357 30.2881 124.194 30.3562 124.06 30.4924C123.926 30.6257 123.86 30.7865 123.86 30.9749V36.1084C123.86 36.2997 123.926 36.462 124.06 36.5953C124.194 36.7286 124.357 36.7952 124.549 36.7952H127.557C128.101 36.7952 128.567 36.6025 128.954 36.2171C129.341 35.8317 129.534 35.368 129.534 34.8261C129.534 34.2842 129.341 33.8206 128.954 33.4352C128.567 33.0497 128.101 32.857 127.557 32.857H125.235V31.6573H127.985Z" fill="#282829"/>
<path d="M134.86 32.6875C134.86 32.9686 134.759 33.2106 134.555 33.4134C134.354 33.6134 134.111 33.7133 133.826 33.7133H131.936V31.6573H133.826C134.111 31.6573 134.354 31.7587 134.555 31.9616C134.759 32.1615 134.86 32.4035 134.86 32.6875ZM131.25 36.7952C131.44 36.7952 131.601 36.7286 131.735 36.5953C131.869 36.462 131.936 36.2997 131.936 36.1084V35.0826H133.826C134.489 35.0826 135.057 34.8479 135.528 34.3784C136 33.9118 136.235 33.3482 136.235 32.6875C136.235 32.0268 136 31.4617 135.528 30.9923C135.057 30.5228 134.489 30.2881 133.826 30.2881H131.25C131.058 30.2881 130.895 30.3562 130.762 30.4924C130.628 30.6257 130.561 30.7865 130.561 30.9749V36.1084C130.561 36.2997 130.628 36.462 130.762 36.5953C130.895 36.7286 131.058 36.7952 131.25 36.7952Z" fill="#282829"/>
<path d="M142.077 33.5438C142.077 34.0625 141.892 34.5059 141.522 34.8739C141.15 35.242 140.703 35.426 140.182 35.426C139.661 35.426 139.216 35.242 138.846 34.8739C138.477 34.5059 138.292 34.0625 138.292 33.5438C138.292 33.0251 138.477 32.5817 138.846 32.2137C139.216 31.8428 139.661 31.6573 140.182 31.6573C140.703 31.6573 141.15 31.8428 141.522 32.2137C141.892 32.5817 142.077 33.0251 142.077 33.5438ZM136.917 33.5438C136.917 34.4393 137.236 35.2057 137.873 35.8433C138.513 36.4779 139.283 36.7952 140.182 36.7952C141.084 36.7952 141.854 36.4779 142.491 35.8433C143.132 35.2057 143.452 34.4393 143.452 33.5438C143.452 32.6455 143.132 31.879 142.491 31.2444C141.854 30.6068 141.084 30.2881 140.182 30.2881C139.283 30.2881 138.513 30.6068 137.873 31.2444C137.236 31.879 136.917 32.6455 136.917 33.5438Z" fill="#282829"/>
<path d="M149.852 30.4054C149.692 30.3011 149.519 30.2664 149.333 30.3011C149.147 30.3388 149.001 30.4373 148.896 30.5967L147.382 32.857H145.858V30.9749C145.858 30.7865 145.791 30.6257 145.657 30.4924C145.524 30.3562 145.362 30.2881 145.173 30.2881C144.981 30.2881 144.818 30.3562 144.684 30.4924C144.55 30.6257 144.483 30.7865 144.483 30.9749V36.1084C144.483 36.2997 144.55 36.462 144.684 36.5953C144.818 36.7286 144.981 36.7952 145.173 36.7952C145.362 36.7952 145.524 36.7286 145.657 36.5953C145.791 36.462 145.858 36.2997 145.858 36.1084V34.2263H147.382L148.896 36.4909C149.033 36.6938 149.224 36.7952 149.468 36.7952C149.608 36.7952 149.736 36.7575 149.852 36.6822C150.009 36.575 150.107 36.4286 150.145 36.2432C150.18 36.0577 150.145 35.8867 150.04 35.7302L148.578 33.5438L150.04 31.353C150.145 31.1966 150.18 31.0256 150.145 30.8401C150.107 30.6547 150.009 30.5098 149.852 30.4054Z" fill="#282829"/>
<path d="M156.169 36.7952C156.359 36.7952 156.522 36.7286 156.658 36.5953C156.792 36.462 156.859 36.2997 156.859 36.1084C156.859 35.9201 156.792 35.7592 156.658 35.6259C156.522 35.4926 156.359 35.426 156.169 35.426H152.559V34.2263H155.309C155.499 34.2263 155.662 34.1596 155.798 34.0263C155.932 33.893 155.999 33.7322 155.999 33.5438C155.999 33.3526 155.932 33.1903 155.798 33.057C155.662 32.9237 155.499 32.857 155.309 32.857H152.559V31.6573H156.169C156.359 31.6573 156.522 31.5907 156.658 31.4574C156.792 31.3241 156.859 31.1632 156.859 30.9749C156.859 30.7865 156.792 30.6257 156.658 30.4924C156.522 30.3562 156.359 30.2881 156.169 30.2881H151.874C151.682 30.2881 151.519 30.3562 151.385 30.4924C151.251 30.6257 151.184 30.7865 151.184 30.9749V36.1084C151.184 36.2997 151.251 36.462 151.385 36.5953C151.519 36.7286 151.682 36.7952 151.874 36.7952H156.169Z" fill="#282829"/>
<path d="M162.185 32.6875C162.185 32.9686 162.083 33.2106 161.88 33.4134C161.679 33.6134 161.436 33.7133 161.151 33.7133H159.261V31.6573H161.151C161.436 31.6573 161.679 31.7587 161.88 31.9616C162.083 32.1615 162.185 32.4035 162.185 32.6875ZM158.575 36.7952C158.764 36.7952 158.926 36.7286 159.06 36.5953C159.194 36.462 159.261 36.2997 159.261 36.1084V35.0826H161.151C161.814 35.0826 162.382 34.8479 162.853 34.3784C163.325 33.9118 163.56 33.3482 163.56 32.6875C163.56 32.0268 163.325 31.4617 162.853 30.9923C162.382 30.5228 161.814 30.2881 161.151 30.2881H158.575C158.383 30.2881 158.22 30.3562 158.086 30.4924C157.953 30.6257 157.886 30.7865 157.886 30.9749V36.1084C157.886 36.2997 157.953 36.462 158.086 36.5953C158.22 36.7286 158.383 36.7952 158.575 36.7952Z" fill="#282829"/>
</svg>
