<svg width="229" height="56" viewBox="0 0 229 56" fill="none" xmlns="http://www.w3.org/2000/svg">
<path d="M78.723 33.7054C79.2313 35.0778 78.5258 36.6007 77.1477 37.1068C75.7695 37.6128 74.2402 36.9104 73.732 35.538C71.9791 30.7684 71.697 25.7036 72.7555 20.9296C73.8148 16.1519 76.2093 11.6777 79.8087 8.09339C84.9293 2.99434 91.6411 0.444824 98.3528 0.444824C105.065 0.444824 111.776 2.99434 116.897 8.09339C122.017 13.1924 124.578 19.8759 124.578 26.5594C124.578 33.2428 122.017 39.9263 116.897 45.0254C113.174 48.7327 108.511 51.1507 103.555 52.1493C98.6081 53.1462 93.3674 52.7203 88.4794 50.7416C87.1215 50.191 86.4688 48.6484 87.0218 47.2963C87.5748 45.9441 89.1238 45.2942 90.4817 45.8448C94.3687 47.4184 98.5453 47.7551 102.495 46.9593C106.437 46.1651 110.153 44.2348 113.128 41.2722C117.208 37.2092 119.248 31.8841 119.248 26.5594C119.248 21.2346 117.208 15.9095 113.128 11.8466C109.048 7.78366 103.7 5.75213 98.3528 5.75213C93.0055 5.75213 87.6579 7.78366 83.5778 11.8466C80.6925 14.7197 78.7781 18.2836 77.9379 22.0731C77.0969 25.8663 77.3242 29.899 78.723 33.7054H78.723Z" fill="#ED3237"/>
<path d="M87.6 26.5589C87.6 28.0244 86.4069 29.2125 84.9351 29.2125C83.4634 29.2125 82.2703 28.0244 82.2703 26.5589C82.2703 24.4498 82.6976 22.3673 83.5054 20.4255C84.3097 18.4919 85.4842 16.7232 86.9816 15.232C90.1225 12.1044 94.2394 10.5405 98.3563 10.5405C102.473 10.5405 106.59 12.1044 109.731 15.232C112.872 18.3596 114.442 22.4592 114.442 26.5589C114.442 30.6583 112.872 34.7581 109.731 37.8857C108.234 39.3768 106.457 40.5463 104.516 41.3472C102.566 42.1516 100.474 42.5772 98.3563 42.5772C96.8846 42.5772 95.6915 41.3891 95.6915 39.9235C95.6915 38.458 96.8846 37.2699 98.3563 37.2699C99.7975 37.2699 101.193 36.9914 102.469 36.4652C103.753 35.9355 104.943 35.1477 105.962 34.1325C108.062 32.041 109.113 29.2997 109.113 26.5589C109.113 23.818 108.062 21.0767 105.962 18.9852C103.862 16.8937 101.109 15.8478 98.3563 15.8478C95.6039 15.8478 92.851 16.8937 90.7507 18.9852C89.7312 20.0004 88.9401 21.1847 88.4081 22.4634C87.8797 23.7338 87.6 25.1238 87.6 26.5589V26.5589Z" fill="#ED3237"/>
<path fill-rule="evenodd" clip-rule="evenodd" d="M101.168 23.5804C103.064 25.476 103.51 28.1244 101.407 30.211L99.105 32.4945L99.4251 33.6928C99.5244 34.0648 99.3002 34.4501 98.9267 34.549L98.9266 34.5491C98.553 34.648 98.1661 34.4246 98.0668 34.0527L97.9552 33.6353L90.5099 41.0222C88.4067 43.1086 86.2449 42.163 84.3484 40.2674C82.4518 38.3718 81.5099 36.2157 83.6131 34.129L91.0585 26.7423L90.6399 26.6298C90.2666 26.5294 90.0436 26.1432 90.1443 25.7717H90.1445C90.2453 25.3999 90.6329 25.1781 91.006 25.2783L92.2083 25.6014L94.51 23.3179C96.6131 21.2313 99.271 21.6848 101.168 23.5804L101.168 23.5804ZM75.2287 50.3557L82.9164 42.756C83.3797 42.2978 84.1337 42.2962 84.5954 42.756C85.0572 43.2158 85.0587 43.97 84.5954 44.428L76.9076 52.0277C76.4444 52.4857 75.6905 52.4875 75.2287 52.0277C74.7668 51.5679 74.7652 50.8139 75.2287 50.3557ZM66.6366 53.1668L77.6096 42.24C78.0714 41.78 78.8269 41.78 79.2887 42.24C79.7504 42.6998 79.7504 43.452 79.2887 43.9119L68.3157 54.8388C67.8539 55.2986 67.0984 55.2986 66.6366 54.8388C66.1748 54.379 66.1748 53.6266 66.6366 53.1668V53.1668ZM91.0256 28.7318C92.4093 29.5438 94.8965 31.9858 95.9306 33.6679C96.8776 33.0961 98.7588 32.3463 98.6923 31.2038C98.6279 30.0952 97.7185 28.9342 96.7425 27.9561C95.7821 26.9936 94.6065 26.0362 93.4892 25.988C92.4214 25.9417 91.6145 27.7399 91.0255 28.7318H91.0256Z" fill="#282829"/>
<path d="M13.0321 19.7029L16.1097 25.8322H9.95449L13.0321 19.7029ZM2.21132 35.5152C2.84431 35.8304 3.49912 35.8739 4.17576 35.6456C4.85241 35.4283 5.34897 34.999 5.66547 34.3578L7.36798 30.9671H18.6799L20.3988 34.3578C20.617 34.8034 20.939 35.1566 21.3646 35.4174C21.7793 35.6674 22.2268 35.7924 22.707 35.7924C23.1108 35.7924 23.4928 35.7 23.8529 35.5152C24.4859 35.2001 24.917 34.7056 25.1462 34.0318C25.3753 33.358 25.3262 32.706 24.9988 32.0756L15.3403 12.8074C15.1221 12.3727 14.8056 12.0249 14.3909 11.7641C13.9761 11.5141 13.5232 11.3892 13.0321 11.3892C12.541 11.3892 12.0881 11.5141 11.6734 11.7641C11.2587 12.0249 10.9422 12.3727 10.7239 12.8074L1.04903 32.0756C0.732538 32.706 0.688883 33.358 0.918068 34.0318C1.13634 34.7056 1.56742 35.2001 2.21132 35.5152Z" fill="#282829"/>
<path d="M32.9469 26.1577H41.6559C42.278 26.1577 42.8073 26.3805 43.2439 26.8261C43.6913 27.2608 43.915 27.7879 43.915 28.4073C43.915 29.0268 43.6913 29.5593 43.2439 30.0049C42.8073 30.4396 42.278 30.6569 41.6559 30.6569H32.9469V26.1577ZM32.9469 16.5236H38.431C39.0531 16.5236 39.5824 16.7464 40.0189 17.192C40.4664 17.6267 40.6901 18.1538 40.6901 18.7732C40.6901 19.3927 40.4664 19.9252 40.0189 20.3707C39.5824 20.8054 39.0531 21.0228 38.431 21.0228H32.9469V16.5236ZM41.6559 35.7919C43.6968 35.7919 45.4429 35.0692 46.8944 33.6238C48.3459 32.1784 49.0717 30.4396 49.0717 28.4073C49.0717 27.0271 48.7061 25.7448 47.9749 24.5602C47.2764 23.4191 46.3324 22.5334 45.1428 21.9031C45.6121 20.9141 45.8467 19.8708 45.8467 18.7732C45.8467 16.741 45.121 15.0021 43.6695 13.5568C42.218 12.1114 40.4718 11.3887 38.431 11.3887H30.3768C29.6565 11.3887 29.0453 11.6441 28.5433 12.1548C28.0413 12.6547 27.7903 13.2579 27.7903 13.9643V33.2162C27.7903 33.9335 28.0413 34.5421 28.5433 35.042C29.0453 35.5419 29.6565 35.7919 30.3768 35.7919H41.6559Z" fill="#282829"/>
<path d="M56.0408 16.5236V33.2162C56.0408 33.9335 56.2918 34.5421 56.7938 35.042C57.3067 35.5419 57.9179 35.7919 58.6273 35.7919C59.3367 35.7919 59.9424 35.5419 60.4444 35.042C60.9464 34.5421 61.1974 33.9335 61.1974 33.2162V16.5236H66.6815C67.3908 16.5236 68.002 16.2737 68.5149 15.7737C69.017 15.2738 69.268 14.6707 69.268 13.9643C69.268 13.2579 69.017 12.6547 68.5149 12.1548C68.002 11.6441 67.3908 11.3887 66.6815 11.3887H50.5731C49.8528 11.3887 49.2416 11.6441 48.7396 12.1548C48.2376 12.6547 47.9866 13.2579 47.9866 13.9643C47.9866 14.6707 48.2376 15.2738 48.7396 15.7737C49.2416 16.2737 49.8528 16.5236 50.5731 16.5236H56.0408Z" fill="#282829"/>
<path d="M151.385 14.0107C151.385 13.3088 151.136 12.7096 150.637 12.2129C150.127 11.7054 149.52 11.4517 148.815 11.4517C148.111 11.4517 147.509 11.7054 147.01 12.2129C146.511 12.7096 146.262 13.3088 146.262 14.0107V30.5957H135.364V14.0107C135.364 13.3088 135.115 12.7096 134.616 12.2129C134.117 11.7054 133.516 11.4517 132.811 11.4517C132.095 11.4517 131.488 11.7054 130.989 12.2129C130.49 12.7096 130.241 13.3088 130.241 14.0107V33.1547C130.241 33.8566 130.49 34.4558 130.989 34.9525C131.488 35.4492 132.095 35.6975 132.811 35.6975H147.856V36.3292C147.856 37.0418 148.105 37.6465 148.604 38.1432C149.103 38.6399 149.71 38.8882 150.426 38.8882C151.13 38.8882 151.732 38.6399 152.231 38.1432C152.73 37.6465 152.979 37.0418 152.979 36.3292V33.1547C152.979 32.6256 152.833 32.1452 152.54 31.7133C152.247 31.2814 151.862 30.9736 151.385 30.7901V14.0107Z" fill="#282829"/>
<path d="M175.087 35.7137C175.792 35.7137 176.399 35.4654 176.908 34.9687C177.407 34.472 177.657 33.8674 177.657 33.1547C177.657 32.4529 177.407 31.8536 176.908 31.3569C176.399 30.8602 175.792 30.6119 175.087 30.6119H161.636V26.1417H171.883C172.587 26.1417 173.195 25.8934 173.704 25.3967C174.203 24.9 174.453 24.3007 174.453 23.5989C174.453 22.8863 174.203 22.2816 173.704 21.7849C173.195 21.2882 172.587 21.0399 171.883 21.0399H161.636V16.5697H175.087C175.792 16.5697 176.399 16.3214 176.908 15.8247C177.407 15.328 177.657 14.7287 177.657 14.0269C177.657 13.325 177.407 12.7258 176.908 12.2291C176.399 11.7216 175.792 11.4679 175.087 11.4679H159.082C158.367 11.4679 157.759 11.7216 157.261 12.2291C156.762 12.7258 156.512 13.325 156.512 14.0269V33.1547C156.512 33.8674 156.762 34.472 157.261 34.9687C157.759 35.4654 158.367 35.7137 159.082 35.7137H175.087Z" fill="#282829"/>
<path d="M199.047 34.2885C199.362 34.9147 199.855 35.3412 200.528 35.568C201.2 35.7839 201.85 35.7353 202.479 35.4222C203.108 35.1091 203.537 34.6178 203.764 33.9483C203.992 33.2789 203.943 32.631 203.618 32.0048L194.022 12.8769C193.805 12.445 193.49 12.1049 193.078 11.8566C192.666 11.5974 192.216 11.4679 191.728 11.4679C191.24 11.4679 190.79 11.5974 190.378 11.8566C189.966 12.1049 189.652 12.445 189.435 12.8769L179.822 32.021C179.508 32.6472 179.465 33.2951 179.692 33.9645C179.909 34.634 180.337 35.1253 180.977 35.4384C181.335 35.622 181.715 35.7137 182.116 35.7137C182.593 35.7137 183.037 35.5896 183.449 35.3412C183.872 35.0929 184.192 34.7474 184.409 34.3047L191.728 19.728L199.047 34.2885Z" fill="#282829"/>
<path d="M212.209 30.6119V22.951H219.252C220.314 22.951 221.22 23.329 221.968 24.0848C222.727 24.8298 223.107 25.7314 223.107 26.7896C223.107 27.8369 222.727 28.7385 221.968 29.4944C221.22 30.2394 220.314 30.6119 219.252 30.6119H212.209ZM212.209 17.8492V14.0269C212.209 13.325 211.96 12.7258 211.461 12.2291C210.962 11.7216 210.36 11.4679 209.656 11.4679C208.94 11.4679 208.333 11.7216 207.834 12.2291C207.335 12.7258 207.086 13.325 207.086 14.0269V33.1547C207.086 33.8674 207.335 34.472 207.834 34.9687C208.333 35.4654 208.94 35.7137 209.656 35.7137H219.252C221.724 35.7137 223.839 34.8391 225.595 33.0899C227.352 31.3515 228.23 29.2514 228.23 26.7896C228.23 24.3277 227.352 22.2222 225.595 20.473C223.839 18.7238 221.724 17.8492 219.252 17.8492H212.209Z" fill="#282829"/>
<path d="M136.283 44.3184L137.406 46.555H135.16L136.283 44.3184ZM132.335 50.0884C132.566 50.2034 132.805 50.2192 133.051 50.1359C133.298 50.0566 133.48 49.9 133.595 49.666L134.216 48.4287H138.344L138.971 49.666C139.051 49.8286 139.168 49.9575 139.324 50.0527C139.475 50.1439 139.638 50.1895 139.814 50.1895C139.961 50.1895 140.1 50.1558 140.232 50.0884C140.463 49.9734 140.62 49.7929 140.704 49.5471C140.787 49.3012 140.769 49.0632 140.65 48.8332L137.125 41.8022C137.046 41.6436 136.93 41.5167 136.779 41.4215C136.628 41.3303 136.462 41.2847 136.283 41.2847C136.104 41.2847 135.939 41.3303 135.787 41.4215C135.636 41.5167 135.521 41.6436 135.441 41.8022L131.911 48.8332C131.795 49.0632 131.779 49.3012 131.863 49.5471C131.942 49.7929 132.1 49.9734 132.335 50.0884Z" fill="#282829"/>
<path d="M143.805 46.674H146.983C147.21 46.674 147.403 46.7553 147.563 46.9178C147.726 47.0765 147.808 47.2688 147.808 47.4948C147.808 47.7209 147.726 47.9152 147.563 48.0778C147.403 48.2364 147.21 48.3157 146.983 48.3157H143.805V46.674ZM143.805 43.1584H145.806C146.033 43.1584 146.227 43.2397 146.386 43.4023C146.549 43.5609 146.631 43.7533 146.631 43.9793C146.631 44.2054 146.549 44.3997 146.386 44.5623C146.227 44.7209 146.033 44.8002 145.806 44.8002H143.805V43.1584ZM146.983 50.1895C147.728 50.1895 148.365 49.9258 148.895 49.3983C149.424 48.8709 149.689 48.2364 149.689 47.4948C149.689 46.9912 149.556 46.5233 149.289 46.091C149.034 45.6746 148.69 45.3514 148.256 45.1214C148.427 44.7605 148.512 44.3798 148.512 43.9793C148.512 43.2377 148.248 42.6032 147.718 42.0758C147.188 41.5484 146.551 41.2847 145.806 41.2847H142.867C142.605 41.2847 142.382 41.3779 142.198 41.5642C142.015 41.7467 141.924 41.9668 141.924 42.2245V49.2496C141.924 49.5114 142.015 49.7334 142.198 49.9159C142.382 50.0983 142.605 50.1895 142.867 50.1895H146.983Z" fill="#282829"/>
<path d="M153.322 43.1584V49.2496C153.322 49.5114 153.414 49.7334 153.597 49.9159C153.784 50.0983 154.007 50.1895 154.266 50.1895C154.525 50.1895 154.746 50.0983 154.929 49.9159C155.112 49.7334 155.204 49.5114 155.204 49.2496V43.1584H157.205C157.464 43.1584 157.687 43.0672 157.874 42.8848C158.057 42.7024 158.149 42.4823 158.149 42.2245C158.149 41.9668 158.057 41.7467 157.874 41.5642C157.687 41.3779 157.464 41.2847 157.205 41.2847H151.327C151.064 41.2847 150.841 41.3779 150.658 41.5642C150.475 41.7467 150.383 41.9668 150.383 42.2245C150.383 42.4823 150.475 42.7024 150.658 42.8848C150.841 43.0672 151.064 43.1584 151.327 43.1584H153.322Z" fill="#282829"/>
<path d="M165.92 45.7401C165.92 46.4499 165.667 47.0566 165.161 47.5603C164.651 48.0639 164.04 48.3157 163.327 48.3157C162.614 48.3157 162.005 48.0639 161.499 47.5603C160.994 47.0566 160.741 46.4499 160.741 45.7401C160.741 45.0302 160.994 44.4235 161.499 43.9198C162.005 43.4122 162.614 43.1584 163.327 43.1584C164.04 43.1584 164.651 43.4122 165.161 43.9198C165.667 44.4235 165.92 45.0302 165.92 45.7401ZM158.859 45.7401C158.859 46.9654 159.295 48.0143 160.167 48.8868C161.043 49.7552 162.097 50.1895 163.327 50.1895C164.562 50.1895 165.615 49.7552 166.487 48.8868C167.364 48.0143 167.802 46.9654 167.802 45.7401C167.802 44.5107 167.364 43.4618 166.487 42.5933C165.615 41.7209 164.562 41.2847 163.327 41.2847C162.097 41.2847 161.043 41.7209 160.167 42.5933C159.295 43.4618 158.859 44.5107 158.859 45.7401Z" fill="#282829"/>
<path d="M174.273 46.674C174.5 46.674 174.693 46.7553 174.852 46.9178C175.015 47.0765 175.097 47.2688 175.097 47.4948C175.097 47.7209 175.015 47.9152 174.852 48.0778C174.693 48.2364 174.5 48.3157 174.273 48.3157H171.095V46.674H174.273ZM174.858 43.1584C175.117 43.1584 175.34 43.0672 175.527 42.8848C175.71 42.7024 175.802 42.4823 175.802 42.2245C175.802 41.9668 175.71 41.7467 175.527 41.5642C175.34 41.3779 175.117 41.2847 174.858 41.2847H170.157C169.894 41.2847 169.671 41.3779 169.488 41.5642C169.305 41.7467 169.213 41.9668 169.213 42.2245V49.2496C169.213 49.5114 169.305 49.7334 169.488 49.9159C169.671 50.0983 169.894 50.1895 170.157 50.1895H174.273C175.017 50.1895 175.655 49.9258 176.184 49.3983C176.714 48.8709 176.979 48.2364 176.979 47.4948C176.979 46.7533 176.714 46.1188 176.184 45.5913C175.655 45.0639 175.017 44.8002 174.273 44.8002H171.095V43.1584H174.858Z" fill="#282829"/>
<path d="M184.267 44.5682C184.267 44.9529 184.128 45.284 183.849 45.5616C183.575 45.8352 183.242 45.972 182.852 45.972H180.265V43.1584H182.852C183.242 43.1584 183.575 43.2972 183.849 43.5748C184.128 43.8484 184.267 44.1796 184.267 44.5682ZM179.327 50.1895C179.586 50.1895 179.807 50.0983 179.99 49.9159C180.174 49.7334 180.265 49.5114 180.265 49.2496V47.8458H182.852C183.76 47.8458 184.536 47.5246 185.181 46.8822C185.827 46.2437 186.149 45.4724 186.149 44.5682C186.149 43.664 185.827 42.8907 185.181 42.2483C184.536 41.6059 183.76 41.2847 182.852 41.2847H179.327C179.064 41.2847 178.841 41.3779 178.658 41.5642C178.475 41.7467 178.384 41.9668 178.384 42.2245V49.2496C178.384 49.5114 178.475 49.7334 178.658 49.9159C178.841 50.0983 179.064 50.1895 179.327 50.1895Z" fill="#282829"/>
<path d="M194.143 45.7401C194.143 46.4499 193.89 47.0566 193.384 47.5603C192.874 48.0639 192.263 48.3157 191.55 48.3157C190.837 48.3157 190.228 48.0639 189.722 47.5603C189.217 47.0566 188.964 46.4499 188.964 45.7401C188.964 45.0302 189.217 44.4235 189.722 43.9198C190.228 43.4122 190.837 43.1584 191.55 43.1584C192.263 43.1584 192.874 43.4122 193.384 43.9198C193.89 44.4235 194.143 45.0302 194.143 45.7401ZM187.082 45.7401C187.082 46.9654 187.518 48.0143 188.39 48.8868C189.266 49.7552 190.32 50.1895 191.55 50.1895C192.785 50.1895 193.838 49.7552 194.71 48.8868C195.586 48.0143 196.024 46.9654 196.024 45.7401C196.024 44.5107 195.586 43.4618 194.71 42.5933C193.838 41.7209 192.785 41.2847 191.55 41.2847C190.32 41.2847 189.266 41.7209 188.39 42.5933C187.518 43.4618 187.082 44.5107 187.082 45.7401Z" fill="#282829"/>
<path d="M204.784 41.4453C204.564 41.3025 204.328 41.2549 204.073 41.3025C203.818 41.3541 203.619 41.4889 203.475 41.707L201.402 44.8002H199.318V42.2245C199.318 41.9668 199.226 41.7467 199.043 41.5642C198.86 41.3779 198.639 41.2847 198.38 41.2847C198.117 41.2847 197.894 41.3779 197.711 41.5642C197.528 41.7467 197.436 41.9668 197.436 42.2245V49.2496C197.436 49.5114 197.528 49.7334 197.711 49.9159C197.894 50.0983 198.117 50.1895 198.38 50.1895C198.639 50.1895 198.86 50.0983 199.043 49.9159C199.226 49.7334 199.318 49.5114 199.318 49.2496V46.674H201.402L203.475 49.7731C203.662 50.0507 203.923 50.1895 204.258 50.1895C204.449 50.1895 204.624 50.1379 204.784 50.0348C204.999 49.8881 205.132 49.6878 205.184 49.434C205.232 49.1802 205.184 48.9463 205.04 48.7321L203.039 45.7401L205.04 42.742C205.184 42.5279 205.232 42.2939 205.184 42.0401C205.132 41.7863 204.999 41.588 204.784 41.4453Z" fill="#282829"/>
<path d="M213.428 50.1895C213.687 50.1895 213.91 50.0983 214.097 49.9159C214.28 49.7334 214.372 49.5114 214.372 49.2496C214.372 48.9919 214.28 48.7718 214.097 48.5894C213.91 48.4069 213.687 48.3157 213.428 48.3157H208.488V46.674H212.251C212.51 46.674 212.733 46.5827 212.92 46.4003C213.104 46.2179 213.195 45.9978 213.195 45.7401C213.195 45.4783 213.104 45.2562 212.92 45.0738C212.733 44.8914 212.51 44.8002 212.251 44.8002H208.488V43.1584H213.428C213.687 43.1584 213.91 43.0672 214.097 42.8848C214.28 42.7024 214.372 42.4823 214.372 42.2245C214.372 41.9668 214.28 41.7467 214.097 41.5642C213.91 41.3779 213.687 41.2847 213.428 41.2847H207.55C207.287 41.2847 207.064 41.3779 206.881 41.5642C206.698 41.7467 206.606 41.9668 206.606 42.2245V49.2496C206.606 49.5114 206.698 49.7334 206.881 49.9159C207.064 50.0983 207.287 50.1895 207.55 50.1895H213.428Z" fill="#282829"/>
<path d="M221.661 44.5682C221.661 44.9529 221.521 45.284 221.243 45.5616C220.968 45.8352 220.635 45.972 220.245 45.972H217.658V43.1584H220.245C220.635 43.1584 220.968 43.2972 221.243 43.5748C221.521 43.8484 221.661 44.1796 221.661 44.5682ZM216.721 50.1895C216.979 50.1895 217.201 50.0983 217.384 49.9159C217.567 49.7334 217.658 49.5114 217.658 49.2496V47.8458H220.245C221.153 47.8458 221.93 47.5246 222.575 46.8822C223.22 46.2437 223.542 45.4724 223.542 44.5682C223.542 43.664 223.22 42.8907 222.575 42.2483C221.93 41.6059 221.153 41.2847 220.245 41.2847H216.721C216.458 41.2847 216.235 41.3779 216.052 41.5642C215.868 41.7467 215.777 41.9668 215.777 42.2245V49.2496C215.777 49.5114 215.868 49.7334 216.052 49.9159C216.235 50.0983 216.458 50.1895 216.721 50.1895Z" fill="#282829"/>
</svg>
