<svg xmlns="http://www.w3.org/2000/svg" xmlns:xlink="http://www.w3.org/1999/xlink"><symbol id="icon-close" viewBox="0 0 31 30">
<line x1="2.83267" y1="1.50424" x2="28.9956" y2="27.6672" stroke="white" stroke-width="4"/>
<line x1="2.00424" y1="27.6673" x2="28.1672" y2="1.50438" stroke="white" stroke-width="4"/>
</symbol><symbol id="icon-manager" viewBox="0 0 64 61">
<path d="M13.1739 55.1056C13.4226 52.929 13.6714 50.8144 13.9823 48.7622C14.0445 48.0781 14.0445 47.4561 13.547 46.9586C13.4226 46.8344 13.3604 46.7721 13.2982 46.6476C12.552 45.0308 11.246 44.5333 9.56682 44.5333C7.88768 44.5333 6.14635 44.2844 4.46722 44.0979C3.65873 44.0357 3.34779 43.7869 3.16122 42.9163C2.41493 39.7445 1.73084 36.4486 1.10893 33.2146C0.860172 32.0329 0.984553 31.8464 2.04179 31.2867C3.96969 30.3538 5.8354 29.421 7.7633 28.426C8.01206 28.3016 8.26082 27.9285 8.3852 27.6175C8.63396 26.6224 8.82053 25.5652 8.94492 24.5702C9.00711 24.2592 8.88273 23.8238 8.69616 23.5751C7.39016 21.7716 6.02197 19.968 4.65379 18.1645C4.09406 17.4183 4.09406 17.1696 4.65379 16.4232C6.95482 13.5625 9.25586 10.7017 11.5569 7.77875C11.9922 7.28123 12.4276 7.21903 13.0495 7.4678C15.2261 8.33846 17.4028 9.20913 19.5794 10.0798C20.0148 10.2664 20.3879 10.2042 20.8233 10.0176C22.7512 9.3335 23.7462 8.0897 24.0572 6.0996C24.3059 4.73143 24.8034 3.42543 25.2388 2.11943C25.4254 1.18657 25.6742 1 26.6691 1C30.2141 1 33.7589 1 37.3037 1C38.2365 1 38.4853 1.18657 38.7963 2.11943C39.4183 4.10952 39.9779 6.1618 40.5999 8.15189C40.7241 8.46284 40.973 8.83599 41.284 9.02256C41.9057 9.3957 42.5898 9.70665 43.2118 10.0798C43.6472 10.3286 43.9581 10.3286 44.3934 10.142C46.5079 9.27132 48.6846 8.40066 50.8612 7.52999C51.7319 7.15684 51.9807 7.28123 52.6025 8.0275C54.7792 10.7639 57.0181 13.5003 59.1948 16.2366C60.0031 17.2317 60.0031 17.4183 59.2569 18.4133C57.9509 20.0924 56.7071 21.8337 55.4011 23.5129C55.0901 23.8861 55.028 24.2592 55.0901 24.6945C55.2767 25.6895 55.4011 26.6846 55.6498 27.6796C55.7121 27.9906 55.9608 28.3016 56.2096 28.426C58.1374 29.421 60.0654 30.4161 62.0555 31.3489C62.9883 31.8464 63.1127 32.0952 62.9262 33.0903C62.2421 36.3241 61.558 39.558 60.9361 42.7918C60.7495 43.7869 60.4385 44.0357 59.4435 44.0979C57.2047 44.2844 54.9657 44.471 52.7269 44.7198C52.416 44.782 52.0428 45.0308 51.794 45.2795C51.4209 45.6526 51.2343 46.1501 50.8612 46.5234C50.1149 47.3317 49.9283 48.2025 50.1149 49.3218C50.4258 51.001 50.5503 52.7424 50.799 54.4837C50.9234 55.6031 50.8612 55.7897 49.8041 56.2872C46.8189 57.7175 43.8959 59.148 40.9107 60.5161C39.8535 61.0137 39.6669 60.9515 38.8584 60.143C37.4903 58.7126 36.1221 57.2201 34.754 55.7897C34.5051 55.541 34.0699 55.3543 33.7589 55.3543C32.7016 55.2922 31.5822 55.2922 30.4628 55.3543C30.0897 55.3543 29.7165 55.541 29.4677 55.7897C28.0374 57.2823 26.607 58.7749 25.1767 60.2674C24.6791 60.8271 24.1193 60.8892 23.4352 60.5784C20.3258 59.0858 17.2162 57.5933 14.1067 56.1007C13.4848 55.9141 13.1739 55.6031 13.1739 55.1056ZM36.9306 3.17666C36.8062 3.17666 36.8062 3.11447 36.7441 3.11447C33.6345 3.11447 30.5872 3.11447 27.4776 3.11447C27.0424 3.11447 26.9801 3.36323 26.9179 3.67419C26.3583 5.60209 25.7985 7.52999 25.1767 9.45789C25.0522 9.89322 24.6791 10.3286 24.3059 10.5773C23.2487 11.1992 22.1292 11.7589 21.072 12.3187C20.5745 12.6296 20.077 12.6296 19.455 12.3808C17.4028 11.5102 15.3505 10.7639 13.2982 9.89322C12.8629 9.70665 12.6763 9.76883 12.3654 10.142C10.5619 12.3808 8.75835 14.6819 6.89263 16.9207C6.58169 17.2938 6.58169 17.4804 6.89263 17.8536C8.13645 19.4705 9.38025 21.1496 10.6241 22.7666C11.0594 23.2642 11.1216 23.8238 10.9972 24.4458C10.7484 25.8761 10.4375 27.2444 10.2509 28.6747C10.1265 29.3588 9.81559 29.7319 9.25586 30.0428C7.45235 30.9136 5.58663 31.9085 3.78312 32.7793C3.28559 33.028 3.16122 33.2768 3.28559 33.7744C3.84532 36.3863 4.40502 38.9983 4.90255 41.6102C4.96473 42.0456 5.1513 42.1701 5.58663 42.2322C7.7633 42.4187 9.93996 42.6053 12.1166 42.7918C12.7385 42.8541 13.1739 43.0407 13.547 43.5382C14.2933 44.5954 15.1018 45.5905 15.7859 46.6476C16.0346 47.0209 16.159 47.5806 16.0968 48.016C15.9102 49.9438 15.6615 51.8095 15.4127 53.7375C15.3505 54.2971 15.4749 54.6702 16.0346 54.9191C18.3978 56.0384 20.7611 57.1579 23.1243 58.2773C23.6841 58.5883 23.9949 58.4639 24.4303 58.0285C25.6742 56.6603 26.9801 55.3543 28.224 53.9861C28.6592 53.4886 29.1567 53.3021 29.8408 53.3021C31.2713 53.3021 32.7638 53.3021 34.1941 53.3021C34.8161 53.3021 35.2515 53.4886 35.6867 53.924C37.0549 55.3543 38.4232 56.7847 39.7914 58.215C40.1023 58.526 40.2889 58.5883 40.662 58.4018C43.1496 57.1579 45.6994 55.9762 48.187 54.7946C48.5602 54.6081 48.6223 54.4215 48.5602 54.0484C48.3115 52.1204 48.0626 50.2548 47.8761 48.3268C47.8139 47.8293 47.8761 47.2075 48.1249 46.8344C48.809 45.7149 49.6796 44.6577 50.4881 43.5382C50.799 43.0407 51.2343 42.8541 51.8563 42.7918C54.033 42.6053 56.1473 42.4187 58.324 42.2322C58.7594 42.1701 59.0081 42.0456 59.1325 41.6102C59.6923 38.936 60.252 36.2619 60.7495 33.5877C60.8116 33.4011 60.6251 33.028 60.4385 32.9659C58.5106 31.9708 56.5827 30.9758 54.6548 30.1051C54.1574 29.8563 53.8464 29.5453 53.7841 28.9857C53.5354 27.4309 53.2245 25.8761 53.0379 24.3214C52.9756 23.8861 53.1 23.3263 53.3489 23.0153C54.4682 21.4606 55.6498 19.968 56.7693 18.4754C57.0181 18.1645 57.2668 17.7914 57.5156 17.4804C55.5255 14.9928 53.5354 12.5674 51.6075 10.142C51.3588 9.83103 51.1099 9.89322 50.8612 10.0176C48.809 10.8261 46.6945 11.6346 44.6422 12.5052C44.0203 12.754 43.5227 12.754 42.9008 12.3808C41.968 11.8211 40.973 11.3236 39.9779 10.8883C39.2938 10.5773 38.9207 10.142 38.734 9.3957C38.1744 7.21903 37.5524 5.16676 36.9306 3.17666Z" fill="#383838" stroke="#383838" stroke-width="0.3"/>
<path d="M32.0162 25.0048C32.3271 24.3208 32.7004 23.7611 32.8869 23.2014C33.0735 22.7039 33.4466 22.4551 34.0063 22.4551C34.7526 22.4551 35.4989 22.4551 36.2452 22.4551C38.3596 22.5795 40.101 24.3208 40.1632 26.4353C40.2253 29.3582 40.2253 32.2812 40.1632 35.2041C40.1632 37.5673 39.106 38.5624 36.6183 38.5002C36.6183 38.7489 36.5562 38.9978 36.5562 39.3087C36.5562 41.6097 36.5562 43.8486 36.5562 46.1495C36.5562 47.891 35.8098 48.886 34.3795 49.2591C33.6332 49.4457 32.9491 49.2591 32.3271 48.9482C32.1406 48.886 31.8296 48.8237 31.6431 48.9482C29.9018 50.0676 27.2897 48.7616 27.2897 46.3362C27.2897 44.0352 27.2897 41.6719 27.2897 39.3709C27.2897 39.1222 27.2897 38.8112 27.2897 38.5624C26.7922 38.5002 26.357 38.5624 25.9216 38.4379C24.6778 38.1271 23.807 37.0698 23.7449 35.7016C23.7449 32.5299 23.6828 29.4205 23.7449 26.2487C23.7449 24.3831 25.5485 22.6416 27.4763 22.5172C28.2848 22.4551 29.0933 22.5172 29.9018 22.4551C30.3993 22.4551 30.7724 22.7039 31.0213 23.1392C31.3321 23.6988 31.6431 24.3208 32.0162 25.0048ZM29.4664 37.8161C29.4043 37.8161 29.4043 37.8161 29.4664 37.8161C29.4043 40.5525 29.4043 43.2888 29.4043 46.0253C29.4043 46.8338 29.6529 47.269 30.2128 47.2069C30.959 47.1446 30.8968 46.5849 30.8968 46.0874C30.8968 43.4132 30.8968 40.739 30.8968 38.0648C30.8968 37.0076 31.2699 36.448 32.0162 36.448C32.7625 36.448 33.0735 36.9455 33.0735 38.0648C33.0735 40.8013 33.0735 43.5998 33.0735 46.3362C33.0735 46.8338 33.1979 47.1446 33.7576 47.2069C34.2551 47.2069 34.5038 46.8959 34.5038 46.3984C34.5038 45.963 34.5038 45.5899 34.5038 45.1546C34.5038 39.9928 34.4417 34.831 34.4417 29.6691C34.4417 28.7364 34.8771 28.1144 35.6233 28.1766C36.2452 28.1766 36.6805 28.7985 36.6805 29.7314C36.6805 29.8557 36.6805 29.9801 36.6805 30.1045C36.6805 31.9702 36.6805 33.8359 36.6805 35.6395C36.6805 36.137 36.867 36.448 37.3645 36.448C37.8621 36.448 38.1109 36.137 38.1109 35.6395C38.1109 32.5922 38.1109 29.5447 38.1109 26.4974C38.1109 25.5647 37.3645 24.7562 36.4939 24.5696C36.0587 24.5073 35.6233 24.5696 35.1879 24.5073C34.7526 24.4452 34.5661 24.6317 34.3795 25.0048C34.0063 25.8755 33.5087 26.684 33.1356 27.5548C32.8869 28.0521 32.6381 28.4254 32.0784 28.4254C31.5186 28.4254 31.2078 28.0521 31.0213 27.6169C30.7103 26.995 30.337 26.4353 30.1505 25.8134C29.8395 24.7562 29.1554 24.4452 28.0982 24.5696C26.8545 24.6939 25.9837 25.5024 25.9837 26.7463C25.9837 27.7413 25.9837 28.6741 25.9837 29.6691C25.9837 31.5971 25.9837 33.5872 25.9837 35.5151C25.9837 35.9505 26.1081 36.3236 26.6056 36.448C27.1032 36.5722 27.4141 36.3236 27.4141 35.7016C27.4141 33.6494 27.4141 31.5971 27.4141 29.4826C27.4141 28.4254 28.2226 27.8035 29.0311 28.2389C29.5287 28.4875 29.6529 28.9851 29.6529 29.5447C29.4664 32.2812 29.4664 35.0797 29.4664 37.8161Z" fill="#383838" stroke="#383838" stroke-width="0.3"/>
<path d="M16.3438 30.106C16.4059 26.4367 18.0229 22.7675 21.1323 19.6581C21.6921 19.0983 22.3139 19.0983 22.7493 19.5336C23.1847 19.969 23.1847 20.5908 22.6249 21.1506C20.4482 23.265 19.0179 25.8148 18.5825 28.8C17.8985 33.2156 19.1422 37.0714 22.1897 40.3052C22.3762 40.4918 22.5628 40.6783 22.7493 40.8649C23.1847 41.3624 23.1847 41.9844 22.7493 42.3575C22.3762 42.7306 21.6921 42.7929 21.2567 42.2953C20.324 41.238 19.3289 40.1187 18.5825 38.9371C17.0278 36.5116 16.3438 33.7752 16.3438 30.106Z" fill="#383838" stroke="#383838" stroke-width="0.3"/>
<path d="M47.5654 31.4722C47.5033 35.4524 45.8863 39.1838 42.7146 42.2311C42.2171 42.7286 41.5953 42.7286 41.1599 42.3555C40.7246 41.9201 40.7246 41.2361 41.222 40.7385C43.461 38.5619 44.8913 35.95 45.3266 32.8404C45.9486 28.487 44.7047 24.6935 41.7195 21.4595C41.533 21.273 41.4087 21.1485 41.222 20.962C40.7868 20.4645 40.7246 19.8427 41.1599 19.4073C41.5953 19.0342 42.1549 19.0342 42.6525 19.4694C44.0206 20.7754 45.2022 22.3302 46.0107 24.0716C47.0679 26.4348 47.5654 28.5493 47.5654 31.4722Z" fill="#383838" stroke="#383838" stroke-width="0.3"/>
<path d="M26.9785 16.3607C26.9785 13.5622 29.2175 11.2611 32.0159 11.1989C34.6901 11.1367 37.24 13.5622 37.1156 16.2363C36.9912 19.0349 34.939 21.2115 32.1403 21.2738C29.2796 21.336 26.9785 19.0972 26.9785 16.3607ZM34.8767 16.2363C34.8767 14.495 33.6329 13.2512 32.0159 13.2512C30.3368 13.2512 29.0309 14.6194 29.0309 16.2986C29.0309 17.9154 30.3991 19.2214 32.0782 19.2214C33.6951 19.1593 34.939 17.9154 34.8767 16.2363Z" fill="#383838" stroke="#383838" stroke-width="0.3"/>
</symbol><symbol id="icon-marker" viewBox="0 0 22 16">
<path d="M19.5302 0L8.28331 11.0644L2.52271 5.36949L-0.000976562 7.86441L7.02147 14.8068L8.28331 16L9.54516 14.8068L21.999 2.44068L19.5302 0Z" fill="#EC3237"/>
</symbol><symbol id="icon-menu-mobile" viewBox="0 0 34 35">
<line y1="2.74512" x2="34" y2="2.74512" stroke="black" stroke-width="4"/>
<line y1="17.6948" x2="34" y2="17.6948" stroke="black" stroke-width="4"/>
<line y1="32.644" x2="34" y2="32.644" stroke="black" stroke-width="4"/>
</symbol><symbol id="icon-menu-tablet" viewBox="0 0 38 27">
<line x1="0.958496" y1="2.36865" x2="37.9388" y2="2.36865" stroke="black" stroke-width="4"/>
<line x1="0.958496" y1="13.3164" x2="37.9388" y2="13.3164" stroke="black" stroke-width="4"/>
<line x1="0.958496" y1="24.2642" x2="37.9388" y2="24.2642" stroke="black" stroke-width="4"/>
</symbol><symbol id="icon-parking" viewBox="0 0 75 40">
<path d="M70.875 19.5945C72.2251 21.3199 72.6751 23.1955 72.6001 25.296C72.525 28.2219 72.6001 31.2227 72.6001 34.1485C72.6001 35.949 72.6001 35.9489 71.925 37.6745C72.45 37.6745 72.9 37.6745 73.425 37.6745C73.95 37.6745 74.4 37.6745 75 37.6745C75 38.4246 75 39.1748 75 40.0001C50.025 40.0001 25.0501 40.0001 0 40.0001C0 39.2499 0 38.5746 0 37.6745C3.3 37.6745 6.67501 37.6745 10.125 37.6745C10.125 32.273 10.125 27.0215 10.125 21.6201C8.25001 21.6201 6.45 21.6201 4.65001 21.6201C3.37501 21.6201 2.475 20.8698 2.25 19.6695C2.175 19.4445 2.175 19.2194 2.175 18.9944C2.175 13.5179 2.175 8.11637 2.175 2.63987C2.175 0.914405 3.15 0.0141602 4.875 0.0141602C10.35 0.0141602 15.75 0.0141602 21.225 0.0141602C22.875 0.0141602 23.85 0.914405 23.85 2.63987C23.85 8.11637 23.85 13.5929 23.85 19.0694C23.85 20.7948 22.95 21.6201 21.225 21.6951C19.4251 21.6951 17.7 21.6951 15.9001 21.6951C15.9001 27.0966 15.9001 32.348 15.9001 37.6745C19.575 37.6745 23.25 37.6745 27.0751 37.6745C25.95 36.2491 26.175 34.7487 26.175 33.3233C26.175 30.5474 26.175 27.7717 26.175 24.9959C26.1 23.0455 26.625 21.2449 27.75 19.8195C27.225 19.2194 26.475 18.7693 26.4 18.1691C26.175 17.1188 26.25 15.9936 26.4 14.9433C26.5501 14.118 27.3 13.6679 28.2 13.5929C29.175 13.5929 30.15 13.5179 31.1251 13.5929C31.65 13.5929 31.95 13.4429 32.175 12.9177C33 11.3423 33.75 9.6918 35.1001 8.49148C36.6 7.1411 38.4 6.3909 40.425 6.3909C46.2751 6.31588 52.125 6.31588 57.9751 6.31588C61.2 6.31588 63.675 7.74127 65.325 10.517C65.4 10.6671 65.5501 10.8921 65.6251 11.0422C66.0751 11.8674 66.375 12.9927 67.0501 13.3677C67.725 13.7429 68.85 13.5179 69.825 13.5179C71.85 13.5179 72.525 14.193 72.525 16.2186C72.525 16.4437 72.525 16.6687 72.525 16.8937C72.6001 18.2441 72.1501 19.1444 70.875 19.5945ZM68.475 34.4485C67.275 34.4485 66.225 34.4485 65.175 34.4485C65.175 36.3991 65.6251 36.8492 67.5 36.8492C67.875 36.8492 68.175 36.8492 68.5501 36.8492C69.6751 36.7742 70.275 36.2491 70.275 35.1237C70.275 31.5227 70.275 27.9217 70.275 24.3208C70.275 22.0702 68.85 20.1947 66.75 19.4444C66.225 19.2944 65.925 19.2944 65.6251 19.7445C64.425 21.47 63.15 23.1205 61.875 24.7709C60.6 26.3463 58.9501 27.1716 56.9251 27.1716C52.2 27.1716 47.475 27.1716 42.7501 27.1716C40.35 27.1716 38.475 26.2713 37.125 24.3208C36 22.7454 34.8 21.1699 33.6751 19.5945C33.45 19.2194 33.225 19.1444 32.775 19.2944C30.45 19.8195 28.725 21.6951 28.65 24.0958C28.5751 27.7717 28.65 31.5227 28.65 35.1988C28.65 36.099 29.25 36.6992 30.15 36.7742C30.825 36.8492 31.5 36.8492 32.175 36.7742C33 36.6992 33.525 36.174 33.6001 35.2738C33.6001 34.9737 33.6751 34.6737 33.75 34.2985C32.325 34.2985 30.975 34.2985 29.625 34.2985C29.625 33.4733 29.625 32.7231 29.625 31.9728C42.675 31.9728 55.65 31.9728 68.6251 31.9728C68.475 32.8731 68.475 33.6233 68.475 34.4485ZM65.6251 16.8187C65.475 16.3686 65.4 15.9936 65.25 15.6184C64.65 14.4931 64.0501 13.3677 63.45 12.2425C62.175 9.84184 60.225 8.71653 57.5251 8.71653C54.4501 8.79156 51.3 8.79156 48.225 8.79156C45.8251 8.79156 43.35 8.79156 40.95 8.79156C38.475 8.79156 36.525 9.76682 35.25 12.0175C34.575 13.2927 33.9 14.5681 33.225 15.8434C33.0751 16.1436 33.075 16.4437 33 16.8187C43.95 16.8187 54.675 16.8187 65.6251 16.8187ZM21.3 2.41482C15.675 2.41482 10.125 2.41482 4.575 2.41482C4.575 8.04135 4.575 13.6679 4.575 19.2194C10.2 19.2194 15.75 19.2194 21.3 19.2194C21.3 13.5929 21.3 8.04135 21.3 2.41482ZM62.925 19.2944C54 19.2944 45.15 19.2944 36.225 19.2944C37.425 20.8698 38.475 22.2952 39.6 23.7206C40.275 24.5459 41.2501 24.8459 42.3001 24.8459C47.175 24.8459 51.975 24.8459 56.85 24.8459C58.05 24.8459 59.0251 24.3958 59.775 23.4955C60.9 22.1452 61.875 20.7198 62.925 19.2944ZM35.4 37.5994C44.7 37.5994 54.075 37.5994 63.375 37.5994C63.15 36.7742 63.0001 35.949 62.775 35.1988C62.625 34.6737 62.325 34.4485 61.725 34.4485C53.55 34.4485 45.3001 34.4485 37.125 34.4485C36.45 34.4485 36.075 34.7487 35.925 35.4238C35.775 36.099 35.55 36.8492 35.4 37.5994ZM12.525 21.6951C12.525 27.0215 12.525 32.273 12.525 37.6745C12.8251 37.6745 12.975 37.6745 13.2 37.6745C13.275 37.5244 13.275 37.5244 13.275 37.4494C13.275 32.348 13.275 27.3216 13.275 22.2202C13.3501 21.6201 13.05 21.5451 12.525 21.6951ZM30.675 15.9936C29.925 15.9936 29.25 15.9936 28.5751 15.9936C28.5751 16.4437 28.5751 16.7437 28.5751 17.1188C29.325 17.1188 30 17.1188 30.675 17.1188C30.675 16.7437 30.675 16.4437 30.675 15.9936ZM70.05 17.1938C70.05 16.7437 70.05 16.3686 70.05 15.9936C69.3 15.9936 68.7001 15.9936 67.95 15.9936C67.95 16.3686 67.95 16.7437 67.95 17.1938C68.7001 17.1938 69.375 17.1938 70.05 17.1938Z" fill="#383838"/>
<path d="M32.7025 29.4968C30.8274 29.4968 29.3274 27.9964 29.2524 26.1209C29.2524 24.2453 30.8274 22.6699 32.7025 22.6699C34.5774 22.6699 36.1525 24.2453 36.1525 26.1209C36.1525 27.9214 34.5774 29.4218 32.7025 29.4968ZM33.7525 26.1209C33.7525 25.5207 33.3024 25.0706 32.7774 25.0706C32.1775 25.0706 31.8024 25.4457 31.8024 26.0459C31.8024 26.646 32.2525 27.0962 32.8524 27.0962C33.3774 27.0212 33.6775 26.646 33.7525 26.1209Z" fill="#383838"/>
<path d="M66.0041 29.4961C64.1292 29.4961 62.6292 27.9956 62.5542 26.1951C62.5542 24.3196 64.0542 22.7441 65.9291 22.7441C67.8042 22.7441 69.3042 24.2446 69.3791 26.0451C69.4541 27.9206 67.9541 29.4209 66.0041 29.4961ZM66.9791 26.0451C66.9041 25.445 66.6042 25.0698 66.0041 25.0698C65.4041 25.0698 65.0291 25.445 64.9541 26.0451C64.8791 26.5702 65.4041 27.0954 66.0041 27.0954C66.6042 27.0204 66.9041 26.6452 66.9791 26.0451Z" fill="#383838"/>
<path d="M9.37724 4.06462C11.1772 4.06462 12.9022 3.91458 14.6273 4.13964C16.8772 4.43973 18.2273 6.31523 18.2273 8.56585C18.2273 11.8667 16.5022 13.6673 13.2023 13.6673C12.7523 13.6673 12.3022 13.6673 11.7023 13.6673C11.7023 15.0176 11.7023 16.293 11.7023 17.5683C10.8772 17.5683 10.1272 17.5683 9.30225 17.5683C9.37724 13.067 9.37724 8.56585 9.37724 4.06462ZM11.7772 6.39025C11.7772 8.04071 11.7772 9.54111 11.7772 11.1166C12.6023 11.1166 13.3522 11.1916 14.1023 11.1166C15.4522 10.8915 15.9772 9.99123 15.8273 8.26576C15.7523 7.2905 14.9272 6.46528 13.8022 6.39025C13.1273 6.39025 12.5272 6.39025 11.7772 6.39025Z" fill="#383838"/>
</symbol><symbol id="icon-responsibility" viewBox="0 0 57 57">
<path d="M53.7638 47.0259C51.6489 46.0893 49.3975 45.4976 47.0955 45.273C45.8065 45.1184 44.612 45.0754 43.7398 45.0453C43.2587 45.0453 42.8419 45.0153 42.6572 44.9938C41.8283 44.5941 41.0274 44.1391 40.2596 43.6319C39.5541 43.1693 38.8224 42.7476 38.0684 42.3689C36.0179 41.6109 33.8692 41.1508 31.6881 41.0028C31.5751 40.9949 31.4619 41.0093 31.3545 41.0452C31.2473 41.0811 31.1482 41.1378 31.0627 41.2119C30.9774 41.2862 30.9075 41.3764 30.857 41.4776C30.8065 41.5788 30.7765 41.6891 30.7686 41.8018C30.7607 41.9146 30.7751 42.0279 30.811 42.1352C30.8468 42.2425 30.9035 42.3416 30.9778 42.4269C31.0519 42.5124 31.1423 42.5823 31.2434 42.6328C31.3447 42.6833 31.4549 42.7133 31.5678 42.7212C33.5576 42.8632 35.5181 43.2796 37.3938 43.9584C37.7634 44.1174 38.5754 44.6157 39.3617 45.1012C41.0803 46.1623 41.888 46.6306 42.4122 46.6993C42.7087 46.738 43.1383 46.7509 43.7011 46.7723C44.5605 46.8024 45.6948 46.8453 46.915 46.9871C49.0353 47.1906 51.1094 47.7315 53.059 48.5895C54.0859 49.0707 54.3051 49.6549 54.3094 49.7666C54.1675 51.0211 54.0816 51.541 54.0473 51.6526C53.9659 51.8304 53.8439 51.9865 53.6907 52.1082C53.5378 52.23 53.3581 52.3138 53.1664 52.3529C52.8091 52.4281 52.4475 52.4825 52.0838 52.5161C52.1657 51.9417 52.1219 51.3563 51.9554 50.8004C51.789 50.2446 51.5038 49.7316 51.1195 49.2967C50.7355 48.8619 50.2614 48.5155 49.7303 48.2818C49.1992 48.0481 48.6236 47.9324 48.0434 47.9428C47.4633 47.9532 46.8921 48.0894 46.3697 48.3419C45.8473 48.5946 45.3861 48.9576 45.0176 49.406C44.6493 49.8543 44.3827 50.3773 44.2363 50.9387C44.0898 51.5002 44.0671 52.0869 44.1695 52.6579L41.9009 52.5506C40.2467 52.486 38.6828 52.4259 37.8493 52.4259C35.8771 52.4259 26.8415 52.5118 25.9134 52.572C25.6385 52.572 25.1916 52.6064 24.5901 52.6193C24.6902 52.0451 24.6637 51.456 24.5128 50.8933C24.3619 50.3303 24.0899 49.8072 23.7161 49.3601C23.3422 48.913 22.8753 48.5529 22.348 48.3048C21.8207 48.0565 21.2455 47.9264 20.6627 47.9232C20.0799 47.9201 19.5033 48.0439 18.9733 48.2864C18.4433 48.5288 17.9726 48.8839 17.5939 49.3269C17.2152 49.7698 16.9375 50.29 16.7805 50.8512C16.6234 51.4124 16.5907 52.0011 16.6845 52.5763C16.2871 52.5414 15.8925 52.4812 15.503 52.3958C15.3957 52.3602 15.2825 52.3461 15.1699 52.3542C15.0572 52.3623 14.9472 52.3926 14.8463 52.4433C14.7453 52.4939 14.6553 52.564 14.5815 52.6495C14.5077 52.735 14.4514 52.8342 14.416 52.9414C14.3438 53.1574 14.3601 53.3931 14.4617 53.5969C14.5632 53.8007 14.7414 53.9558 14.9573 54.0283C15.9368 54.3549 15.692 54.2346 17.4407 54.3763C17.812 54.8758 18.2952 55.2815 18.8514 55.5609C19.4074 55.8404 20.0213 55.986 20.6437 55.986C21.2661 55.986 21.88 55.8404 22.4362 55.5609C22.9924 55.2815 23.4754 54.8758 23.8469 54.3763C24.8953 54.3763 25.6041 54.3377 26.0167 54.3119C26.8458 54.2604 35.6452 54.17 37.8407 54.17C38.6441 54.17 40.1909 54.2303 41.8279 54.2947C42.8548 54.3334 43.9246 54.3763 44.8914 54.4064C45.2709 54.911 45.7648 55.3185 46.3323 55.5954C46.8997 55.8722 47.5248 56.0108 48.1562 55.9994C48.7877 55.988 49.4073 55.8273 49.9646 55.5303C50.5218 55.2331 51.0007 54.8083 51.3619 54.2904C52.0751 54.2654 52.785 54.182 53.4844 54.0412C53.986 53.9428 54.4527 53.7139 54.8375 53.3775C55.2222 53.041 55.5113 52.609 55.6757 52.1252C55.8325 51.4178 55.9373 50.6999 55.9894 49.9772C56.0925 49.0578 55.4394 47.8249 53.7638 47.0259ZM20.6373 54.269C20.1839 54.2706 19.7404 54.1378 19.3627 53.8873C18.985 53.6366 18.6901 53.2796 18.5155 52.8613C18.3408 52.443 18.2942 51.9824 18.3817 51.5376C18.4689 51.0929 18.6865 50.6842 19.0063 50.363C19.3262 50.042 19.7343 49.823 20.1788 49.734C20.6232 49.645 21.0842 49.6897 21.5031 49.8629C21.9221 50.0359 22.2801 50.3294 22.5322 50.7061C22.7842 51.0828 22.9188 51.5259 22.9188 51.9791C22.9188 52.5849 22.6786 53.166 22.251 53.5952C21.8234 54.0244 21.2431 54.2666 20.6373 54.269ZM48.0879 54.269C47.6351 54.269 47.1922 54.1346 46.8156 53.883C46.439 53.6314 46.1455 53.2738 45.9722 52.8554C45.7988 52.4369 45.7535 51.9766 45.8419 51.5324C45.9302 51.0882 46.1483 50.6802 46.4687 50.36C46.7889 50.0398 47.1969 49.8217 47.6412 49.7334C48.0854 49.645 48.5459 49.6903 48.9643 49.8636C49.3828 50.0369 49.7404 50.3305 49.9921 50.7069C50.2437 51.0835 50.378 51.5263 50.378 51.9791C50.378 52.5864 50.1367 53.1689 49.7073 53.5983C49.2778 54.0276 48.6954 54.269 48.0879 54.269Z" fill="#383838" stroke="#383838" stroke-width="0.5"/>
<path d="M53.558 3.94469C40.0324 -1.93233 23.7785 1.16945 12.8524 11.626L8.89098 7.78104C8.81006 7.70235 8.71431 7.64042 8.60942 7.59858C8.50452 7.55688 8.39243 7.53623 8.2795 7.53789C8.16657 7.53942 8.05502 7.56325 7.95138 7.60786C7.84773 7.65261 7.75379 7.71731 7.67508 7.79822C7.59638 7.87914 7.53444 7.97487 7.49259 8.07975C7.45088 8.18463 7.43024 8.29671 7.4319 8.40963C7.43342 8.52255 7.45726 8.63408 7.50188 8.73771C7.54663 8.84148 7.61134 8.93528 7.69226 9.01397L11.6365 12.8417C1.00684 23.947 -2.00083 40.375 4.18203 54.0105C4.25062 54.1611 4.36147 54.2887 4.50086 54.3779C4.6404 54.467 4.80265 54.514 4.96824 54.5131C5.11082 54.513 5.25105 54.4772 5.37645 54.4094C5.50185 54.3413 5.60826 54.2434 5.68627 54.1241C5.76429 54.0047 5.8114 53.8678 5.82331 53.7258C5.83523 53.5838 5.81154 53.4409 5.75445 53.3103L5.71149 53.2244C5.63556 53.0207 5.60508 52.8029 5.62212 52.5862C5.63916 52.3695 5.70345 52.1592 5.81043 51.97C6.23997 51.158 7.21533 50.4921 8.4527 50.1827C10.0038 49.7962 11.6623 50.0839 12.5947 50.8229C12.7794 51.042 12.9642 51.2524 13.1618 51.4458L13.1919 51.4673L13.2821 51.5446L13.3336 51.5747L13.4238 51.6219L13.4839 51.6434L13.5743 51.6692H13.6387H13.7289H13.7934H13.8836H13.9523L14.0339 51.6434L14.1071 51.6176L14.1672 51.5833L14.2273 51.5489C14.2639 51.523 14.2983 51.4943 14.3304 51.463C14.3687 51.4248 14.4032 51.3831 14.4335 51.3385L14.4593 51.2911C14.4769 51.262 14.4927 51.2319 14.5065 51.2009C14.5065 51.2009 14.5066 51.158 14.528 51.1365C14.5381 51.1084 14.5467 51.0797 14.5538 51.0506C14.5538 51.0291 14.5538 51.0076 14.5538 50.9819C14.5555 50.9518 14.5555 50.9217 14.5538 50.8917C14.5538 50.8702 14.5538 50.8444 14.5538 50.8229C14.5555 50.7929 14.5555 50.7627 14.5538 50.7326C14.5538 50.7068 14.5538 50.6854 14.5538 50.6596C14.5538 50.6338 14.5538 50.6295 14.5538 50.6166C14.2832 49.7103 15.8772 47.3731 19.4648 45.5259C23.3317 43.5325 26.5284 43.5756 27.117 44.4819C27.2274 44.6486 27.3926 44.7716 27.5839 44.8296C27.7753 44.8876 27.9809 44.8771 28.1653 44.7999H28.1997L28.2684 44.7612L28.35 44.714L28.393 44.6753L28.4617 44.6194L28.5091 44.5592C28.5307 44.5333 28.5508 44.506 28.5693 44.4776L28.6036 44.4175C28.62 44.3855 28.6342 44.3525 28.6466 44.3187C28.6466 44.2973 28.6466 44.2758 28.6466 44.2543C28.6559 44.2204 28.6629 44.186 28.6681 44.1512C28.6681 44.1512 28.6681 44.1297 28.6681 44.1169C28.6681 44.1038 28.6681 44.091 28.6681 44.0781C28.6701 44.0438 28.6701 44.0094 28.6681 43.975C28.6681 43.9492 28.6681 43.9277 28.6681 43.902C28.6629 43.8672 28.6559 43.8328 28.6466 43.7989C28.6466 43.7774 28.6466 43.7559 28.6466 43.7345C28.6329 43.7005 28.6171 43.6676 28.5993 43.6357L28.6595 43.5282C28.6385 43.4967 28.6155 43.4665 28.5907 43.438L28.5564 43.3907C27.9592 42.7678 29.4628 39.0947 33.6091 34.7472L42.722 43.3822C42.8018 43.462 42.8966 43.5253 43.0009 43.5685C43.1053 43.6117 43.2171 43.634 43.33 43.634C43.443 43.634 43.5546 43.6117 43.659 43.5685C43.7633 43.5253 43.8581 43.462 43.9379 43.3822C44.0179 43.3023 44.0812 43.2076 44.1243 43.1033C44.1675 42.9989 44.1898 42.8871 44.1898 42.7744C44.1898 42.6614 44.1675 42.5496 44.1243 42.4453C44.0812 42.341 44.0179 42.2462 43.9379 42.1664L34.8207 33.5399C39.1388 29.4244 42.8079 27.9293 43.4137 28.5222L43.4481 28.548C43.5384 28.6251 43.6437 28.6826 43.7574 28.717C43.871 28.7513 43.9906 28.7619 44.1083 28.7477C44.2263 28.7336 44.3399 28.6951 44.4423 28.635C44.5445 28.5747 44.6332 28.4939 44.7028 28.3976V28.3762C44.7681 28.2821 44.8141 28.176 44.8377 28.0639C44.8614 27.9519 44.8626 27.8362 44.8409 27.7237C44.8193 27.6112 44.7754 27.5043 44.7119 27.409C44.6483 27.3138 44.5663 27.2322 44.4707 27.169C43.5685 26.5762 43.5298 23.3799 45.5191 19.522C47.0358 16.5793 48.8747 14.9425 50.0218 14.6289C50.2333 14.5549 50.4636 14.5549 50.675 14.6289L50.7309 14.6589L50.7996 14.7148C50.9089 14.7912 51.0346 14.8411 51.1667 14.8604C51.2986 14.8798 51.4334 14.8683 51.56 14.8266C51.6888 14.7869 51.8063 14.7178 51.9032 14.6246C52.0002 14.5313 52.0741 14.4165 52.1186 14.2896V14.2466C52.1948 14.0482 52.1948 13.8287 52.1187 13.6303C52.0425 13.4319 51.8955 13.2689 51.7061 13.1726C51.3775 12.865 51.0303 12.5781 50.6664 12.3133C49.997 11.1182 49.8256 9.7074 50.1895 8.38677C50.619 6.56959 51.8823 5.34096 53.0166 5.58577C53.2253 5.63135 53.4435 5.59769 53.6286 5.49115C53.8138 5.3846 53.9526 5.21294 54.0182 5.0097C54.0836 4.80631 54.0709 4.58588 53.9827 4.3915C53.8944 4.19698 53.7369 4.04222 53.5408 3.95757L53.558 3.94469ZM8.04463 48.5159C6.71289 48.8025 5.51861 49.5345 4.65896 50.5909C1.02832 40.2805 2.59229 28.6555 8.65043 19.3588C7.77332 22.8821 7.34876 26.5027 7.38715 30.1332C7.38715 35.8943 8.3625 43.4208 10.9834 48.3741C10.0041 48.2277 9.00529 48.2759 8.04463 48.5159ZM18.743 43.9965C16.0233 45.397 14.064 47.1842 13.2649 48.8467C10.7256 45.0533 9.0973 37.8918 9.10589 30.1375C9.10589 23.5345 10.296 18.0313 12.3239 14.8695C12.5216 15.5311 12.8008 16.3773 13.1833 17.447C14.1371 20.0848 15.5249 23.4615 16.9943 26.748C18.5325 30.1633 22.017 37.5826 25.3253 42.1793C23.3489 42.1707 20.8698 42.901 18.743 43.9965ZM26.9752 41.5392C21.6303 34.425 14.8374 17.7822 13.7977 13.774C17.8235 14.8309 34.4769 21.6486 41.5663 26.9457C39.0357 27.706 35.723 30.189 32.9732 32.96C30.2234 35.7309 27.7357 39.0088 26.9752 41.5392ZM44.0369 18.7188C42.9412 20.8453 42.2107 23.3112 42.2193 25.3003C37.622 21.9966 30.1891 18.5125 26.7861 16.9875C23.5208 15.5268 20.1264 14.1348 17.4841 13.1769C16.3971 12.7816 15.5549 12.5023 14.9062 12.3176C22.2103 7.71662 41.2268 8.24503 48.9778 13.2112C47.2634 13.9888 45.4246 16.0337 44.0369 18.7188ZM48.5353 7.97861C48.2941 8.94345 48.2459 9.94653 48.3934 10.9301C43.8864 8.6446 37.433 7.61354 32.0924 7.4416C28.0365 7.29987 23.3532 7.61783 19.366 8.66178C25.2784 4.79952 32.1838 2.73434 39.2461 2.71605C43.1071 2.70954 46.9417 3.35295 50.589 4.61913C49.5532 5.47327 48.8307 6.64759 48.5353 7.95714V7.97861Z" fill="#383838" stroke="#383838" stroke-width="0.5"/>
</symbol><symbol id="icon-safety" viewBox="0 0 77 49">
<path d="M22.5133 25.2083H8.78614L8.03824 32.7576C7.99558 33.1823 8.06836 33.6105 8.24871 33.9962C8.42906 34.3819 8.71008 34.7103 9.06129 34.9456L9.25559 35.0761C11.1501 36.355 13.3754 37.0374 15.6516 37.0374C17.9278 37.0374 20.1531 36.355 22.0476 35.0761L22.2427 34.9448C22.5939 34.7094 22.8749 34.3811 23.0551 33.9955C23.2353 33.6097 23.3079 33.1814 23.2649 32.7569L22.5133 25.2083ZM21.3869 33.6422L21.1919 33.7735C19.5497 34.8821 17.6208 35.4737 15.6477 35.4737C13.6747 35.4737 11.7457 34.8821 10.1037 33.7735L9.90938 33.643C9.79278 33.5644 9.69961 33.455 9.63961 33.3267C9.57973 33.1983 9.55548 33.0559 9.56942 32.9146L10.1777 26.7711H21.1217L21.73 32.9155C21.7433 33.0567 21.7184 33.199 21.6579 33.3271C21.5975 33.4551 21.5038 33.564 21.3869 33.6422Z" fill="#383838" stroke="#383838" stroke-width="0.5"/>
<path d="M8.82849 15.8415H22.4701L23.1694 11.5882C23.2475 11.1109 23.1784 10.6208 22.9714 10.1848C22.7645 9.74883 22.4297 9.38828 22.013 9.15244L20.518 8.31084C19.0308 7.46737 17.3551 7.02441 15.6508 7.02441C13.9467 7.02441 12.2709 7.46737 10.7837 8.31084L9.28728 9.15244C8.87056 9.38828 8.53599 9.74872 8.32892 10.1845C8.12196 10.6203 8.05282 11.1102 8.13075 11.5873L8.82849 15.8415ZM10.0359 10.5183L11.5307 9.67674C12.7893 8.96314 14.2073 8.58841 15.6493 8.58841C17.0914 8.58841 18.5094 8.96314 19.7679 9.67674L21.2627 10.5183C21.4015 10.5973 21.5129 10.7177 21.5819 10.8631C21.6508 11.0085 21.674 11.1719 21.6483 11.3311L21.164 14.2786H10.1346L9.64962 11.3303C9.62337 11.1711 9.64646 11.0076 9.7156 10.8621C9.78474 10.7168 9.89666 10.5968 10.0359 10.5183Z" fill="#383838" stroke="#383838" stroke-width="0.5"/>
<path d="M9.35096 37.2876L8.06787 38.1545L11.1518 42.843L12.4348 41.9761L9.35096 37.2876Z" fill="#383838" stroke="#383838" stroke-width="0.5"/>
<path d="M21.9526 37.3022L18.8672 41.9905L20.15 42.8579L23.2356 38.1696L21.9526 37.3022Z" fill="#383838" stroke="#383838" stroke-width="0.5"/>
<path d="M29.9586 27.6949C29.854 27.6233 29.7339 27.5787 29.6085 27.5651C29.483 27.5515 29.3562 27.5693 29.2393 27.6169L26.0435 28.9124L25.6711 24.4348L26.7751 11.0724C26.9215 9.36303 26.5551 7.64865 25.7239 6.15393C24.8928 4.65921 23.6356 3.45377 22.1169 2.69539L21.5079 2.38829C19.6861 1.47507 17.681 1 15.6485 1C13.616 1 11.6109 1.47507 9.78911 2.38829L9.18078 2.69539C7.66168 3.4533 6.4039 4.6585 5.5721 6.15334C4.7403 7.64806 4.3735 9.36268 4.51952 11.0724L5.62589 24.4348L5.25581 28.9156L2.06009 27.6199C1.94325 27.5721 1.81658 27.5539 1.69119 27.5672C1.56591 27.5803 1.44556 27.6245 1.34103 27.6957C1.23638 27.767 1.1506 27.8633 1.09107 27.9759C1.03165 28.0885 1.00036 28.2142 1.00001 28.342V30.4096C0.998604 30.8786 1.13653 31.3371 1.39587 31.7255C1.65521 32.1137 2.024 32.4139 2.45408 32.5868L4.86955 33.5659L4.54647 37.4559C4.39834 39.2498 4.81272 41.0454 5.73054 42.5866C6.64847 44.1278 8.02285 45.3361 9.65809 46.039L12.3071 47.1854C13.3635 47.6403 14.4992 47.8747 15.647 47.8747C16.7946 47.8747 17.9305 47.6403 18.9868 47.1854L21.6359 46.039C23.2716 45.3366 24.6468 44.1285 25.5652 42.5873C26.4836 41.046 26.8984 39.2502 26.7505 37.4559L26.429 33.5659L28.8444 32.5868C29.2743 32.4136 29.6427 32.1133 29.9017 31.7251C30.1608 31.3368 30.2985 30.8784 30.297 30.4096V28.342C30.297 28.2143 30.2662 28.0887 30.2071 27.9758C30.1482 27.863 30.0627 27.7666 29.9586 27.6949ZM4.85491 31.8764L3.02689 31.1348C2.88345 31.0774 2.76052 30.9775 2.67392 30.8481C2.58744 30.7188 2.54138 30.566 2.54197 30.4096V29.4962L4.85491 30.4339V31.8764ZM21.0314 44.602L18.3824 45.7476C17.5178 46.12 16.588 46.312 15.6485 46.312C14.709 46.312 13.7792 46.12 12.9146 45.7476L10.2656 44.602C8.92918 44.027 7.80605 43.0393 7.05593 41.7794C6.30593 40.5195 5.96737 39.0519 6.08843 37.5855L7.16784 24.4348L6.05679 10.9387C5.93808 9.5419 6.23808 8.14118 6.91777 6.92004C7.59757 5.6989 8.62519 4.7143 9.86621 4.09494L10.4752 3.78783C12.0835 2.9814 13.8538 2.56177 15.6481 2.56177C17.4425 2.56177 19.2127 2.9814 20.8209 3.78783L21.4293 4.09494C22.6704 4.71418 23.6983 5.69878 24.3781 6.91992C25.058 8.14107 25.3581 9.54178 25.2394 10.9387L24.1292 24.4348L25.2148 37.5895C25.3346 39.0558 24.9946 40.5231 24.2434 41.7824C23.4924 43.0415 22.3683 44.0282 21.0314 44.602ZM28.755 30.4096C28.7556 30.566 28.7096 30.7188 28.6231 30.8481C28.5365 30.9775 28.4135 31.0774 28.2701 31.1348L26.4421 31.8764V30.4339L28.755 29.4962V30.4096Z" fill="#383838" stroke="#383838" stroke-width="0.5"/>
<path d="M68.2158 25.2085H54.4883L53.7404 32.7578C53.6977 33.1825 53.7705 33.6108 53.9509 33.9964C54.1312 34.3822 54.4122 34.7105 54.7634 34.9459L54.9577 35.0763C56.8522 36.3553 59.0776 37.0377 61.3537 37.0377C63.63 37.0377 65.8553 36.3553 67.7497 35.0763L67.9451 34.945C68.2955 34.7097 68.5767 34.3814 68.7572 33.9957C68.9377 33.61 69.0103 33.1817 68.967 32.7571L68.2158 25.2085ZM67.089 33.6424L66.894 33.7737C65.2519 34.8823 63.323 35.4739 61.3499 35.4739C59.3769 35.4739 57.4479 34.8823 55.8058 33.7737L55.6115 33.6433C55.4949 33.5646 55.4018 33.4553 55.3418 33.3269C55.2819 33.1986 55.2576 33.0561 55.2716 32.9149L55.8799 26.7713H66.8238L67.4322 32.9157C67.4454 33.057 67.4206 33.1993 67.3601 33.3274C67.2996 33.4554 67.206 33.5643 67.089 33.6424Z" fill="#383838" stroke="#383838" stroke-width="0.5"/>
<path d="M54.5306 15.8423H68.1718L68.8714 11.5889C68.9499 11.1116 68.8808 10.6215 68.6734 10.1855C68.4671 9.74956 68.1319 9.38901 67.7151 9.15318L66.2201 8.31158C64.7329 7.4681 63.0572 7.02515 61.353 7.02515C59.6488 7.02515 57.973 7.4681 56.4858 8.31158L54.9894 9.15318C54.5727 9.38901 54.2381 9.74945 54.0311 10.1853C53.8241 10.6211 53.755 11.1109 53.8329 11.5881L54.5306 15.8423ZM55.738 10.5191L57.2329 9.67748C58.4915 8.96387 59.9095 8.58914 61.3514 8.58914C62.7936 8.58914 64.2115 8.96387 65.47 9.67748L66.9649 10.5191C67.1036 10.5981 67.2151 10.7185 67.2841 10.8638C67.353 11.0093 67.3762 11.1727 67.3504 11.3318L66.8662 14.2793H55.8367L55.3518 11.331C55.3255 11.1718 55.3486 11.0083 55.4178 10.8629C55.4869 10.7175 55.5988 10.5975 55.738 10.5191Z" fill="#383838" stroke="#383838" stroke-width="0.5"/>
<path d="M55.0516 37.2883L53.7686 38.1553L56.8525 42.8437L58.1354 41.9768L55.0516 37.2883Z" fill="#383838" stroke="#383838" stroke-width="0.5"/>
<path d="M67.6548 37.3022L64.5693 41.9905L65.8522 42.8579L68.938 38.1696L67.6548 37.3022Z" fill="#383838" stroke="#383838" stroke-width="0.5"/>
<path d="M75.6614 27.6949C75.5572 27.6233 75.4365 27.5787 75.3111 27.5651C75.1857 27.5515 75.0591 27.5693 74.9419 27.6169L71.7462 28.9124L71.3747 24.4348L72.4786 11.0724C72.6251 9.36303 72.2583 7.64865 71.4275 6.15393C70.5954 4.65921 69.3392 3.45377 67.8204 2.69539L67.211 2.38829C65.3892 1.47507 63.3841 1 61.3516 1C59.3191 1 57.314 1.47507 55.4922 2.38829L54.8839 2.69539C53.3648 3.4533 52.107 4.6585 51.2752 6.15334C50.4434 7.64806 50.0766 9.36268 50.2226 11.0724L51.329 24.4348L50.9589 28.9156L47.7632 27.6199C47.6464 27.5721 47.5197 27.5539 47.3943 27.5672C47.269 27.5803 47.1487 27.6245 47.0442 27.6957C46.9395 27.767 46.8537 27.8633 46.7942 27.9759C46.7348 28.0885 46.7035 28.2142 46.7031 28.342V30.4096C46.7017 30.8786 46.8397 31.3371 47.099 31.7255C47.3583 32.1137 47.7271 32.4139 48.1572 32.5868L50.5727 33.5659L50.2496 37.4559C50.1015 39.2498 50.5158 41.0454 51.4337 42.5866C52.3516 44.1278 53.726 45.3361 55.3612 46.039L58.0102 47.1854C59.0666 47.6403 60.2024 47.8747 61.3501 47.8747C62.4977 47.8747 63.6336 47.6403 64.69 47.1854L67.339 46.039C68.9747 45.3366 70.3493 44.1285 71.2681 42.5873C72.1868 41.046 72.6017 39.2502 72.454 37.4559L72.1317 33.5659L74.5482 32.5868C74.9771 32.4136 75.3462 32.1133 75.6052 31.7251C75.8642 31.3368 76.0013 30.8784 76.0001 30.4096V28.342C76.0001 28.2143 75.9697 28.0887 75.9099 27.9758C75.8513 27.863 75.7657 27.7666 75.6614 27.6949ZM50.558 31.8764L48.73 31.1348C48.5866 31.0774 48.4636 30.9775 48.377 30.8481C48.2906 30.7188 48.2445 30.566 48.2451 30.4096V29.4962L50.558 30.4339V31.8764ZM66.7345 44.602L64.0855 45.7476C63.2209 46.12 62.2911 46.312 61.3516 46.312C60.4121 46.312 59.4824 46.12 58.6178 45.7476L55.9687 44.602C54.6323 44.027 53.5092 43.0393 52.7591 41.7794C52.0091 40.5195 51.6705 39.0519 51.7916 37.5855L52.871 24.4348L51.7599 10.9387C51.6412 9.5419 51.9412 8.14118 52.6209 6.92004C53.3007 5.6989 54.3283 4.7143 55.5693 4.09494L56.1784 3.78783C57.7867 2.9814 59.5569 2.56177 61.3513 2.56177C63.1457 2.56177 64.9158 2.9814 66.5241 3.78783L67.1324 4.09494C68.3735 4.71418 69.4013 5.69878 70.081 6.91992C70.7606 8.14107 71.0618 9.54178 70.9423 10.9387L69.8325 24.4348L70.9177 37.5895C71.0372 39.0558 70.6974 40.5231 69.9462 41.7824C69.195 43.0415 68.0712 44.0282 66.7345 44.602ZM74.4579 30.4096C74.4591 30.566 74.4122 30.7188 74.3267 30.8481C74.24 30.9775 74.1169 31.0774 73.9728 31.1348L72.1458 31.8764V30.4339L74.4579 29.4962V30.4096Z" fill="#383838" stroke="#383838" stroke-width="0.5"/>
<path d="M28.503 21.4713C28.1598 21.8146 28.1598 22.3711 28.503 22.7145L34.0963 28.3091C34.4395 28.6524 34.9961 28.6524 35.3393 28.3091C35.6826 27.9658 35.6826 27.4091 35.3393 27.0658L30.3675 22.0929L35.3393 17.1199C35.6826 16.7766 35.6826 16.22 35.3393 15.8766C34.9961 15.5333 34.4395 15.5333 34.0963 15.8766L28.503 21.4713ZM48.496 22.7145C48.8392 22.3711 48.8392 21.8146 48.496 21.4713L42.9027 15.8766C42.5595 15.5333 42.003 15.5333 41.6597 15.8766C41.3165 16.22 41.3165 16.7766 41.6597 17.1199L46.6315 22.0929L41.6597 27.0658C41.3165 27.4091 41.3165 27.9658 41.6597 28.3091C42.003 28.6524 42.5595 28.6524 42.9027 28.3091L48.496 22.7145ZM29.1245 22.972H47.8746V21.2138H29.1245V22.972Z" fill="#383838"/>
</symbol><symbol id="icon-security" viewBox="0 0 58 60">
<path d="M29.1361 36.7099C27.467 36.7099 26.1094 35.3427 26.1094 33.6622C26.1094 31.9814 27.467 30.6143 29.1361 30.6143C30.8049 30.6143 32.1628 31.9814 32.1628 33.6622C32.1628 35.3427 30.8049 36.7099 29.1361 36.7099ZM29.1361 33.3306C28.9547 33.3306 28.807 33.4793 28.807 33.662C28.807 33.8445 28.9547 33.9931 29.1361 33.9931C29.3173 33.9931 29.465 33.8445 29.465 33.662C29.465 33.4793 29.3175 33.3306 29.1361 33.3306Z" fill="#383838"/>
<path d="M29.1335 38.4009C28.3885 38.4009 27.7847 37.7927 27.7847 37.0425V35.353C27.7847 34.6029 28.3885 33.9946 29.1335 33.9946C29.8783 33.9946 30.4823 34.6029 30.4823 35.353V37.0425C30.4823 37.7927 29.8783 38.4009 29.1335 38.4009Z" fill="#383838"/>
<path d="M35.2858 27.1346H22.9817C22.2369 27.1346 21.6328 26.5265 21.6328 25.7763V24.0867C21.6328 19.9217 24.9977 16.5332 29.1337 16.5332C30.9005 16.5332 32.6168 17.1648 33.967 18.3119C35.6621 19.7519 36.6345 21.8567 36.6345 24.0867V25.7763C36.6346 26.5265 36.0307 27.1346 35.2858 27.1346ZM24.3307 24.418H33.937V24.0867C33.937 22.659 33.314 21.3111 32.2279 20.3883C31.3635 19.6541 30.2648 19.2499 29.1339 19.2499C26.4853 19.2499 24.3307 21.4197 24.3307 24.0867V24.418Z" fill="#383838"/>
<path d="M29.1356 42.3415C23.4576 42.3415 18.8384 37.6897 18.8384 31.972V25.7768C18.8384 25.0266 19.4423 24.4185 20.1871 24.4185H38.084C38.829 24.4185 39.4329 25.0266 39.4329 25.7768V31.972C39.4329 35.944 37.2352 39.5069 33.6976 41.27C32.2708 41.981 30.7359 42.3415 29.1356 42.3415ZM21.536 27.1353V31.9721C21.536 36.1919 24.9451 39.625 29.1356 39.625C30.3172 39.625 31.4494 39.3593 32.5009 38.8355C35.1126 37.5338 36.7353 34.904 36.7353 31.9723V27.1354H21.536V27.1353Z" fill="#383838"/>
<path d="M35.2993 59.9998H23.0361C22.6734 59.9998 22.3263 59.8529 22.0726 59.5922C20.9713 58.4604 19.938 57.406 18.9681 56.4166C11.4359 48.7316 7.65519 44.8741 5.71207 39.0681C3.79756 33.3472 3.8086 26.0091 3.83051 11.3895C3.83289 9.73252 3.83542 7.9808 3.83542 6.12596C3.83542 5.72267 4.01339 5.34023 4.32132 5.08223C4.6291 4.82422 5.0351 4.7169 5.42873 4.7903C7.55906 5.18534 9.66851 5.38571 11.6984 5.38571C17.6683 5.38556 23.2949 3.64975 28.4223 0.22631C28.9209 -0.106893 29.5782 -0.0690698 30.0363 0.319367C34.0048 3.68442 39.1811 5.32027 45.8608 5.32012C48.0355 5.32012 50.3979 5.13881 52.8826 4.78144C53.27 4.72576 53.6617 4.84208 53.9571 5.09994C54.2525 5.35794 54.4221 5.73242 54.4221 6.12611C54.4221 8.65576 54.4285 10.9421 54.4347 13.1531C54.4728 26.7527 54.4917 33.5791 52.7299 38.9216C50.9401 44.3487 47.4558 47.962 40.5143 55.1604C39.2495 56.4721 37.8158 57.9587 36.2736 59.5809C36.0192 59.8486 35.6673 59.9998 35.2993 59.9998ZM23.6024 57.2832H34.7237C36.1207 55.8168 37.4204 54.4691 38.5788 53.2678C45.2342 46.3663 48.5746 42.9023 50.1698 38.0652C51.7928 33.1433 51.7743 26.4652 51.7371 13.1605C51.7321 11.4065 51.7272 9.60523 51.7253 7.67205C49.6728 7.914 47.7061 8.03648 45.8608 8.03648C39.0404 8.03663 33.4012 6.35275 29.0812 3.02927C23.7285 6.39613 17.8859 8.10192 11.6985 8.10207C10.0144 8.10207 8.28283 7.97509 6.53257 7.72369C6.53168 8.99646 6.52974 10.2187 6.5281 11.3933C6.50678 25.715 6.49605 32.9037 8.26852 38.2004C10.0128 43.412 13.6472 47.1202 20.8881 54.5081C21.7426 55.3802 22.6466 56.3023 23.6024 57.2832Z" fill="#383838"/>
<path d="M33.7221 51.85C33.3867 51.85 33.0508 51.725 32.7895 51.473C32.2514 50.9543 32.2328 50.0946 32.7479 49.5526C33.6431 48.6109 34.4743 47.7444 35.2462 46.9398C40.1183 41.8613 42.564 39.3123 43.7113 35.9559C44.8819 32.5325 44.8632 27.9296 44.826 18.7598C44.8208 17.4418 44.8149 15.9912 44.8123 14.4376C38.1505 15.1573 32.9795 14.0844 29.0751 11.1718C23.8863 14.3615 18.099 15.392 11.8586 14.2345C11.1259 14.0987 10.6415 13.3904 10.7765 12.6527C10.9114 11.915 11.615 11.4272 12.3473 11.5629C18.2115 12.6506 23.6172 11.5785 28.4136 8.37616C28.9126 8.04296 29.5699 8.08093 30.0278 8.46922C33.6765 11.5634 38.8906 12.5723 45.9692 11.5541C46.3568 11.4982 46.7483 11.6147 47.0437 11.8727C47.3391 12.1306 47.5087 12.505 47.5087 12.8989C47.5087 15.0333 47.5168 17.0073 47.5236 18.7487C47.6008 37.7916 47.5041 38.0727 37.1864 48.8275C36.417 49.6293 35.5886 50.4931 34.6965 51.4311C34.4317 51.7099 34.0771 51.85 33.7221 51.85Z" fill="#383838"/>
<path d="M56.6513 59.9994H1.34887C0.603935 59.9994 0 59.3911 0 58.6411C0 57.891 0.603935 57.2827 1.34887 57.2827H56.6513C57.3961 57.2827 58 57.891 58 58.6411C58 59.3911 57.3961 59.9994 56.6513 59.9994Z" fill="#383838"/>
<path d="M49.9074 54.5653H40.4656C39.7208 54.5653 39.1167 53.957 39.1167 53.207C39.1167 52.457 39.7208 51.8486 40.4656 51.8486H49.9074C50.6523 51.8486 51.2562 52.457 51.2562 53.207C51.2562 53.957 50.6523 54.5653 49.9074 54.5653Z" fill="#383838"/>
<path d="M17.5334 54.5653H8.09155C7.34662 54.5653 6.74268 53.957 6.74268 53.207C6.74268 52.457 7.34662 51.8486 8.09155 51.8486H17.5334C18.2783 51.8486 18.8822 52.457 18.8822 53.207C18.8822 53.957 18.2783 54.5653 17.5334 54.5653Z" fill="#383838"/>
</symbol><symbol id="icon-video" viewBox="0 0 65 54">
<path fill-rule="evenodd" clip-rule="evenodd" d="M61.4164 37.1893C61.9749 36.9398 62.5335 36.6903 63.0921 36.4408C63.4871 36.2481 63.8425 35.9986 64.1416 35.6697C64.7566 34.9893 65.0669 34.0651 64.9879 33.1523C64.9597 32.8518 64.8976 32.5569 64.7904 32.2734C64.6381 31.8595 64.4011 31.491 64.1021 31.1678C54.2902 20.9959 44.2922 11.0054 34.1983 1.11698C34.0008 0.929871 33.7864 0.759774 33.5551 0.612355C33.1376 0.351537 32.6749 0.170096 32.1897 0.0737069C31.9696 0.0340171 31.744 0.0113399 31.5183 0C31.4223 0 31.4223 0 31.3264 0C31.1007 0.0113399 30.8751 0.0340171 30.655 0.0737069C30.1698 0.170096 29.7071 0.351537 29.2896 0.612355C29.0583 0.759774 28.8495 0.929871 28.6464 1.11698C26.1976 3.51537 23.7828 5.94212 21.3961 8.40288C21.0745 8.75442 20.8093 9.13998 20.6175 9.57657C20.1661 10.6312 20.1774 11.8559 20.657 12.8992C20.6739 12.9332 20.6965 12.9672 20.7134 13.0069L19.9743 13.7497C19.8163 13.9141 19.664 14.0785 19.5229 14.2486C19.1731 14.6852 18.8684 15.1615 18.6314 15.6661C18.2478 16.4826 18.0277 17.3671 17.9826 18.263C17.9262 19.4423 18.1744 20.633 18.7048 21.6933C18.9305 22.1412 19.207 22.5665 19.5229 22.9577C19.664 23.1334 19.8163 23.2979 19.9743 23.4566L21.5203 25.0102C21.3905 25.6566 21.3453 26.3143 21.3736 26.972C21.3905 27.2442 21.4131 27.5163 21.4525 27.7828L14.5916 34.4564C14.4111 34.4677 14.2362 34.4847 14.0612 34.5131C13.9992 34.5187 13.9428 34.5301 13.8807 34.5414L6.81664 30.5214C6.80535 29.24 6.79971 27.9643 6.79971 26.6828C6.79971 26.4731 6.77714 26.2633 6.72636 26.0535C6.57402 25.4354 6.21292 24.8798 5.70512 24.5056C5.50201 24.3525 5.28196 24.2391 5.04498 24.1427C3.9786 23.7628 2.8953 23.4226 1.82328 23.0597C1.71607 23.0314 1.62016 23.0087 1.51296 22.9974C1.40576 22.9917 1.40575 22.9917 1.29855 22.9917C1.20828 23.003 1.18007 23.003 1.08979 23.02C0.88103 23.0654 0.683548 23.1618 0.519924 23.2922C0.130611 23.6097 -0.0668628 24.1257 0.0234127 24.6246C0.0459816 24.7664 0.0911203 24.9025 0.158827 25.0272C0.226533 25.152 0.311165 25.271 0.407083 25.3674C0.565065 25.5205 0.745614 25.6226 0.948734 25.7019L4.03503 26.7339V42.4794L0.948734 43.5113C0.745614 43.5907 0.565065 43.6927 0.407083 43.8458C0.282954 43.9706 0.181394 44.118 0.113687 44.2824C0.0572648 44.4128 0.0234112 44.5546 0.0064846 44.6963C-0.0499376 45.2746 0.266026 45.8416 0.790752 46.0911C1.0108 46.1989 1.2647 46.2442 1.51296 46.2159C1.62016 46.2102 1.72172 46.1818 1.82328 46.1535L4.95471 45.1045C5.15783 45.0308 5.34966 44.9458 5.52457 44.8324C6.06058 44.4922 6.47246 43.9706 6.66994 43.3639C6.74329 43.1257 6.78278 42.8763 6.79971 42.6268C6.811 42.1165 6.81664 41.6119 6.82228 41.1072L10.9129 43.4262C10.9975 43.5283 11.0878 43.619 11.1837 43.7097C11.652 44.1577 12.1993 44.5205 12.7917 44.77C13.4462 45.0535 14.1572 45.1953 14.8737 45.1953C15.5846 45.1953 16.2956 45.0535 16.9557 44.77C17.5481 44.5205 18.0954 44.1577 18.5637 43.7097C18.9418 43.3469 19.269 42.9273 19.5229 42.468L27.7098 34.5074C28.3417 34.6491 28.9849 34.7115 29.6338 34.6945C30.0908 34.6832 30.5534 34.6321 31.0048 34.5414L47.954 51.5796C48.1515 51.7668 48.3603 51.9255 48.6029 52.0559C49.3025 52.4245 50.1545 52.4642 50.888 52.1636C51.0911 52.0843 51.283 51.9709 51.4579 51.8461C51.9149 52.2997 52.3832 52.7533 52.8402 53.2126C53.032 53.3997 53.2464 53.5641 53.4834 53.6889C54.183 54.0574 55.035 54.1028 55.7685 53.8023C56.0676 53.6832 56.3271 53.5074 56.5697 53.2976C58.9282 51.0467 61.1738 48.6766 63.4758 46.3633C63.662 46.1648 63.82 45.955 63.9497 45.7112C64.3165 45.0082 64.356 44.1577 64.0569 43.4149C63.9384 43.1201 63.7635 42.8592 63.5604 42.6154C63.0865 42.1108 62.5956 41.6289 62.1104 41.1413C62.2119 40.9995 62.3022 40.8521 62.3812 40.6877C62.7141 39.9619 62.7141 39.1114 62.3812 38.3856C62.2458 38.1021 62.0652 37.847 61.8452 37.6202L61.4164 37.1893ZM60.1751 43.1484L61.4672 44.4412L54.7473 51.1998L53.4778 49.924C55.7403 47.6957 57.9521 45.4107 60.1751 43.1484ZM36.9122 29.6482C40.4048 33.1523 43.8521 36.5996 46.4927 39.2078C46.8764 39.565 47.2883 39.8825 47.734 40.149C47.7509 40.1547 47.7622 40.166 47.7735 40.1717C47.8243 40.2 47.875 40.2284 47.9258 40.2567C47.9484 40.2681 47.971 40.2794 47.9879 40.2907C48.4562 40.5402 48.9584 40.7273 49.4662 40.8577H49.4718H49.4887L49.4944 40.8634H49.5H49.5113L49.5169 40.8691H49.5226H49.5339L49.5508 40.8748C50.2617 41.0449 51.0008 41.0902 51.7343 41.0165C51.7682 41.0108 51.802 41.0052 51.8415 41.0052C51.8867 40.9995 51.9262 40.9938 51.9713 40.9825C52.4622 40.9145 52.9418 40.784 53.4044 40.6139L53.4101 40.6083H53.4157L53.427 40.6026H53.4326C53.4608 40.5913 53.4891 40.5799 53.5229 40.5629L53.6301 40.5176H53.6358C55.3228 39.8088 57.0042 39.1001 58.6855 38.3743L59.8422 39.5366L59.1933 40.1887C56.2255 43.0123 53.4157 45.9947 50.5269 48.9034L49.8668 49.5611L33.7977 33.4131C33.8259 33.3961 33.8485 33.3791 33.8767 33.3621C33.9275 33.328 33.9839 33.2883 34.0403 33.2543C34.0573 33.2373 34.0798 33.226 34.1024 33.209C34.1193 33.1976 34.1362 33.1806 34.1532 33.1693C34.2265 33.1183 34.2942 33.0672 34.3563 33.0162C34.3732 33.0105 34.3845 32.9992 34.3958 32.9878L34.424 32.9652C34.6215 32.8064 34.8133 32.642 34.9995 32.4662C35.3324 32.1487 35.6371 31.8028 35.9079 31.4343C36.0264 31.2755 36.1392 31.1168 36.2464 30.9467C36.2916 30.8786 36.3367 30.8049 36.3819 30.7312C36.5285 30.476 36.6696 30.2152 36.7881 29.9431C36.8332 29.8467 36.8727 29.7503 36.9122 29.6482ZM13.9935 37.3877C14.2136 37.3084 14.4393 37.2573 14.6706 37.2403C14.7609 37.2346 14.8512 37.229 14.9414 37.229C15.1502 37.2403 15.3533 37.2687 15.5564 37.3254C15.7539 37.3764 15.9457 37.4558 16.1263 37.5578L16.1432 37.5692C16.7469 37.915 17.1983 38.499 17.3732 39.1794V39.1851V39.1964L17.3789 39.2135V39.2191L17.3845 39.2418L17.3902 39.2532V39.2702L17.3958 39.2758V39.2928V39.2985C17.4466 39.5196 17.4579 39.7521 17.4466 39.9789C17.424 40.3361 17.3281 40.6763 17.1701 40.9938C17.046 41.2376 16.888 41.4588 16.6962 41.6515C16.4761 41.8727 16.2166 42.0541 15.9345 42.1845C15.6185 42.3263 15.28 42.4056 14.9414 42.4113C14.5973 42.4227 14.2474 42.3603 13.9258 42.2355C13.6381 42.1165 13.3729 41.9521 13.1416 41.7366C13.0344 41.6459 12.9384 41.5381 12.8538 41.4304C12.82 41.3851 12.7805 41.3397 12.7523 41.2887L12.741 41.2773C12.5943 41.0562 12.4758 40.8124 12.3968 40.5572V40.5459L12.3911 40.5346C12.3742 40.4665 12.3573 40.3985 12.346 40.3304L12.3404 40.3078L12.3347 40.2964V40.2907C12.2501 39.8145 12.3009 39.3269 12.4701 38.8789C12.6563 38.414 12.9723 38.0058 13.3785 37.7109C13.5704 37.5748 13.7735 37.4671 13.9935 37.3877ZM9.53619 39.4516L6.91256 37.9604V33.7703C8.27797 34.5527 9.64339 35.3295 11.0145 36.1063C10.9298 36.1914 10.8508 36.2821 10.7775 36.3671C10.7098 36.4522 10.6477 36.5316 10.5856 36.6166C10.5631 36.6393 10.5461 36.662 10.5292 36.6903C10.3487 36.9398 10.1907 37.212 10.0553 37.4898C9.82394 37.9717 9.66596 38.482 9.58697 39.0037C9.5644 39.1511 9.54747 39.3042 9.53619 39.4516ZM31.0161 19.7145L23.3596 12.0146C23.3596 12.0146 23.2073 11.8162 23.1565 11.6971C23.0211 11.3796 23.0211 11.0054 23.1565 10.6879C23.2129 10.5631 23.2863 10.4497 23.3765 10.342C25.6898 7.83588 28.0483 5.34677 30.6042 3.08446C30.7961 2.9257 31.0217 2.82364 31.27 2.78962C31.3321 2.78395 31.3941 2.78395 31.4562 2.78395C31.7552 2.79529 32.0373 2.90869 32.2687 3.10714C42.5714 12.7007 52.1349 23.0711 62.0709 33.0559C62.0878 33.0729 62.1047 33.0899 62.1216 33.1126C62.1611 33.1693 62.195 33.2316 62.2119 33.2997C62.2796 33.5492 62.1555 33.81 61.9242 33.9177C60.8747 34.394 59.8253 34.8646 58.7702 35.3295C58.7532 35.3295 58.7363 35.3352 58.7194 35.3352C58.5896 35.3636 58.5558 35.3806 58.4316 35.4259C56.4625 36.2707 54.5159 37.1779 52.5186 37.9717L52.4114 38.0171L52.3719 38.0284L52.3437 38.0398C52.0559 38.1418 51.7569 38.2155 51.4522 38.2496C50.6792 38.3289 49.895 38.1702 49.2179 37.796C48.9414 37.6429 48.5013 37.2687 48.3885 37.1723L37.0194 25.7473C35.0729 23.6778 33.0247 21.7103 31.0161 19.7145ZM17.7569 35.2955L17.7343 35.2842L17.7287 35.2785L22.4625 30.6745C22.4682 30.6802 22.4681 30.6858 22.4738 30.6915C22.7051 31.0827 22.9647 31.457 23.2581 31.8085C23.4442 32.024 23.6361 32.2337 23.8392 32.4265C24.1721 32.7497 24.5276 33.0445 24.9112 33.3054L24.9169 33.311H24.9225L24.9451 33.328L19.963 38.1702C19.9461 38.1305 19.9348 38.0851 19.9179 38.0454C19.9066 38.0058 19.8953 37.9717 19.8784 37.9377V37.9321L19.8727 37.9264C19.822 37.779 19.7599 37.6315 19.6922 37.4898C19.6358 37.3764 19.5737 37.263 19.5116 37.1496C19.4891 37.1099 19.4665 37.0702 19.4439 37.0305C19.1449 36.5429 18.7669 36.095 18.3324 35.7264C18.2591 35.6641 18.1857 35.6074 18.1124 35.5507C17.9995 35.4599 17.881 35.3749 17.7569 35.2955ZM28.6407 21.3134C30.497 23.1845 32.5621 25.2767 34.6779 27.4029C34.6666 27.4766 34.6553 27.5503 34.6441 27.6184C34.5425 28.106 34.3845 28.5766 34.1588 29.0189C33.7357 29.8467 33.0924 30.5611 32.3082 31.0714C32.1445 31.1735 31.9809 31.2698 31.806 31.3606C31.5521 31.4796 31.2926 31.5874 31.0274 31.6724C30.9597 31.6951 30.892 31.7121 30.8299 31.7291C30.2544 31.8879 29.6507 31.9446 29.0583 31.8992C28.6012 31.8709 28.1555 31.7801 27.7267 31.6327C27.6251 31.593 27.5179 31.559 27.4164 31.5137L27.3938 31.508L27.3769 31.4966C27.2358 31.4399 27.0948 31.3719 26.965 31.2982C25.955 30.7652 25.1313 29.9034 24.646 28.8714C24.4993 28.5653 24.3865 28.2421 24.3019 27.9189C24.2229 27.607 24.1721 27.2895 24.1495 26.972C24.0988 26.2859 24.1834 25.5942 24.3921 24.9365C24.426 24.8344 24.4599 24.7324 24.4993 24.6303L24.505 24.619C24.5953 24.4035 24.6968 24.1881 24.8097 23.9783C25.0579 23.536 25.3682 23.1278 25.7293 22.7762L25.7406 22.7649L25.7519 22.7479C26.0002 22.5154 26.2654 22.3 26.5475 22.1129H26.5531L26.57 22.0958C26.807 21.9484 27.0553 21.8123 27.3092 21.6989C27.7267 21.5175 28.1611 21.3984 28.6069 21.3191L28.6407 21.3134ZM22.5189 15.1218C23.4048 16.0233 24.7645 17.3954 26.4121 19.0624C26.2654 19.1248 26.2597 19.1248 26.0961 19.1985C25.9268 19.2779 25.9268 19.2779 25.7576 19.3629C25.7406 19.3743 25.7237 19.3799 25.7068 19.3913C25.3513 19.5727 25.0128 19.7882 24.6912 20.0263L24.6573 20.049C24.646 20.0547 24.6348 20.066 24.6178 20.0773L24.5501 20.1227L24.5163 20.151C23.8787 20.6443 23.3145 21.234 22.8518 21.8974C22.8236 21.9314 22.801 21.9654 22.7785 21.9994L22.7051 22.1015L22.6431 22.2036C22.3835 21.9428 22.124 21.6876 21.8644 21.4211C21.571 21.1036 21.3228 20.7464 21.1366 20.3495C20.6175 19.2552 20.6175 17.9568 21.1366 16.8568C21.3341 16.4259 21.6105 16.046 21.9434 15.7058L22.5189 15.1218ZM31.4054 6.85498C31.1967 6.86632 30.9879 6.91735 30.7961 7.01941C30.6663 7.08745 30.5478 7.17817 30.4462 7.28023C30.0908 7.65445 29.9667 8.20444 30.1303 8.69205C30.198 8.87916 30.2995 9.04926 30.4293 9.19668C31.8737 10.6992 33.3463 12.1734 34.8415 13.6249C35.0108 13.778 35.2083 13.8971 35.434 13.9538C35.575 13.9935 35.7217 14.0048 35.8684 13.9991C36.3819 13.9651 36.8445 13.6419 37.0476 13.1713C37.1153 13.0182 37.1548 12.8595 37.1661 12.695C37.1774 12.5136 37.1492 12.3322 37.0928 12.1621C37.0307 11.975 36.9291 11.8049 36.7937 11.6631C35.355 10.1606 33.8824 8.68071 32.3872 7.2292C32.1671 7.03075 31.9019 6.90601 31.6029 6.86632C31.5352 6.86065 31.4731 6.85498 31.4054 6.85498Z" fill="#383838"/>
</symbol></svg>
